<mxfile host="Electron" modified="2023-11-09T12:30:25.080Z" agent="Mozilla/5.0 (Macintosh; Intel Mac OS X 10_15_7) AppleWebKit/537.36 (KHTML, like Gecko) draw.io/22.0.3 Chrome/114.0.5735.289 Electron/25.8.4 Safari/537.36" etag="8JJp9GhEaI2b4q1yO5dO" version="22.0.3" type="device">
  <diagram name="Page-1" id="Cz8fm8I2Y81TsIDdCTIB">
    <mxGraphModel dx="794" dy="518" grid="1" gridSize="10" guides="1" tooltips="1" connect="1" arrows="1" fold="1" page="1" pageScale="1" pageWidth="827" pageHeight="1169" background="#000000" math="0" shadow="0">
      <root>
        <mxCell id="0" />
        <mxCell id="1" parent="0" />
        <mxCell id="OzNkCJJOeW8sa5ZOPFUS-1" value="Slange" style="swimlane;fontStyle=1;align=center;verticalAlign=top;childLayout=stackLayout;horizontal=1;startSize=26;horizontalStack=0;resizeParent=1;resizeParentMax=0;resizeLast=0;collapsible=1;marginBottom=0;whiteSpace=wrap;html=1;" vertex="1" parent="1">
          <mxGeometry x="270" y="350" width="160" height="170" as="geometry" />
        </mxCell>
        <mxCell id="OzNkCJJOeW8sa5ZOPFUS-2" value="x: int&lt;br&gt;&lt;br&gt;y: int&lt;br&gt;&lt;br&gt;lengde: int" style="text;strokeColor=none;fillColor=none;align=left;verticalAlign=top;spacingLeft=4;spacingRight=4;overflow=hidden;rotatable=0;points=[[0,0.5],[1,0.5]];portConstraint=eastwest;whiteSpace=wrap;html=1;" vertex="1" parent="OzNkCJJOeW8sa5ZOPFUS-1">
          <mxGeometry y="26" width="160" height="84" as="geometry" />
        </mxCell>
        <mxCell id="OzNkCJJOeW8sa5ZOPFUS-3" value="" style="line;strokeWidth=1;fillColor=none;align=left;verticalAlign=middle;spacingTop=-1;spacingLeft=3;spacingRight=3;rotatable=0;labelPosition=right;points=[];portConstraint=eastwest;strokeColor=inherit;" vertex="1" parent="OzNkCJJOeW8sa5ZOPFUS-1">
          <mxGeometry y="110" width="160" height="8" as="geometry" />
        </mxCell>
        <mxCell id="OzNkCJJOeW8sa5ZOPFUS-4" value="spis()&lt;br&gt;&lt;br&gt;beveg()" style="text;strokeColor=none;fillColor=none;align=left;verticalAlign=top;spacingLeft=4;spacingRight=4;overflow=hidden;rotatable=0;points=[[0,0.5],[1,0.5]];portConstraint=eastwest;whiteSpace=wrap;html=1;" vertex="1" parent="OzNkCJJOeW8sa5ZOPFUS-1">
          <mxGeometry y="118" width="160" height="52" as="geometry" />
        </mxCell>
        <mxCell id="OzNkCJJOeW8sa5ZOPFUS-9" value="" style="shape=image;aspect=fixed;image=data:image/png,iVBORw0KGgoAAAANSUhEUgAABLAAAAMiCAYAAAB+KDoJAAAAAXNSR0IArs4c6QAAIABJREFUeF7sveuXJMd55vdkZlXfe6a7p+d+xQwGgztIUCQBkqIoUReSXsuivPbals5aXHv10f4PfI6Pv9j/hGRJa63FlUSultIeySIJiuINBAkCBAYXYjD3+/R090zfqzLTJyIru6trqroyIzMr34x+SjsLEJMR+ebzRERG/vKNSOfo8RMh+KMCVIAKUAEqQAWoABWgAlSAClABKkAFqAAVoAJCFXD+8H97WT7AclrqhUAQBvoPwhAqcAfxXwpVOFVYLSscB67jwnEc/UdfqE0/ZVmo/l+IIAjU/6/sbDlpj59RCwUcx4XrunD1pdnqZ4hA9clQeRk3WHu8jFqr8lL1SeVlq28qS23qny3LlIe6b2ov7fNTuamG1shL17L7SNvNQg03aqzV/bK9b7bGIkvuK5Gf8X1T3Tst65exT9rPzvumXePs5qW27ptWzoE2+11031RzWuVr5KSFfrb6prpv6s5p0z2zzbKob/raSxufT6I5kGqh0ZxWP3/ZNta2zYG0n233TZueN/U9M3pA2f68aeOcNn7ebM2DtsYfe8bayM/ouWSzb1oyv9t2Ga05kL5ffvWdL1fjVtIaJJuBD99vtj0k2+RQDDwceG4NnutFAMu2n57ARJNw5WcQRjd8m24O0T0g8lP56Hm1FvRwoydKi36qjSov1Y3eD5r636OfXW1X+algh+vWUPNU32xdpl126otSD1W+72s/7QVYauLmaS+Vr1b+HKcFPKL7pn75Y3HfjMfaCHpY2DEd6PFV983Qtw8EtJENPQeyuW+qkVWNs2oOpOa1YWDdHChuoOpFgZoDeS0oufWSy5JRt+1FQdNvtF7M2vaCPZrTRi8KPNTcGlw3emC2zs/Nvtma07bumzY9o8QAS/XNmno+UUDSQrgct08192nGcyA9N7Dw+UShZVfNaWt2soNWEoF+1vR9AixZt08CLFl+ZIuGAMvCGwQBVrZOIaT0tom4zQ/JBFhCWlxOYRBg5SSkjGoIsGT4kDkKAqzMEkqrIOqbBFjSfEkbDwFWWsVkH68TJgiwJJpEgCXRFdOYCLAIsEzbTtnlmIFVtgM5nZ8AKychhVRDgCXEiHzCIMDKR8fSayHAKt2CvAMgwMpb0XLqI8AqR/eizkqAVZSymeslwMosoaAKCLAIsAQ1x1ShEGClkkvuwQRYcr0xiYwAy0Q1sWUIsMRaky4wAqx0elXgaAKsCpiUIEQCrAQiVegQAiyxZhFgibXGIDACLAIsg2YjoggBlggbsgdBgJVdQ0k1EGBJciNzLARYmSWUUQEBlgwfcoyCACtHMUusigCrRPELODUBVgGi5lMlAVY+OsqohQCLAEtGS0wfBQFWes1EliDAEmmLcVAEWMbSSSxIgCXRFYOYCLAMRJNdhABLtj9JoyPASqpUNY4jwBLrEwGWWGsMAiPAIsAyaDYiihBgibAhexAEWNk1lFQDAZYkNzLHQoCVWUIZFRBgyfAhxygIsHIUs8SqCLBKFL+AUxNgFSBqPlUSYOWjo4xaCLAIsGS0xPRREGCl10xkCQIskbYYB0WAZSydxIIEWBJdMYiJAMtANNlFCLBk+5M0OgKspEpV4zgCLLE+EWCJtcYgMAIsAiyDZiOiCAGWCBuyB0GAlV1DSTUQYElyI3MsBFiZJZRRAQGWDB9yjIIAK0cxS6yKAKtE8Qs4NQFWAaLmUyUBVj46yqiFAIsAS0ZLTB8FAVZ6zUSWIMASaYtxUARYxtJJLEiAJdEVg5gIsAxEk12EAEu2P0mjI8BKqlQ1jiPAEusTAZZYawwCI8AiwDJoNiKKEGCJsCF7EARY2TWUVAMBliQ3MsdCgJVZQhkVEGDJ8CHHKAiwchSzxKoIsEoUv4BTE2AVIGo+VRJg5aOjjFoIsAiwZLTE9FEQYKXXTGQJAiyRthgHRYBlLJ3EggRYEl0xiIkAy0A02UUIsGT7kzQ6AqykSlXjOAIssT4RYIm1xiAwAiwCLINmI6IIAZYIG7IHQYCVXUNJNRBgSXIjcywEWJkllFEBAZYMH3KMggArRzFLrIoAq0TxCzg1AVYBouZTJQFWPjrKqIUAiwBLRktMHwUBVnrNRJYgwBJpi3FQBFjG0kksSIAl0RWDmAiwDESTXYQAS7Y/SaMjwEqqVDWOI8AS6xMBllhrDAIjwCLAMmg2IooQYImwIXsQBFjZNZRUAwGWJDcyx0KAlVlCGRUQYMnwIccoCLByFLPEqgiwShS/gFMTYBUgaj5VEmDlo6OMWgiwCLBktMT0URBgpddMZAkCLJG2GAdFgGUsncSCBFgSXTGIiQDLQDTZRQiwZPuTNDoCrKRKVeM4AiyxPhFgibXGIDACLAIsg2YjoggBlggbsgdBgJVdQ0k1EGBJciNzLARYmSWUUQEBlgwfcoyCACtHMUusigCrRPELODUBVgGi5lMlAVY+OsqohQCLAEtGS0wfBQFWes1EliDAEmmLcVAEWMbSSSxIgCXRFYOYCLAMRJNdhABLtj9JoyPASqpUNY4jwBLrEwGWWGsMAiPAIsAyaDYiihBgibAhexAEWNk1lFQDAZYkNzLHQoCVWUIZFRBgyfAhxygIsHIUs8SqCLBKFL+AUxNgFSBqPlUSYOWjo4xaCLAIsGS0xPRREGCl10xkCQIskbYYB0WAZSydxIIEWBJdMYiJAMtANNlFCLBk+5M0OgKspEpV4zgCLLE+EWCJtcYgMAIsAiyDZiOiCAGWCBuyB0GAlV1DSTUQYElyI3MsBFiZJZRRAQGWDB9yjIIAK0cxS6yKAKtE8Qs4NQFWAaLmUyUBVj46yqiFAIsAS0ZLTB8FAVZ6zUSWqBjACkMPgT8E3x+B3xyF3xxBszEO3x9CGNTg+8MIAq+71I4Dz3Xguj3+XqRB6YNSD1ZhEMAPAyCaMgAO4LkbcL0NuK4Pr7aKWm0FXm1d/7vrrcF1G3CcIP0JB1oiviB1PTV4ngfXcQcawSBPRoA1SLULPBcBVoHillM1AVY5uud9VgKsvBUttz4CrHL13+HsBFhirTEIjACLAMug2YgoQoAlwobsQYgGWA40sApqCJpDCIIhNJtjaKzvwcb6FNbXpvWf1ZX9aKztQdMfxsb6HviNkZ66OHrIsWvc6XqxCmK1/4UToD60jKGhhxpaDY/OY2TsHoaHFzA8Mo+h4QXUhh/C89Y2QZfjNgUCLQKs7J1eUg3xnNaF59XgOS5c14WCA1b9CLCsslNdDAGWHZYSYNnhY3wVBFhi/STAEmuNQWAEWHY9SCo/VTaA69ZQ8zxED8tqpmPQOIQXIcASblDS8AQDrDB00djYg7WVA1haPIXlpaNYW5rF+sakzrzS2Vb+MPzGMPygHmVgqX/6taRXv3uOc0K4XgOe2wScJmq1DQ2yXG8dnvoztIqR4QWMjt/B+J5rmNhzGcOj93SWlqwfAZYsP7JGQ4CVVUFJ5dUcSD1Auo6HmluD6zr6f1sHJAmwJDW7TLEQYGWST1xhAixxlsQBEWCJtcYgMAIsAiyDZiOiCAGWCBuyByEKYLkIgjo21qawvroP62szWFvdh5XlA1h5eAQrS4ewvjqlwVXYa5lgdkV2ZQ2u10StvqKzssYmbmFs8ibGxu5gePQ+hkfua5hVH1qC4/glE3kCLLsaKAGWTX4SYNkzp9Veqnxlx0XNUzDS1TDStheyBFg2jUCqvToIwgC+78P56jtfrkb+gOppIdAMfPh+00riH48cyiC9/4OrsjzsGTA3u5EeJEMEQaD9DEJf++lYtvSDAMuutssMLHv83DYRt3mfnZIBVhi2lgn60V5WKuPq4eJjWJh7AkuLJ7C2Oo3mxpheRqgyrFRWlvrDX84KOOr+GsBxfb1Hltorq15fxujEXeyZ/hBT+97H2MR11OpLOitL/X20X9agp4cEWDk7X3J1BFglG5Dr6QmwLJsDEWDl2j/KrEw/nyDaA1QBSSvZgW6vBFhltrMdzs0MLKHGGIVFgGXPzV41AAIse/wkwBqMlwpMNTb24sH8GTy4fw5LD49idXk/1tem0NyIN2e3e9N1o5tH0YXUkkO3qZcX1ocf6j2zxsdvY2LqMqZm3tXLDL3acgl7ZBFgFW39YOsnwBqs3sWejQBrMPfNYl2MamcGlj1ebj6fEGANousYnIMZWAaiCS3CDCyhxpiFpYl4EERpnUFT/3v0s/AGwT2wzBqJsFIEWEX2TbVUsIYNtQH78mE8XDwRAayFU1hbmUWzMaKzrfgTokALZtWGljA+eQt7pz/E5NSHmNhzDaPjt3RW1uCWFhJgCWkVOYVBgJWTkCKqIcAq8r45WIsJsOzxkgBrsH0n/dkIsNJrJrUEAZZUZ4ziIsAykk10Ie6BJdqe5MENeAmhAlPqS4Lrq7N4sHAGC3NPYmHucb3Xlfp6oNrbSi0rtA1uJzdE6JFqiaET6KwstVeWAlnTs+9h7753MLHniv6KodoQPgJZRf4IsIpUd/B1E2ANXvPizkiAZQ/0IMCyx0sCrOLGvHxqJsDKR0cJtRBgSXAhtxgIsHKTUkxFBFhirMgWyCABVuhgY30GDxdO4+7Nj2Nx/jGsrexDY2MCvl8HuLdVNi8HUjqE4wZ6aeHQyAOMjt/FzOx5zB76Kcb3XNXLCov9EWAVq++gayfAGrTiRZ6PAMse6EGAZY+XBFhFjnp51E2AlYeKMuogwJLhQ05REGDlJKSgagiwBJmRJZQBAKww9PQG7StLh/GwlXU1f/cc1tem4TeHs0TPsiUqoDKyvNo6xidvYHr/O5ja9x4m9lzCyNhd/d+BeKl4nkESYOWpZvl1EWCV70F+ERBg2QM9CLDs8ZIAK78xrpiaCLCK0bWMWgmwylC9sHMSYBUmbWkVE2CVJn2+Jy4QYMVfGGysT2H54QnM3Xke83ef0l8XbDaHo68J6uWC/FVVAUcvLWxiaPghJmc+xL4Db2F69u3W3lhqk/e8lxQSYFW1rXSPmwDLJj8JsOy5nxFg2eMlAZb0UZYAS7pDyeMjwEquVQWOJMCqgEkpQyTASimY1MMLBFjxFwbv335BLxl8sHAS66szepN27nEltUGYxeW4Puq1FYxO3sHUzPs4eOz7mJy6WMCXCgmwzBySWooAS6ozJnERYNkDPQiw7PGSAMtkNBtkGQKsQapd7LkIsIrVd8C1E2ANWPABnI4AawAiD+IUBQEs3x/B2soBzN99DvduvYCF+2exsT6JUO11xZ+1Cni1NYyM38PM7DuYPfQz7Jl5F0PDi3DdRk7XTICVk5BCqiHAEmJELmEQYNkDPQiw7PGSACuX4a3ASgiwChR3wFUTYA1Y8GJPR4BVrL5l1E6AVYbqBZwzZ4CllgWGQR0rK4cxf/cZ3Lj8K1hePIZmU31h0GXmVQEWiqrSCVtfKlzFzMGf49Dx72Fq+n3U1VcK3SaALQBlFjcBlpluUksRYEl1xiQuAix7oAcBlj1eEmCZjGaDLEOANUi1iz0XAVax+g64dgKsAQs+gNMRYA1A5EGcIleA5cD3h7C+tg93b34Ct658CksPjsFvjEb7XfG3SxSIvlQ4NLKIqZkPcOSxV7B3WmViLeSwJxYBll2NiADLJj8JsOyBHgRY9nhJgCV9lCXAku5Q8vgIsJJrVYEjCbAqYFLKEAmwUgom9fAcAZbfHMfK8iHM3XkB926+iMX7Z+A3RgivpHpfcFxqXywFsWYOvI0DR17D1L63NcTKtpyQAKtg2wZcPQHWgAUv9HQEWPZADwIse7wkwCp02MuhcgKsHEQUUgUBlhAj8gmDACsfHSXVQoAlyY0MseQAsPSywbCG5YfHMX/nedy88uko8yr+0mCG8Fi02go4bhO1+ir2HXoTh49/D3szLyckwKp2i+iMngDLJj8JsOyBHgRY9nhJgCV9lCXAku5Q8vgIsJJrVYEjCbAqYFLKEAmwUgom9fAcAJbvD0fLBm98AreufgZLD44y80qq3wOPq2M54alXsFdv7G66nJAAa+AWFnpCAqxC5R1w5QRY9kAPAix7vCTAGvBAmPp0BFipJRNbgABLrDUmgRFgmagmuwwBlmx/EkeXEWAFQV1/bfDurU/g7o2P6WWDzcYIwD2vEluwGw7cWk54HgeP/AjT+99EfeihwZ5YBFh2tRcCLJv8JMCyB3oQYNnjJQGW9FGWAEu6Q8njI8BKrlUFjiTAqoBJKUMkwEopmNTDjQGWgzB0sL66H/P3nsbVD38LD+dPcdmgVJ8FxKWWE9brq9h/5DUcOfkKJqc+RH1oCUCQIjoCrBRiVeBQAqwKmJQ4RAIse6AHAZY9XhJgJR7CSjqQAKsk4Qs4LQFWAaKWVyUBVnnaF3VmAqyilB1wvYYAKww9BM0R3LvzUdy8/FnMz51DY20PN2wfsH3VOl20nHBs4hb2HXgLR059CxN7L8Hz1gFsgamdr4kAq1qe94uWAKufQlX6ewIse6AHAZY9XhJgSR9FCbCkO5Q8PgKs5FpV4EgCrAqYlDJEAqyUgkk93BBg+c0xPFg4gzvXX8bt6x/H2uo0Qr8u9SoZlyAFvPoaxidv4MjJ72LfwZ9ifPJqiqWEBFiCrMwhFAKsHEQUUwUBlj3QgwDLHi8JsMQMkT0C6QKwog5oUyOMb/YOPLcGz/Wg4IB1v9Y1BUGApt9EEPoIQ+Wl+tlyvap1Rj/lo+fV4Dpu5GeY9G10NZxvB1jKzzCMl4zY4mV8e4D20HVrqHmqb7b8sctOfVG7AmDBget62kvlq5U/A4AVBnWsrhzEzau/jLs3fgkPF04g8IeslIcXVYQCIepDy5iafR+HT/wzZg+9hlp9KSHE2u0Ay6Y5UHTf1FfkuHoO5On7p/qqqWU3zda0Ts19mn4Dam6rrtDGOa2a77mOum/W4LrqCUwtN7fRzxC+H8AP1DNKNKe16Xlz1wKsQHm51TuLuAMOvs7oedPdnNPW7GQH+l7i6P7o+z6c//Du7/YdeeIDWgxp05v2/z2IR1U1SPqBj6YaUHQjtOzXElo9THmetwmwqgKxOoeE9nYTOxUfo/7ZCbAsc1ODKn2zbwNYbs5AspvGRem407mUl2pQ0UAy7puDGBSKutgu9arLUX5quFwi9Oh16+3V/5I8ErWXVeOs+qPGWXWT0JNTy7yMNYkAVvSyoP230/Sm2/0wqzy9bsJZ69WPkK37pu834au+uWOlDjbWZrA49xSuXvgCFu6dhe+P6P2w+KMCSRVQm7rX60s4dOKHOHziFUzsuQSvvpy0uG6i7ePsIOdASe+pSY/rvOjOsbbp+whaD8l9J+OJFRRyoLp1OK37plffBFiDiM7Un51i26lONc5GD1ZqnI3vm/aNm1sAy9MwUgOsjK+e29t9L8WS+Jnkvp1sPhTNgdT9UvkZA6xBtNtBniOa07pbcyDVVwc02Wt/Fuz0pJfXnf89SZuI50Bbzyeqb2ZssIM0Kem59POmq+eytZoCWKpvRr+kOiU9Va/j8pa1V9ybAOsvzv9O6ntm3kGmEU0HHvhtRDxN6SocGzU51QjVw5V9t78tD1Q70l4Gfoo9Mqrg4fYYddaOeltltZuAHwbay+htXOphpRLGqpu7BpIdwENq8KZjtXqfo9882viioM0sx4m8zBssm7SHzh6T59iv+6aCkTtsqK0gVRjWsHDvKdy8+lncvfki1pb3mVwKy1ABOE6APdOXcODIj3Ho+HcxNnETcJpbmat9NNLjrGNpFnrbtauH5CgL3cKXsq3rjF7kufCcmtU9I35ZoPy096cysKKX7HnCDtO5Shqd054jfj7ZWk+R5mzVONaBej5RY62lWegtG1ROZPRCNs7AqoY/6aLcej7Jc/6YLobBHK36pvPv3/7tSj1p6kdj9YCso+73NrlgIdVbaadDPv0/27hn0la0+YZbI/DoxhD9P6t/OttDXWFnCnK7rlqbHlkgsd6dPuSlWuxL2vo7/XTyvNXndXH51hN1y7hvKr8SDi2mGncLv1f/69ZOuvXfnSTRcTqbb5TzVU9ebVHfDID2/terL+7UR7v61GXsHJQEXfpmfGpbx9t4jN1c6tGlbwZBHRurM7h17VO48sHnsbK8n0sHB9UmrTxPiFp9DXunL+LUk3+H6X1voz68CKfXfaEjy09Bj0FmXpVlwdZ9s+1+mfTeOcigk9wvO49p3RciH+33c2uc1ZPa5HOgQfjYb67c3v926qOtuezu6psJnjd3mhul6c/tfWinPtdr3pzEx1bzVIvO9HPmbng+idlB/LyZxhOT/pl2Tmx8jvaCrTF2l7AD59/9/EsJnzJN1M2nTBRgBAA0LXZd/ca8e+BZk+Xay/eqq5dknYss22FWuxbdzhH9fbyeXGWaqT8R11GpgfloKaGW6JqijhZ7GaUht+vafsG99OpcxNrNr351xh719iR2JvrnTufYnrAZX5O6Xu2l3heh1Zot8TPmjtHDhnrD2rohttLKt+uVxp9eWu/039v/rldL79auOo/tbo5ubXqZQLRUIPIy3rtNQs96NAYVYdKm1hpqolFWT2qisTZeItC7/Zt4lbRPd15Tkv4Xl+nf97WfKgOiR2ZSUu1kuh+9F9A+6n1Loj34Hr17Ra2ksTGJudvP4sbVl3DnxnNobozxq4NSja1IXOqrhKNjczhy8lUcOvYqpmZ+Acdt9snQje7rapzVEL1137RqDtTyT2f06v4Z3Te3fklHns7xsN+ctXPOlKQhdZvvdovv0XNHZ4v+e7zNQAzRbfFzS53Yy2huu/2+2U3nJM8aSfxpP2an559OHzs97HW/3N4qoxdb0X0z/ndbvNQzmc3nk/jeudPz5k7ad9O7V3+N60nyDJnWx97tTJ1tcz6r57TRXC7p6JO2dZZxfPvzpqfms337ZtJnwc555vbnv2Rj+U5ja5Jxt330ifaii+6b2+e0tvi59bzZejb50ze+0E2lMtrZjufUU2y1/0xr80BN/x8ZNfsPwDtf2E5S9Gqc/aTa6SbRpaxKYInXXgftG2L3O091/j56qMLmUqz4IfnRUbPbYJ70OnuVzbPOXjebtnYUqmWS0dI6lVYeBHbByM3brn5Ajjc3j/tmv/6UZvBOenNIMpwlaQNdhvzWA5VKXa3KMuYITST7td+2430RdN9svT3fviy0FwhM+9/7xdZvkt1rMterbW3vm/G+CMrPbr+k2vW7ijL/Pl4iUNPL0t0OgBXp4ft1rCwdwpUPfg23rn8EK0sHEPh2L/cp05PddO5afRV7pq/h+GPfxeETP9AbvLvuTkusWhNxtf+MpVsMxKOQAstqr6/oRV5aiNVtvtvvv3W2vH4jXL97eLcHePXf2uqNX/ro+6Zalm7fHCi6z8abm0fj7M5vndPomnS06Pf8sxP4SPKwHNEddWSo9yJW89kIYtkEsCK1IwgZb+WitxjY8SI7te83D00yB233vde8anMG3vqXfuftqHNzv1Nf7/UVb+yetMVV4bh4DhzvRRy/ZO8+M06q307PIzv1s17jZafXScaHR4/RyRJ637ZG6yV78vl/FbxUMaprVB+PUPdNJwnA6nwIan/QGdRFxzcIvUGZ19phv+uAkuaRrVv07VfX60p7Na5ujbrfm6qtuuI3NoqeqrW66mbf+XWPfhH1er9moopJmW7d85Ght1VxvIFynB1gloGlm3RrwtRNnV439V43nJ3AV3x1SXpE9IXMLRgZAaywQpO3nfxv/zt1jdEEvNU34y/TaLn69aedJl1JWvtOfbgfkujXj7eX12+rWg9V+muLbSig32NAnuNk0n65k7Kd8XQeu7mxZ9s+F9ExO3nSa6zr99936ou9/O02oesHu7b6b3umq/KyF8DqeBTbUYG8PO7sMVnaVvSywNFfAGv/2uL2lh9ifXUac3efwsX3fxPzdx+Hr+AVN27Py9JdXY/a0F0tJTx68kc4cfoVTE5dRa2+0lWTeKG9ap/6RUFrg/NBCph0fpv0uJ3G2ghg1aP9oTRcTltr5/FJ7pmm5+h8yOo/Nsdjl94MWwOPaF/F9uVnSe9nvdpAkivOq/30ijX67wpgOah5kZ/ds117zZDTepJWjfZ7d7e7WpK/jx6G44ydZjN6SI6n3/3uU/3mk+1RpVUjzfFJ2ps+ZtsHe5Jm1PV7gdfr2aHb1cce7/QMudMMpbPO9ufTaKTd/GBP/OEBg+yrfton1juvTtpWj46t42NaCmDt3Dc7Z2CdgfWaZyaZk+50N+j0stvzSe85bvvzpvoSquIISbTPU/YizvdIj1HPm/EefH/6xhe7qZTnNeVUV5S2o6BHXZE3+5D/JiqNoEfbF8C0gv1uDznJPIBq4kmaBlj67WOUem3bp3j1ILmZTdcCWGowtcjLeIGAhpB6Eh69Tda/iowsSZu8/nxrEOg3j+pt1eC+7ZE0wjyOi24X+sEq/jpfr5dNeZyupDrivtn+ZZooFHvG2agLRl9CVeOs3nRX3Tcf6ZcO5ufO4tqlz+D2tY9ieWkWCO3e0LWkZrdLTxvC9ZqY2ncJh479BMdOfg+j43f6arEJPdSG2NZ9NirqhNFXo6J7pgZYnXuB9lWpGgco6BFn06kxNxplbRprW88neqxtA1i2+dma0+r7ZgywNjd4qUZbTBJlfN/UX0LVmcuqrap7pz2T2ngOtPnFaZWFbt0425oDobXiR81p40xXe6xs3UucCC6rZxQNsNQFFoGUkvSgoo6J6IHa2ETPZwmwihLaoN7W/fxRgGXTjX5rT4RNgNWCH7ZN3nYHwIr8JMAy6O+CixBgCTYnRWj9AZaCsjXcuf4xXHjvi1i8fwKNjbEUZ+ChVKC/Amrj9uHRRcwefBdnn/6PmJy6DMfZ+Utt2wFW/3NU64jdDrDsmtNG+9RGy87sB1hqf95wdwGseAmhxQBr6wvidvXNaFlk6wU7AVa1bpNdotXPmwRYAn0kwBJoinlIBFjm2kksuTsysCLlCbAktsD0MfUDWOrLg+urM7hx5WV8+P6vY3V5BmHgpT8RS1C7JOeQAAAgAElEQVSBPgqoLKy9M5dx9ulvYN/+8xgaWdwxTZcAy54m9WgGll0PyQRYdvn5SAYWAVZlByMCLPv6JgGWxO5IgCXRFeOYCLCMpRNZkABLpC1GQXEJYSRbY2Mc924/jxtXXsLtG8+hsa6yr+ya8Bg1EBbKXwEnxNj4HI6efBWHj/8QU/t+AccJep6HACt/C8qqkQCrLOVzPq9eQsgMrJxVLaW6ziWEzMAqxYbcTqqfT6xfQtha8cMMrNzaTX4VEWDlp6WAmgiwBJiQYwgEWDmKWXJVBFiRAWrz9ksf/CZuXPkElh4cRODXS3aGp7dZgdrQCqZmLuPU2W/iyPHvQ23w3utHgGVPSyDAssRLAixLjIw2qd/cxF1/XMFv7Ztk1wssZmDZ5yczsCQOQwRYEl0xjokAy1g6kQUJsETaYhQUAZb6oqaH5aXD+MVbv4tb1z6KZmMEITdvN2pPLJRMAbWMcGRkEY+d+wecPPv/oVZb7ZmFRYCVTNMqHEWAVQWXEsRIgJVApGocQoBVDZ+SRskMrKRKlXLcbv4KoX0EVTUhbuJeSkfK/aTcxN2u/qn7Jr9CmHs/KaPCnfbA2tiYwMLcE/jg/L/AvdtPRvAqtK8tl6E7z9lDASdErb6KE2e+i5NnvonxyVvwvPWuBxNg2dOKCLAs8ZIAyxIjmYFl5VfSuYRQav8kwJLqTNq4og9hEmCl1U3q8QRY9j30E2BJ7W3p4toJYC0/PIJb1z6OKx9+Bg/mT6SrmEdTAUMFXK+BA0d+jmOnvo/9h97E0LDazP3RHwGWocACixFgCTTFJCQCLBPVRJZhBpZIW4yDYgaWsXSDKEiANQiVB3EOAiy7gAcBll1+arjMDKxBDIWFn2MngHX/3pO4/Itfx91bz+ivD/JHBQahgNr3as/e6zh47HWcfPybGBu/TYDluvBct7UHzSBcGOw5CLAGq3dhZyPAKkzaQVdMgDVoxYs9HwFWsfpmrJ0AK6OAYooTYNkFPAiw7PKTAEvMUJk5kF4ASy0XvHPjRfzi7d/B4vwxNBujmc/FCqhAEgXUlwfrw8vYf+gdPPHcX2JyzxU4TpSV3f5jBlYSNatxDAFWNXzqGyUBVl+JqnIAAVZVnEoWJwFWMp1KOooAqyThcz8tAZZdwIMAyy4/CbByH/JKq7AbwAoDF83mCG5efQnvv/VfYWVpP8LAKy1Gnni3KRBCbeY+PfshnnrhLzA18wG82qP7YBFg2dMuCLAs8ZIAyxIjuQcW98CqZlPWz5tw4HkenD9944uPvvoSeV0EWCJtMQiKAMsu4EGAZZefBFgGg5rQIt0AVuDXsbYygxtXXsaFd76ItdUpodEzLJsV2DNzBeee/RpmD5zH0MjCI5dKgGWP+wRYlnhJgGWJkQRYBFjVbMoEWFJ9az0Hh2EIP2jC9/3Wngh2PSATYNnnp9ozydX7eNT0P/WvImg86XCgU3SDAM3Ah+832y7QLj8JsJK2CPnHdQNYfmMYDxdP4saVl3D5wmexsTYp/0IYoXUKTOy9idPn/gEHDv8M45M3H7lhEGDZYzkBliVeEmBZYiQBlpXPJ/wKodT+yQwsqc6kjYsAyy7gwQwsu/wkwEo7osk9vhvAam6M4f7dZ3D98idx89qLaKyPy70ARmatAmOT93D8se/h8LEfY+/0B0DHPlgEWPZYT4BliZcEWJYYSYBFgFXNpswMLKm+MQNLqjNGccWbJLZPxFV2nQO7gAcBll1+EmAZdXeRhboBrMbaJG5efwk3Lr2EubuPo9kYERk7g7JbgZHRRRw48nMce+y7mD34xiMbuRNg2eM/AZYlXhJgWWIkARYBVjWbMgGWVN8IsKQ6YxQXAZaRbGILcQmhWGtSBxb3zSAM0PSbCAK/VYddMLIbwFpfncKVC7+B65c+iaUHh+D79dT6lVlAfbHOcZvwahvw3IbO3FH/rn9hnN9bZoTFnjsMPYRBDepLkn5zCL4/pP8dYbXabn1oBdOzF3Hq7D/i0LEfQn2dsP1HgFVsOxpk7QRYg1S7wHMRYBUo7mCr5lcIB6t30WfjVwiLVjhT/VxCmEk+QYW5hLBaDxr9mg4zsOzyU/mt9jTzvBo818NmwqBFe5rtZoC1tjKNi+9/CdcvvYTV5RkEQa1fFxf19wpWDY8savgxPnELtdo6JqevAo6v96jzFYy0qK1uE98BmuvT2FibRaMxgQf3T+LBwnFsbIxqqFWlX62+hsmpa3ofrKMnv0uA5bqtPU+r5GKyWAmwkukk/igCLPEWJQ2QACupUtU4jgBLtE8EWKLtSREcAZZdwIMAyy4/CbBSDGbCD+2WgbW2vA/vv/VlXL/ySTQ2xhEGnvCriMJzXB9Dww8xufcmpmcvYHrmAkbH72qANb73OsJQZdKpjyw0NAiwbal2pEIIvzGNxsZ+BI1JPHxwAvP3zmDh/kmsLO9r7WdWjfHI9RoYm7iHx5/6W5w4800CLAKsSoxD3YMMoR4g1Z+aW9cfsokBQYUv6tHQCbCssZMAyxoro/mR+sgUN3GXaioBllRn0sZFgFWNB4ykvhJg2eUnAVbSli//uG4Aa3V5P86//j/oDKxQLzuT337V8rLa0Apm9n+AQ0dfx/7Db2B4eFEvJVRLCl0vgle7AWA5Th2uMwwXNfj+KJYeHMHtGx/BnZvP4cH8CQQKSFZhOaETYmh4CU88+x9x+tzfEmARYMkfUHtGSIBVYfMeCT2+b6qvaqssdJWRDvUntCe1lwDLphZLgCXcTQIs4QYlDo8AS/4DY2IzdU5AqG/w6q2juuGrf7aSBdJUI/5Y7oEl3qLEAe7mJYQrCmD99Pc1wKrKTy0bHJ+4ixOPv4JDR1/TmVeu2v8q/qm3j7sEYLmuFy3vddQ466LRGMXS4nFcvfhZ3Lj8cWxsjFVmOaHaB+uJ57+GM+e+QYBFgFWV4ahLnARYFTaPACuI9gFVmctVeKGVpq1pGInW80l831SPYPawSC0HM7DStIqBH0uANXDJCzohARYBVkFNq9BqCbAKlXeglRNgVQtgjY7dx+yhd3Dy8W9hevY9uG5z+wx01wIslRTgoNmYwM1rn8C1i5/GwtxjaGyMDbQ/mZ6MAGvrpY9HgGXajASUI8ASYEJuITADKzcpS6+IAMvC502oPXo9OH/6xhcrwiEJsEofCXIKgADLwgGFGVg59Q4Z1XATdxk+ZI2i2xLCKmZgTe27hBNnvoMDh1/H+OStR1+f7mKApdpI4NexOH8aN699XEMstTl/FX4EWARYVWin/WMkwOqvUXWOIMCqjlf9IiXAsvB5kwCrX7Mv4e9b7UylcfpBE75vb0qnUlcthaipJWct+BGlr9rzi7M82j8HbuPmwlxCaNcNQvdNfoXQioHIFoA1c+B9nHny77HvwNsYHpl/1JtdDrDC0MPKw8O4feNFXHj3N7GytL8S7ZcAiwCrEg21b5AEWH0lqtABBFgVMqtPqARYdj2f6OdNAiyBHZQAS6Ap5iERYJlrJ7EklxBKdMUsJi4hrNYSwgNHfo4nnv069s58iFpthQBrcw+sSIowdLGxvgf3bj2Pd3/+u1haPGzWMQZcigCLAGvATa6g0xFgFSRsKdUSYJUieyEnJcAiwCqkYaWrlEsI0+kl92guIbRwQOESQrkdziAyZmAZiCawiC0ZWEdOvopnXvwzjI3f6a7yLs/AikWZu/c03vzRV/TXCKvwI8AiwKpCO+0fIwFWf42qcwQBVnW86hcpAZaFz5vMwOrX7Ev4e2ZglSB6cadkBlZx2pZRMzOwylC9mHMyA6taGVgEWHE/CPXS+62vEG7vHwRYxYwX+dcabZfgOARY+WtbRo0EWGWoXtQ5CbCKUnbw9RJgEWANvtU9ckZmYAkwIZcQmIFl4YDCDKxc+oaUSpiBJcWJbHEwAyubfvJKE2DJ88QkIgIsE9XkliHAkutN+sgIsNJrJrUEAZaFz5vMwBLY3ZiBJdAU85CYgWWuncSSzMCS6IpZTMzAYgaWWcspuxQBVtkO5HN+Aqx8dJRSCwGWFCfyiIMAKw8VZdRBgEWAJaAlMgNLgAm5hMAMLAsHFGZg5dI3pFTCDCwpTmSLgxlY2fSTV5oAS54nJhERYJmoJrcMAZZcb9JHRoCVXjOpJQiwLHzeZAaWwO7GDCyBppiHxAwsc+0klmQGlkRXzGJiBhYzsMxaTtmlCLDKdiCf8xNg5aOjlFoIsKQ4kUccBFh5qCijDgIsAiwBLZEZWAJMyCUEZmBZOKAwAyuXviGlEmZgSXEiWxzMwMqmn7zSBFjyPDGJiADLRDW5ZQiw5HqTPjICrPSaSS1BgGXh8yYzsAR2N2ZgCTTFPCRmYJlrJ7EkM7AkumIWEzOwmIFl1nLKLkWAVbYD+ZyfACsfHaXUQoAlxYk84iDAykNFGXUQYBFgCWiJzMASYEIuITADy8IBhRlYufQNKZUwA0uKE9niYAZWNv3klSbAkueJSUQEWCaqyS1DgCXXm/SREWCl10xqCQIsC583mYElsLsxA0ugKeYhMQPLXDuJJZmBJdEVs5iYgcUMLLOWU3YpAqyyHcjn/ARY+egopRYCLClO5BEHAVYeKsqogwCLAEtAS2QGlgATcgmBGVgWDijMwMqlb0iphBlYUpzIFgczsLLpJ680AZY8T0wiIsAyUU1uGQIsud6kj4wAK71mUksQYFn4vMkMLIHdjRlYAk0xD4kZWObaSSzJDCyJrpjFxAwsZmCZtZyySxFgle1APucnwMpHRym1EGBJcSKPOAiw8lBRRh0EWARYAloiM7AEmJBLCMzAsnBAYQZWLn1DSiXMwJLiRLY4mIGVTT95pQmw5HliEhEBlolqcssQYMn1Jn1kBFjpNZNaggDLwudNZmAJ7G7MwBJoinlIzMAy105iSWZgSXTFLCZmYDEDy6zllF2KAKtsB/I5PwFWPjpKqYUAS4oTecRBgJWHijLqIMAiwBLQEpmBJcCEXEJgBpaFAwozsHLpG1IqYQaWFCeyxcEMrGz6yStNgCXPE5OICLBMVJNbhgBLrjfpIyPASq+Z1BIEWBY+bzIDS2B3YwaWQFPMQ2IGlrl2EksyA0uiK2YxMQOLGVhmLafsUgRYZTuQz/kJsPLRUUotBFhSnMgjDgKsPFSUUQcBFgGWgJbIDCwBJuQSAjOwLBxQmIGVS9+QUgkzsKQ4kS0OZmBl009eaQIseZ6YRESAZaKa3DIEWHK9SR8ZAVZ6zaSWIMCy8HmTGVgCuxszsASaYh4SM7DMtZNYkhlYEl0xi4kZWMzAMms5ZZciwCrbgXzOT4CVj45SaiHAkuJEHnEQYOWhoow6CLAIsAS0RGZgCTAhlxCYgWXhgMIMrFz6hpRKmIElxYlscTADK5t+8koTYMnzxCQiAiwT1eSWIcCS6036yAiw0msmtQQBloXPm8zAEtjdmIEl0BTzkJiBZa6dxJLMwJLoillMzMBiBpZZyym7FAFW2Q7kc34CrHx0lFILAZYUJ/KIgwArDxVl1EGARYAloCUyA0uACbmEwAwsCwcUZmDl0jekVMIMLClOZIuDGVjZ9JNXmgBLnicmERFgmagmtwwBllxv0kdGgJVeM6klCLAsfN5kBpbA7sYMLIGmmIfEDCxz7SSWZAaWRFfMYmIGFjOwzFpO2aUIsMp2IJ/zE2Dlo6OUWgiwpDiRRxwEWHmoKKMOAiwCLAEtkRlYAkzIJQRmYFk4oDADK5e+IaUSZmBJcSJbHMzAyqafvNIEWPI8MYmIAMtENbllCLDkepM+MgKs9JpJLUGAZeHzJjOwBHY3ZmAJNMU8JGZgmWsnsSQzsCS6YhYTM7CYgWXWcsouRYBVtgP5nJ8AKx8dpdRCgCXFiTziIMDKQ0UZdRBgEWAJaInMwBJgQi4hMAPLwgGFGVi59A0plTADS4oT2eJgBlY2/eSVJsCS54lJRARYJqrJLUOAJdeb9JERYKXXTGoJAiwLnzeZgSWwuzEDS6Ap5iExA8tcO4klmYEl0RWzmJiBxQwss5ZTdikCrLIdyOf8BFj56CilFgIsKU7kEQcBVh4qyqiDAIsAS0BLZAaWABNyCYEZWBYOKMzAyqVvSKmEGVhSnMgWBzOwsuknrzQBljxPTCIiwDJRTW4ZAiy53qSPjAArvWZSSxBgWfi8Wa0MrOhmDzhwPQ91twb1Bj1+iy6146SOqz0Dy2/CD3yE4da1p65PZIEYXwGu66Hm1uC6DlzHbbtWkYGnDkq3T4TwgwC+7yMIIz8jm20ZVCI/FfBwXRee9tONtIqbbmrlZBbYDRlYmzd7x4Hn1eC53lZTtcjP3ZyBtbp8AG//9Pdw/dJLMjtal6iOnHwVz7z47zA2frt7zGqsVeNsEKAZNFrjrC1jbPslbwdYnXOg+/eexps/+goW509Uwtv60ArOPf81nD73DThOsC1mfd8MfARBc3P+V4mLShRkazB1HNTcOjzX1ffNrfleokoqc1AQqnmQDz9obl6jY9EcaPP5xI38VF5a93yip62O9i8MAzSaDQRh1GdtnNMq/9R8Vs2Btua09kyC4vap/GwGTf2MsjVpt+feGc1po+dNPad13KjB2mNl1AcdB2qcDdQcyI/mQNFF2uWlulY3Blh/8sYXqmGjTsBSD1VeNKA40Q3Ctp9ucq2JW3yzr4ZB6ZxQzjkaYEU3Bw0kLepoEb8J9fjhh9sBVjql5B+tvVQAy/FQ87bgsvzI00UYTdxC+KEP348m4jb2TX2DcF0Nl9VYa+M4q/unutmH6mbf1Dd9W92M4HItunc6LlaW9+Pt138P1y9WC2A9qwDWxJ2enVZ5GD8kq4mcjT91j4xfFCjo0dk35+4+hTdf/QoW71cNYP0tXHcLYEXjbOu+qaCHjWa27pvt46yNY60aVzXA8rcDLKssbT2fqOcSNQeK57RWXWP8zL/5kNyMXsradpGt62m/b+rnTQuvM57TxgBLQw8LL7QTYNk4zsZzWjUHUn6q+ZBl/GqzB+oVIurZ5M/e/FKlxp9o8uZpqmhhP9MGKUNU4wvCrbdVdo0qERWO3nBED8i2uqmBZBi0/FQTdLuIeDSiqDccyk8Fl+0Ey/HIGU3GFcCK327YNquJ+6YaZ139osDWn/JSzdcCleXRepNs37XGS1ui+6bqp6srB3D+9QrugfXRP8Norwys1guD2Mvo7aOdMwTHifpmt/umzsB69d/gQYUysJ54TmVg/adHMrBUn1RjrZ6I65+Nfqo5UDTO2vpQFb/M04BZjbN6rLXNy+33TfvntCqjrqkmt60XPzb5GS/vjV7KqswdW0ef+KWdynZV904bM7D084l+xnT1SzxbnzXjcVY9b/pBlCVp50/52bpn/vlbv10pgKU7mBOFHIZtg2aa8TOvuW2vepKs+msv2+bAVipuuy1pLq4qTbZTpI78h/ZL7qZzp355SdR5rn5e9mkDj/qZV6DSfG4XquVl0kvtp3HaS+1VXzdvu8XYq2+2xh2Eammo3Qg9vr5QXXOSvpZ2TE17fHsbyFI2fkMQrYbYepCq2F0wXZfYujj1bwpgvffGv8aNSy+nq6bEow+f/BGe/MifYHSsbQlh3Hdbl7e9KycdfEq8qKyndiIA2/50NX/3Gbz92v9cIYC1jMef/WucUgAL6gGqdTmPLPGw1c+48UaDmrgdI5KM/TuNzdHWtdE4qy816+CdtdMUWT6a90SXq/pmq82mabpp5Uk7d9qp/gSPHNEUqGPgtQ5Gtk0SNgfXUE37dv71ek7plCxNPf386jV/3RxIu4TcVqeeyW7ztD3YIvvKoOveHIiiMSi+7KIut3M+2c/zbnIk6dsd53H0fD0+mclJB+2L6fmiC3f+4p0vV2bqHi/5UKRY0cVtqwTSeJX2JtFL4171JG14nfeB+Nagssxa2Sytu6Gpy3LLtZZjRW/l/NabnLZwpQCsfgr2aQPR0rpW9oOaybU/NPeruzJ/H90N1Btz9SYn6pslpiL36n+dXu3kXbe+qf9btFfJVqZZmoGnKoaqdfTR8jq9RCBo8zKJZkkuM8sYnKVs29xUdUe1tE75qRcIWLgkXV9uqz9G+wkFWFs5iPfe/APcuvKpJE6JOObgiR/i3At/jNGxW4++JG71d+2jejNn8bJXnfHQWl6n9obqBB4Lc8/h/E/+LR7OnxThW78g6kPLOP3MX+HU2a8D2wBWvFQyXsJs4zirO2drny+1hLk1p5V0qTkBLJ01qLNZWvvPWAc9okFI983WOLu5n1kaP9Pe25I8a7R3wn5AZCfwEXE5fZ9UmUmbcyAr75ut7T/0Shg1BwrkAaydnksTA6zW9h9qKxc1C3JVY03TYPuN8EL+vpUpqLIG46V1j3C7PEPNA2AljaftXNueN+O9iJPWU5njojmQ8tH56rsJAFaSQa/wNq/e4KjN5rb2n7FtF7a4HaqBJN7rS6eVd8IcjR53aG1JbmpJjsnaoLudo7VXQAwj483N1QOzbfdBzXAc6KU7avPAeHDZca8dU1/STnz6edvDO12so+2plNxoyavaTyjarL5fE+13eql/r1NX1d5tKhW5tfS1VFi3k1Bp2lLHg8q2PUtau1wUPsQP3PToITnas0Sllrf2rYshV68LTqNr0mtqrzPH+lXfjB+q1L5taglPBLC+gtsVAlgHjv8QT77wRxHA6vJTksUvCuJ9+FqPlEkdiI7r1D6JLzn6tXOw0eIHvc+X3k+ofclHVHJeAayf/iGWKgKwakPLOPP0X+Lk2a/Dcbb201HXqTdQ9qL9TkU+U2XwPV7Gol/6qHtmC3qIvM50PWjb0Ztz2nhvKH3/dLfvN5hBxx1DS1Nv0vlTjzrjcXZzDtT6AJNtc1o9r9Mf0Nr6ANPmZvX9JghpniPTeNdt3O51k4j/e4JYo/umeimrXhREcNlOP6M5ULQ1T0n8yqT/tUOiHfxs75t6DtTa77RfE8gw7JVSNGqf0bY87XsR93zeTNvHklxVUh+T1BUf01Gnft5s3TeTA6xeDbsIEbpcXNwIdwXAavv6hbUAS71v1F9L6Pw6X5qWLfvYeBuWGGDpTSHV1xZ32vbStD/lPXAYAyy1sWf7l2lke5QmuvghWWXtKICl/NRzpzKzzXa6gDRtqQNg6S/TxJvutr7ikkYr6cdGl0uAJd2nOD4NsJ7/I4yOE2ARYAlptWnG146QuwEsBZete6hqPQ/rDKzWF8DsB1gqy0OtErEPeOj7ZvzBntYXxHcDwLJxThtP+VTf3ARYZQxAacbRbi+U+kC37XB564M9ZVxqkXcuKwFWl7axHWBVZQlh9Hq8IwOryOZQRt2RW+2fb7VyY0/14L/5BbB2gGXXkBKDqnaApW4W29e+ltHO8j2n/nxrKwNrM0W3tFc5+V5be23Kz2iJUgSwNt/Gtb8JKu70A625PQPLxo099aeVN7+c2cryGKjCAzpZ67Pn6oFKvX1UE/HVqmZgPf/HOwCsqG+2Z7vaNs7GQ6pedq/gsl56v70dzc89W+EMrPgjJ9E1bcvAGlB3GfRptpacKT8VwLJrDhQ30EcAlm1fCY2mtDpTR33CPvqqrX37ZG67b3YCrEF3noLP156BtQWw7Omf2kv9vNnx5UzL5rMxYN384rT+kETeb/wLbowJqtfPJ/ql7FYGVoJilTtEP29uZmARYAkycJcBLJWBpb8Apt5WRV+ys+lHgGWfnwRYdvRQAqwKLiEkwNJL6Qiw7BiD1FUQYFniJQGWJUZuXQYBlh2WEmDZ4WN8FQRYYv0kwBJrjUFgBFgEWAbNRkQRZmCJsCF7EMzAyq6hpBoIsCS5kTkWAqzMEsqogABLhg85RkGAlaOYJVZFgFWi+AWcmgCrAFHzqZIAKx8dZdRCgEWAJaMlpo+CACu9ZiJLEGCJtMU4KAIsY+kkFiTAkuiKQUwEWAaiyS5CgCXbn6TREWAlVaoaxxFgifWJAEusNQaBEWARYBk0GxFFCLBE2JA9CAKs7BpKqoEAS5IbmWMhwMosoYwKCLBk+JBjFARYOYpZYlUEWCWKX8CpCbAKEDWfKgmw8tFRRi0EWARYMlpi+igIsNJrJrIEAZZIW4yDIsAylk5iQQIsia4YxESAZSCa7CIEWLL9SRodAVZSpapxHAGWWJ8IsMRaYxAYARYBlkGzEVGEAEuEDdmDIMDKrqGkGgiwJLmRORYCrMwSyqiAAEuGDzlGQYCVo5glVkWAVaL4BZyaAKsAUfOpkgArHx1l1EKARYAloyWmj4IAK71mIksQYIm0xTgoAixj6SQWJMCS6IpBTARYBqLJLkKAJdufpNERYCVVqhrHEWCJ9YkAS6w1BoERYBFgGTQbEUUIsETYkD0IAqzsGkqqgQBLkhuZYyHAyiyhjAoIsGT4kGMUBFg5illiVQRYJYpfwKkJsAoQNZ8qCbDy0VFGLQRYBFgyWmL6KAiw0msmsgQBlkhbjIMiwDKWTmJBAiyJrhjERIBlIJrsIgRYsv1JGh0BVlKlqnEcAZZYnwiwxFpjEBgBFgGWQbMRUYQAS4QN2YMgwMquoaQaCLAkuZE5FgKszBLKqIAAS4YPOUZBgJWjmCVWRYBVovgFnJoAqwBR86mSACsfHWXUQoBFgCWjJaaPggArvWYiSxBgibTFOCgCLGPpJBYkwJLoikFMBFgGoskuQoAl25+k0RFgJVWqGscRYIn1iQBLrDUGgRFgEWAZNBsRRQiwRNiQPQgCrOwaSqqBAEuSG5ljIcDKLKGMCgiwZPiQYxQEWDmKWWJVBFglil/AqQmwChA1nyoJsPLRUUYtBFgEWDJaYvooCLDSayayBAGWSFuMgyLAMpZOYkECLImuGMREgGUgmuwiBFiy/UkaHQFWUqWqcRwBllifCLDEWmMQGAEWAZZBsxFRhABLhA3ZgyDAyq6hpBoIsCS5kTkWAqzMEsqogABLhg85RkGAlaOYJVZFgFWi+AWcmgCrAFHzqZIAKx8dZdRCgEWAJaMlpo+CACu9ZhzCbuIAACAASURBVCJLEGCJtMU4KAIsY+kkFiTAkuiKQUwEWAaiyS5CgCXbn6TREWAlVaoaxxFgifWJAEusNQaBEWARYBk0GxFFCLBE2JA9CAKs7BpKqoEAS5IbmWMhwMosoYwKCLBk+JBjFARYOYpZYlUEWCWKX8CpCbAKEDWfKgmw8tFRRi0EWARYMlpi+igIsNJrJrIEAZZIW4yDIsAylk5iQQIsia4YxESAZSCa7CIEWLL9SRodAVZSpapxHAGWWJ8IsMRaYxAYARYBlkGzEVGEAEuEDdmDIMDKrqGkGgiwJLmRORYCrMwSyqiAAEuGDzlGQYCVo5glVkWAVaL4BZyaAKsAUfOpkgArHx1l1EKARYAloyWmj4IAK71mIksQYIm0xTgoAixj6SQWJMCS6IpBTARYBqLJLkKAJdufpNERYCVVqhrHEWCJ9YkAS6w1BoERYBFgGTQbEUUIsETYkD0IAqzsGkqqgQBLkhuZYyHAyiyhjAoIsGT4kGMUBFg5illiVQRYJYpfwKkJsAoQNZ8qCbDy0VFGLQRYBFgyWmL6KAiw0msmsgQBlkhbjIMiwDKWTmJBAiyJrhjERIBlIJrsIgRYsv1JGh0BVlKlqnEcAZZYnwiwxFpjEBgBFgGWQbMRUYQAS4QN2YMgwMquoaQaCLAkuZE5FgKszBLKqIAAS4YPOUZBgJWjmCVWRYBVovgFnJoAqwBR86mSACsfHWXUQoBFgCWjJaaPggArvWYiSxBgibTFOCgCLGPpJBYkwJLoikFMBFgGoskuQoAl25+k0RFgJVWqGscRYIn1iQBLrDUGgRFgEWAZNBsRRQiwRNiQPQgCrOwaSqqBAEuSG5ljIcDKLKGMCgiwZPiQYxQEWDmKWWJVBFglil/AqQmwChA1nyoJsPLRUUYtBFgEWDJaYvooCLDSayayBAGWSFuMg7IMYHm1NRw59U84duqbGN9zGV5tZVMaz63B8zy4jmssl/SCBFjSHUoYHwFWQqGqcxgBVnW82ilSAiw7fIyvggBLrJ8EWGKtMQiMAIsAy6DZiChCgCXChuxBEGBl11BSDdYBrHUcOv4DHDn5beyZ/gC1+kMCLEntLXMs8ZzWhefV4DkuXNeFggNW/QiwrLJTXQwBlh2WEmDZ4SMBlngfCbDEW5QiQAIsAqwUzUXUoQRYouwwD4YAy1w7iSUtA1iu18DMgfM4eOwH2H/oNQyP3gMQaOWZgSWxAaaNiQArrWKSj1dzWgUEXMdDza3BdR39v60DkgRYkpthqtgIsFLJJf5gZmCJtYgAS6w1BoERYBFgGTQbEUUIsETYkD0IAqzsGkqqwTKA5TgBhkYWsO/A2zjx+N9hYu9FeLXVFsDyuIRQUtszioUAy0g2oYUIsOyZ02ovATiOi5qnYKSrYSRsS46M50BhgKbfRBAGKr1OXbnQXmYWlvLThQPX9bSf2ksLfwRYYk0lwBJrjUFgBFh2DaD6BqGXQNRQ8zxs3h8su+Grpk6AZdDhJRYhwJLoinlMlgEsOCFct4nxyRs4fOKfMXvodb0Xlus24Llq2Rn3wDJvLBJKEmBJcCGvGAiw7JnTEmDZ46Xq3wRYeY1yRdSj2loINAMfvt+0MmU1Rt+KMOr0eVc9JNvVyXTT0JQ/RBAE2s8g9LWfjoVEXF2u8lHt/+A6Kt3abdH/IjpJOXVqIh4E+s2GHzT1v0c/u9ouAZY9fm6biNv8kEyAVc6gWNRZ+wCshftP472ffQUP5h9D4NeLiiL3eutDy5icuoh9h97E9L53MDJ2D0NDa6jVHQwPLed+PikVchN3KU5kjIN7YGUUUF5x7oElzxOTiLiE0EQ1uWWYgSXWG2ZgibXGIDBmYNkDPDbfcDADy6AnyCtCgPUV3L7yKXnG9IjowPEf4snn/xij47e6HhHD5fhlQbQUwsLUyD4A68HCWVx4+7/D/L1zaKxPVsZfx/XheesYGZ3HxJ5rmNr/DsbH76M+tI6901cqcx0mgfq+D1+9yGst6TGpQ26ZaKmO+j+9iXtrmZLIPZMc9RJVZQT6cJxm9E+3CbXMte+PAKuvRFU7gACrao51j5cAyw4f46sgwBLrJwGWWGsMAiPAIsAyaDYiinAJoQgbsgfBDKzsGkqqoQ/AWlo8jYvv/teYu/MM1lenJUXeP5bWcsJafRmj43Oo1VfheT5GRhejshbyyOiyQp2BrsZcW3/Rxt8RyBLJlt0IXA3VVzA8uoCx8bsYG7+jMwFr9RW9zHXHHwGWdU2XAMsOSwmw7PCRAEu8jwRY4i1KESABFgFWiuYi6lACLFF2mAdDgGWuncSSfQDW8oOTuPrhF3Hv5kew/PCwxCtgTFRAnAIqy8r1mlBLWUfH5jE+eRvjk7cwPnEHo2P3MDp+D8Mj8/Bq690zsgiwxHmaNSACrKwKyihPgCXDh7yiYAZWXkrmXg8BVu6SllghARYBVonNL9OpCbAyySenMAGWHC/yiKQPwFpbOYhb134Zt6+9jIV7Z6zbhzAPCVkHFeimgIJY+o/ra5jleg2dkTU+eQf7DryHabWsdeI26kNL+iMDjtOWMUeAZV2jIsCyw1ICLDt8jK+CAEusnwRYYq0xCIwAiwDLoNmIKEKAJcKG7EEQYGXXUFINfQDWxtoM7t/5CK5d+lXM3XqOAEuSd4ylcgoomFUfWsXo6H1MTl3H9Oz7mNn/vt6nTe3ZtgmxCLAq522/gAmw+ilUjb8nwKqGT0mjJMBKqtTAjyPAGrjkBZ6QAIsAq8DmVWjVBFiFyju4ygmwBqf1IM7UB2A1mxN4cP8srlz4Am5f/SQB1iA84Tl2hQK1oRXsnbmM2YPvYnb/eeyZuYR6fSlaUkiAZV0bIMCyw1ICLDt8jK+CAEusnwRYYq0xCIwAiwDLoNmIKEKAJcKG7EEQYGXXUFINfQBW4A9hZekoLv3iv8SNS59DGLpAaNc4LMkOxrJ7FFCgSu2BpfbImtn/AY499l3smbqklxQ6bqA/ehqGAZp+A0GgvikZfX/Rpt+2r/e6Nbiu2pTf0R8hsO1HgGWHowRYdvhIgCXeRwIs8RalCJAAy77Jm+u4cN0aap6nv6akf/bN3fQXsaLPu6uvL8UXaI+f2ybingflq5U/Aiy7bO0DsBSw2lifxuVf/DauXfh1NJujCAPPLg14NVSgNAVCeLUGRsbmMXvwHRw59ipmDp6HV1uLvidJgFWaM3mfmAArb0XLqY8AqxzdizorM7CKUjZzvQRYmSUUVAEBlj3AI+JUoQYdBFiCOplhKARYX8HtK58yVG/wxQ4c/yGefP6PMTp+q+vJ477puR48r6azAnRKhG2/PgBLXW6zMYYbl38T1y5+HisPD8JvDtumAq+HCpSqgNrgXUGsQ0fexKFjP8befR/qTKwwbDIDq1Rn8js5AVZ+WpZZEwFWmernf24CrPw1zalGAqychBRRDQEWAZaIhmgQBDOwDESTWIQZWBJdMY8pAcDy/WHM3foYbl37DO7deh6N9Unz87EkFaACjyrghHDdJkbH5zB74D2cePwVTO69BK+2RIBlSXshwLLDSAIsO3yMr4IAS6yfBFhirTEIjACLAMug2YgoQoAlwobsQRBgZddQUg0JAFYY1LC8dAx3bnwCVy/8FtaWZyVdAWOhApYoEC0nHJ+8g6OnfoiDR17D5NSHaPob3APLAocJsCwwUe1DF8+B9PLeJoIwaGVnW/h8Ageu66EWZ6HbYeG2qyDAEmsqAZZYawwCI8Cy8AbBJYQGPUFeES4h5BJCea0yQURJAFbootmYwP27L+DC+X+J5QfHEPi1BJXzECpABdIqUB9axtTsJRx/7J9w4OirgPMAYdjgJu5phRR2PAGWMEMMwyHAMhROaDECLKHGxJslK4M8twa1n4fey8O2X2t/EvWllmbgIwh9/RUTG7/YoqyL92VxHfXFFvVVKLv2ZtEDShDoNxtq02/179HPrrbLPbDs8ZMAiwCrkrfVBABLXVcYenhw/xwuvPPfYmHuLBrrE5W8XAZNBaQroL5OWB9exrHHvo9jp76DkYmLcJxlAizpxvWJjwCr4gbGTyHMwLLDyDY/9bOm78P56jtfrsbTtHp2CqGBh+83rfxsKwGWPQ/I+iGi9fU2Aiw7xk8CLHv6JwEWAVYlR6WEAEtd28rD47h+6Tdw58aLWFo8XsnLZdBUoAoKuF4TU/su4vCxH+Pg8W+jPnybAKsKxu0QIwFWxQ0kwLLDwI6rYAaWWFu5hFCsNQaBEWDZAzxiIMmvEBp0BIFFCLAIsAQ2y/4hpQBYG+tTmL/3HK5f/DXM3X4ege9ZlxXbXzAeQQWKV0BlYQ2NLGH20HmcOveXGJ+4CLgNK1cVqAdI1/FQc2twXbWqwLEyoYAAq/h+M4gzcAnhIFQe3DkIsAandcozEWClFEz04QRYBFiiG+gOwXET96o698jrKv1wEbQyl1Xq9erKQbz3JgFWJR1OAbCCoI61lYO4euFLuH75l9HcGIPa4J0/KkAF8ldAQayp2Ys48/RXsWf6bdSGHhBg5S/zwGokwBqY1IWeiACrUHkHXjkB1sAlT3pCAqykSlXhOAIsAqwqtNNuMRJgVdU5Aiwv/gKPZXsNamdTACzARWNjAreufg7XL38WSwvH4TdHLGnYvAwqIE+B8b03ceLMP2D24I8xOnmFAEueRYkjIsBKLJXoAwmwRNuTOjgCrNSSDaoAAdaglB7EeQiwCLAG0c6KOAcBVhGqllBnvIEpM7BKEL+AU6YCWEDgD2Ph/jncufESbl97Cesr0whDt4DAWCUVoAIjY/M4cOQnOHTiFUzNvkmAVeEmQYBVYfPaQifAssPH+CoIsMT6SYAl1hqDwAiwCLAMmo2IIgRYImzIHgQBVnYNJdWQEmApWNXY2Iv7d57DlQ/+CzxcOIFmY0zSFTEWKmCNArWhFeyduYgTZ/4O+49+lwCrws4SYFXYPAIsvTedjT8CLLGuEmCJtcYgMAIsuwZQfoXQHj+5iTv3wDIY0ssvkhJgqTWHQeBh5eFJ3Lj8q7irvkj44Gj518EIqICFCrheA2Pjd3Hqya/hyKm/txtgeTW4Djdxr2oz1nMgtSrdcVFTXrpuBD2ix1BrfszAssZKfSHVA1jxc1MINNuWQuiL0V3Qht/WqKEM8twaPNfTZln3lY8WGQ6DAE2/CT/09UbDkZP2+Bk7qnzUNwjHVb0PsGxvFj2gBAHUBtHKzzAM2t9/2NA5oe7qyk81YXPdOmqe6putS7Pohr91sw/h+z78oKmvPfrZ0jcjN9XVuG5Ne6n7po2/XZGBFfdNV98zd80eWEFT98wkcyD1RcKFuWdx/eKvYu72cwj8OpcS2tjfeU2lKqA2ch8eXcDpp/8Sx05/w8o57eZXCDX0UKOPXV8h1HMg9X9hCD8I4PtNPbfdmgHZMQ/qCbDUhVo5p42eT9SzSnSBdvgY2dVKfoFiB9HzJjOwSr0VPHpyZZGvAJaauAV6iEk0eRN2GTuEE2dgtSbiLYBVnfjTRapuEE31kBw2W1DHngElUiLy01UDiv7ksKUPyepK1ZfONMBSMNK3DnjEfqq3VdpPBbAsugF29lzlpR5r/djLdH1b/tHRvcNxXfv7JtRXCGO4HLa+QvgHuH3lU/JtakV44PgP8eTzf4zR8Vs9Yg71m+QIYO2Cvun7CFovfpJMxIOghvXVA7hx+ddw68rLWFk+gMAfqoz/DJQKVEWBoeEHOPPMV3Hi8b+x6iF5c06rXuI50RzI2hc/LSgQvcRTc9r4paxNzyit1x+OE82B9H3T3p+v5rSbAMu+64x5iJr/KD9tBVgxsFN90/l/z/9OpVhrnOkRIoBTqciTdZj4jaqCHVvAw65hRV1N/IZD7bWj4AcQWEX9Y3wVZdC5m6nW+m1VsqZQmaO2+RkE+mZv1/uNdh4XpVmriZv21q6XVa0LjVpoEPgINl8UVKY5Jg/UUY/+0Tir+qiNXuprUnC5BbFU31xfOYh33/wfcfNydQDW4RM/xLkX/m+MjnUHWHq80dmRaqxVXkb3TJvG2ngWoOdAylH1UJX4Al39BcIHC4/j9vWXcOPyp7C+utfCB+zk3Z9HUoEiFBgafoizz/0HHD/zN9YBgWicbb9vtjKwihCy1DrjOVC0smBrhUipQeV/cn1TieZANsNI/cSpX7KHCBWQtPDOp1ts69nE5ucT1WQjbhDA+X9+/i8ST4Hy7z0pa2wNnJbuTbZNDNXZ1GOHfrtaHYeSGaoHzU1U10aKbbtQPaJEuG4X+KlggM3UP27cirfqlF3LloJudl49zkZt13Y/o36pKU+ysauiR8WAThm7unwA777xr3H90kuVuZojJ1/FUx/5E4yO394xZqvH2fjKdf9M3zejDd0ncf/us7jyweexMPcYNtYnK9MGGCgVqIICCmA98fxf4tTZv61CuEYxRuOsume2UIBtt8/W2wKTcdZI0NIKtV70xM8ntvkYP4K12qkLtY1LaWIP5MS74flEjTs6geBP3/hiRZpsqOmiXiKg0h1tpVitTVrV8gCVIhdlJ9nX4/Tmga5a8rG1EeRAevcgT6LW0uu9odRa+mhpnZ1+RoOJeouj/Iz3bbMOvLayWdSebdrPoCJDp0GbV+Or2ktILZe0b/TZEiRakh7obDPb9kXY5B0OonG29ZZ1ZXk/zr/++5UDWM+8+GcYG7/TvTXH+/CpPUuChtU8MhpnPaO+GYYOlh8ewc2rn8TNqx/H4vxxqOWFCG3u5QYDIItQAUMFhoaXcO6Fv8Lpc//ZvhcjegvX1pJ0PQdq3+/UUDCBxeKPvER7EbdWw1g63YueT9TeULY+n0QNTM1lI37QgliW+Rltbt6+XYR9e31tzWnV84mrANYXKmHj1tI6D/V4g7Juc64kvKf9mM7jYzXa15P0mtv1qqdd0V4xxmS47djtmwc22wCWwBE+Q0ixbE68N1QLfkRwp/VLskF2+zE7zb/bPe0Vdzff249NW7/mrdHmlnojSLUca9tm9RkEFFZUSac3N9f7ItTgxBt76iylLsG2a7lTX+n1d/383GlE63XuBF6rt3F6L6HWhyS2Nk4UZkjmcKLsDuVl/CEJVWWUddbRP+NzJRl32+PqHDvb+32/MTjLuaIL2eyb8YcHVP+Mh+TM8gmqQA2p+qMg3tZm9cvL+/H267+PGxc/KSjSnUM5fOpVPPvRP8PYRHeAFfdNNdY2NcCKPwpSmUtMFKgea1ubtHr6oyBdivUZN5vNUTxcPIGrH/4Kbl1/QS8lVJu680cFqEB2BVQG1pMv/LUGWPEcoWuted3n+s2HWve8bTGkGTfaCupxNt7vtNno2Nw8u3ZSatBTjPhjWnqvr3ip5A6Ty17zkiTPm+2Tj85T9JuzdnrZbfzvElu8+b7eizhotl6y23ffjOdA+sWPmtO2tv/o2TfTPgt2639J+mS/ftmrqfVoD+3Pm01fzYHs3MpF+Rm9YPcqBrA06PBQjzco6weHuo2G/RpFv5tK+wNbPOjs1OD7xfjIYKOghwIedgMsJd3m5ua9ANZOIKKb9r3ufkkGk7SDVufDeJcb0O4DWNENQu8ppPf66gOwdrpRdw7u3QbtfpOwbu2h32RgB4rRCbDsW9sbC6ZgZAQ9YoC1ebPfCWDtoN02K/oBxp3G4F4P52n6fheApd8+WpjrGk/E1aae+obvuFAZWG+//nu4cbFaSwg3M7C6vkyIsl1tB1jxfTOeiJsArGgp4QTm7j6FW1c/jts3n8PG6h5+lVDK0zPjqK4CToCR0UWce+7reOyJvzcHWGnuc2nmt+3KJgEfjzgRvZTVL352GcCKtwPp2TiTzI06j+n3jLM1JYv+rdvx/XzsEdeuAVitL/UODGD1e67p9uzYrV/2myd3tIddA7D0rm2bAKtaSwi3Aazq3ua6R94aiKKsnXaAZVd6f/wwvCPAssDb3gDLPj91Bla8JDT+2mLSm3NFvNYpum0ZWL3TkSpyQTuE2Q6wNh+SLfIz7ptxBla0hDApgauOv/FSiC2A5WiAdf6n9i4h3MrAsmucjZ9g9FKI1ptk05YYhh421icwd+cZXL7wq1icO6X/t4Jb/FEBKmCmgOs1MTZ+F2ef+U84+fi3WltGmNUlspReVRBti7EdYNk11m5fQhhlYOnd6y3aKzOeA8UZWLYuIYy/ztcOsGz8Ys/2JYRRFrqN22IoPwmwJN4dCLAkumIcEwGWsXQiCxJgibTFKCgCLAIso4ZTeqEw2ssjI8DSL29DD2sr+3Qm1rVLn8b9O2fRbA4jDLzSr5IBUIEqKlCrr2LvzGWcOff3OHLyBwRYVTSxtV3C5hJCtd8gAVZFnYy2vlDZZgRYlbVwW+AEWFJ9JMCS6oxRXARYRrKJLUSAJdaa1IERYBFgpW40IgrkB7DU5QRBHasr+3Dv9nO4ff2jmLtzFg1mYolwmkFUT4HhsXkcPPIGjj/2z9h/6C0CrOpZqCNmBlZFjesSNgGWfdmRzMCS2D8JsCS6YhwTAZaxdCILEmCJtMUoKAIsAiyjhlN6oXwBVgSxalhfm9IQS2ViLc6d5HLC0n1mAFVUYGzPTZx6/Ns4dPSn2DN1jQCriiYSYFXUte5hE2ARYAlo0Hrn3e2buAuIKtcQCLBylbPsygiwynYg3/MTYOWrZ5m1EWARYJXZ/szPnT/AUpsTB4FaTjiL+/eexNWLn8b83ce5nNDcJJbcjQo4AfbOXMITz/41Zve/h+HRhwRYFW0HzMCqqHFdwibAIsAS0JoJsASYkEsI3MTdwgGFm7jn0jekVMJN3KU4kS0ObuKeTT95pYsAWNFVbl9O+BHM3TmHxvo4N3aX1wgYkTAFHCdAbWgZswfP4+wzX8eeqSuo1XwCLGE+JQ2HACupUvKPI8Cy8HmTXyEU2PGYgSXQFPOQmIFlrp3EkszAkuiKWUzMwGIGllnLKbtUcQArglhqOeFe3Lv9PK5ffhmL88exsTah4RZCuybCZTvJ89ujgOs2MTl9CQePvYaTj30HYxP3Ed9j7LlK6FUw/AqhHY7yK4R2+BhfBb9CKNpPZmCJtidFcMzAsutBQH8VghlYKXqA/EOZgSXfoyQRMgMriUpVOqZYgBUvJ1xfncbC/dO4efUTuH/vLNZWphD4dWZjVampMNbBKOCEqNeXcfjk93D01HcwNX0NQ0PrBFiDUb+QszADqxBZS6mUGVgWPm8yA6uUvrTzSZmBJdAU85CYgWWuncSSzMCS6IpZTMzAYgaWWcspu1TRACu6PpWJtbG+B4v3T+P+3Scxd+8sHswf018o5I8KUIEtBWr1FUxOXcLRx17BwWM/xMjwOmqeSlZS2UqhXVIxA8saP5mBZY2V+kKYgSXaT2ZgibYnRXDMwLKQiDMDK0UPkH8oM7Dke5QkQmZgJVGpSscMBmApRcJQbe4+hKXFY7h3+1ncvf00Hi4cw/rapF5SGAZulYRjrFQgZwVCuF4ToxN3cOjYD3DgyI+wd+YD1L0aXNclwMpZ7UFWxwysQapd7LmYgWXh8yYzsIrtNEa1MwPLSDaphZiBJdUZs7iYgWWmm8RSzMBiBpbEdtk/psEBrBhi+f4wNtb2YunhUdy79Szu3nwGKyv70NwYRRh6GnTxRwV2lQJOCMfxMTw6j5nZd3H09D9iz9QFDA0voebWCbAq3hgIsCpuYFv4BFh23Z/1ljUEWAI7KAGWQFPMQyLAMtdOYkkCLImumMVEgEWAZdZyyi41WIAVX60CVY2NcSw/PIKF+2ewMHdab/C+vHQAfmOYe2OV3Sx4/oEq4HgNDI8sYvbgz3HgyKvYu+8dDA0vwnVDAqyBOlHMyQiwitG1jFoJsAiwymh3HefkEkIBJuQSApcQWjigcAlhLn1DSiVcQijFiWxxcAlhNv3klS4HYMU6BIGHxvpeLMyfxvzdJ3B/7gxWlg5gY20cKlMr8D21G4c82RgRFchFgWjZ4NDIIqb3vYdDx7+HfQd/Btdb0fBKvRhhBlYuQpdaCQFWqfLnenICLLvux8zAyrV75FgZM7ByFLP8qpiBVb4HeUbADKw81Sy3LmZgMQOr3BZoevZyAZaCU2Hgodkcxvr6FJYeHNGbvC/cP4WVhwewsTEOvzmkjwkVyOLyQlOjWU6YAo4TwPUaGBpZwNS+X+DIye9gz/QHqA8twnGaGl4RYAkzzTAcAixD4QQWI8AiwBLQLJmBJcCEXEJgBpaFAwozsHLpG1IqYQaWFCeyxcEMrGz6yStdNsDaUkR9qbC5MY6VlQNYXd6HleWDWJw/oTd6X1mO9shSx/BHBWxQoFZfxcTeK5iefQ/T+89j78x7LXjlq08eEGDZYHLrGgiw7DGTAMvC503ugSWwgzIDS6Ap5iExA8tcO4klmYEl0RWzmJiBxQwss5ZTdik5AKtdCQWqNtb3YnH+MSzeP6Uzs1ZXp7GxNqn3zmpomFVH4BNold2CeP7kCjiuD6+2huHhBxjfcxNT+85reDW59yJcbw0qKyv6EWAlV1X+kQRY8j1KGiEBFgFW0rZS4HHMwCpQ3IFWzQwsCwcUZmANtA8VfTJmYBWt8GDqZwbWYHQe3FlkAqzNpYX+MPzmMJqNMayuzGDpwXE8mD+Ohw+OYH11LxqN0Wh5YejqP2pPLbXMUC03VP+bSw4H15J4pg4F9JcFA/3HdZtQ8KpWX8HYxB1Mz76DqdnzGJu4gaGhRbjeOhwn1OCKAEv1fvvmtOoll+fW4Lke1HwI6k8Y+1393hO/xAvDEM2giSDwof7dtj0MCbDs65v8CqHE8YcZWBJdMY6JGVjG0oksyAwskbYYBcUMLGZgGTWc0gtJBVjbhVEwqtkc0VlZ66tT2FifxPr6HmyoP2uT0f9e24u11Sk0GyNoNofQWJ/gksPS29fuDCDa36qpgdXwyAJGx+9s/hkZu4vR8VsYGb2r/95x1JLBzh8zsGxqOczAssdNAiwCLAGtmRlYAkzIJQRmYFk4oDADI692+wAAIABJREFUK5e+IaUSZmBJcSJbHMzAyqafvNLVAFiP6ubojd8b6wpe7dUbwCt4tbYyEwGsxgjW1yc7AFaoMwKCzSwXeW5kjUjNBHR2B1zbEjwekSZAoDNYJOawqBxAz2uiXl/G8Oh9jE3cxNj4TYyM30at/lBnZO38I8DK2hcklSfAkuRGtlgIsCx83uQeWNk6RSGlmYFViKxlVcoMrLKUL+a8zMAqRtcyamUGFjOwymh32c9ZVYCl2IVaNughDNQ/a3r5YBjUouWD+r+pLxdu/YIggB8GemmLbcta4qVnaumV63rwXBeu40Im3smh1YaAH/jRMiXtsqyHqigaBaF8vXTQdRtwvQ39z2ifq37YjQAreyuRUwMBlhwvskZCgCVrrM3DTy4hzKpiEeUJsIpQtbQ6CbBKk76QExNgFSJrKZUSYBFgldLwMp+0ugAr7aX7CmAp6BH6/flB2spLPz4CIo7j6n12XFf9U0G8fqCk9MCNAgjCcBNgBWFg3Z5J3MTdvodk7oFl1NXFFSLAsq9vEmCJ62ZbL6XUJMYPmvB9ezfVU/KrN481NXlrLT+zbfJGgCWxk5nHRIBlrp20kgRYBFjS2mSyeAiwkukk/SgCLOkOpYuPGVjp9JJ9NDOwZPuTJjoCLAKsNO2loGO5B1ZBwg68Wu6BZeGAwj2wBt6Pijwh98AqUt3B1c09sAan9WDORIA1GJ2LPgsBVtEKD7Z+AqzB6l3s2QiwitV3kLUTYFn4vMk9sAbZhRKei0sIEwpVjcOYgVUNn5JGyQyspErJP44ZWMzAkt9Ku0VIgFVN3zqjJsCyw8f4KgiwbPKTAMseNwmwCLAEtGZmYAkwIZcQmIFl4YDCDKxc+oaUSpiBJcWJbHEwAyubfvJKE2DJ88QkIgIsE9XkliHAkutN+sgIsNJrJrUEAZaFz5vMwBLY3ZiBJdAU85CYgWWuncSSzMCS6IpZTMzAYgaWWcspuxQBVtkO5HN+Aqx8dJRSCwGWFCfyiIMAKw8VZdRBgEWAJaAlMgNLgAm5hMAMLAsHFGZg5dI3pFTCDCwpTmSLgxlY2fSTV5oAS54nJhERYJmoJrcMAZZcb9JHRoCVXjOpJQiwLHzeZAaWwO7GDCyBppiHxAwsc+0klmQGlkRXzGJiBhYzsMxaTtmlCLDKdiCf8xNg5aOjlFoIsKQ4kUccBFh5qCijDgIsAiwBLZEZWAJMyCUEZmBZOKAwAyuXviGlEmZgSXEiWxzMwMqmn7zSBFjyPDGJiADLRDW5ZQiw5HqTPjICrPSaSS1BgGXh8yYzsAR2N2ZgCTTFPCRmYJlrJ7EkM7AkumIWEzOwmIFl1nLKLkWAVbYD+ZyfACsfHaXUQoAlxYk84iDAykNFGXUQYBFgCWiJzMASYEIuITADy8IBhRlYufQNKZUwA0uKE9niYAZWNv3klSbAkueJSUQEWCaqyS1DgCXXm/SREWCl10xqCQIsC583mYElsLsxA0ugKeYhMQPLXDuJJZmBJdEVs5iYgcUMLLOWU3YpAqyyHcjn/ARY+egopRYCLClO5BEHAVYeKsqogwCLAEtAS2QGlgATcgmBGVgWDijMwMqlb0iphBlYUpzIFgczsLLpJ680AZY8T0wiIsAyUU1uGQIsud6kj4wAK71mUksQYFn4vMkMLIHdjRlYAk0xD4kZWObaSSzJDCyJrpjFtFszsPzmBBbuncH7538bd288ZyZeCaX2H3kLZ5/+G0zv+wC1+vKjETgOgiDQf5pBA2EYwoFdE7foogmwSmh+BZySAKsAUUuskgCrRPFzPzUBVu6SllYhAZZd8yDlp0uAVVp/6n1iAiyBppiHRIBlrp3EkgRYEl0xi2k3ASzAg4sR+M1pLD88jrlbT+PG1V/Cw4WjZuKVUGpy6gYOH38NswffxsSe6xgafgDX3YDjRCAABFgluFLsKf0ggB/4CEJfcTvLfgRYdhlKgGWTnwRY9rhJgEWAJaA1cwmhABNyCYFLCC0cULiEMJe+IaUSLiGU4kS2ONRYGwYjaKwdxu3rn8bdW89hdXkG66t70WyMZKt8gKVr9XUMjy5idHwO+w++jcMnfoCx8bvwvHUCrAH6MMhTEWANUu1izxWEYQQjNZAMLMyOJMAqtgUNtnYCrMHqXeTZCLAsfN5kBlaRXcawbmZgGQonsxgzsGT6YhoVM7BMlZNXbjdkYIWhWlZXx8qSyrr6JG7fUFlXx+E360BYwUmNE8L1GtgzdQ2Hj/0UB4/+RGdj6UwsF1xCKK+bZYqIACuTfKIKE2CJssM8GMdBGAZQfjabDQ0j1c+25doEWOZNRFpJAqwKzvV2aERcQiith8XxEGBJdcYoLgIsI9nEFiLAEmtN6sB2A8DS8Gr5CO7d+iXcuPhrWFk6AN+P4JXjAPVaiJFhYGxY/bsCQMDqBrC6DmxsKPg1mJVb6rbnusDQUIjRYWB0KPrfTR9YXgPW1oFGUz04qSelEJ7XwNjEXZw4/U84ePSnGJ+8CddrEmCl7gWyCxBgyfYnTXQEWGnUEnwsAZZgc9KFFs+B1H6RzUDdP329d6TCkTb9CLDs85N7YEnsoQRYEl0xjokAy1g6kQUJsETaYhTUbgBYjfUpXL/8edy4+hmsPjiyuWTQVfCqHmLfXuD00QDnTgKzewOsrju4cMPBhasOrt91sLLqwI9esBf681xgbCTEkf0hHj8e4sxRBbJCzC26eO8K8OF1F/cWgEbDQdDaC8mrr2Nizy0cPfkDnDj9bb28kJu4F2rTwCsnwBq45IWdkACrMGkHWzEB1mD1LvBsBFgFiltC1fr5JAyjD9n40YdsoleQBFgl2NF5Su6BJcCEXELgHlgWDijcAyuXviGlEu6BJcUJszjC0MXcnY/h+sXP4871F/VSQoQuPC/EnnHgieMhHjsa4tC+EMf2h5gcD7HRAG7NObh5TwEsF29/6ODOfFv2k1koPUvFWWAHpoGnHwtx9ECAI7NRTEN14OGKg2t3HNyec3DxhoP3rjh4sAz4vqMzsdRywkNH38DJx7+F/YffQBhGWVj8CmHORpVUHQFWScIXcFoCrAJELaNKAqwyVC/knARYhchaWqUEWKVJn+TEBFhJVKrCMQRYBFhVaKedMTIDq4qudY/Z9gysMKjhF2/9AebuPIsH909Fu5Q4wN6JEGePh/jMC4HOvlJL9VQGlPo79a5OLRtUf+YfOvj+my7euuDg1pyLZjPf5YRqBKzVgIMzAZ49E+JTzweY2RPqeNQf9ffqBaLKAFPxXLzh4p/fcPH+FQeLS1vLCffOXMH+g+fx1Ef+HHDWCbDs6aIgwLLHTAIsS7wkwLLESHXPV/fRUP/hEsLq20qAJdpDAizR9qQIjgCLACtFcxFzKAGWGCsyB2I7wAr8Ol799v+F1ZVZbKzt3dzz6smTwOc/4ePkoUDvN9Xrp/afWnjo4Edvu/jnn7kaGuW5nFBBKgXTFEh76dkAU5Mhal7veNS+XFduufjWjz2cv7SVFTY88gBjE3P41G/873DdFQKszD1DTgUEWHK8yBoJAVZWBYWUJ8ASYkT2MAiwsmsoqQYCLEluPBILAZZoe1IER4BFgJWiuYg5lABLjBWZA7EdYPn+EL7zjT+C3xxG4A/pbKcD0yFePBfgsx8NNDxK8nvzAxev/NTVS/jUnlh5/cZGQ5w6HOJzLwZ44WyyjbbU8sF/et3DT951cXfeQaMJuN4GarUN/PqX/xd43hIBVl4GCaiHAEuACTmFQICVk5BlV0OAVbYDuZ2fACs3KUVURIAlwoZeQRBgibYnRXAEWPk9CKaQvbBD9WdNuQdWYfqWUTH3wCpD9fzO6fvD+ObX/hxqLyy199XoCPD82QAffzLQG6WrTdKT/NRm7j9738UP3nJx935+49b+6RAvPRfgo2cDHD2QLBb1NcIPrrn48bsu3nzfxcpa9FVCxwnwxf/m38KrEWAl8bQqxxBgVcWp/nESYPXXqBJHEGBVwqYkQRJgJVGpOscQYIn2igBLtD0pgiPAyu9BMIXshR1KgGWXn6qhEGAV1l0GUrECWP/4V3+x+QUalXH1xZcDfOIZtXQw2mtK7S3lB+qrNVvfqlF7YXmuA9eL9qFab0RL9772iocL1/Jr56ePhvjy53ycPBxgWO0vD7U5u4pJ7cmxFU+0R5ezGa/6UuJr77j4u++7eolj/PvSv/o3BFgDaVmDOwkB1uC0LvpMBFhFKzyg+gmwBiR08achwCpe40GegQBrkGqnPhcBVmrJhBYgwMrvQVCCxQRYdvlJgCWhV2WLIQJYX92sZHoyxJd/1ccnn9larndn3scvrmxgbrGJ9Q21B5WDvRMuThyq6z9D9ahdq68S/vt/8PDeZTdbUG2lnzgR4L//LV9/dVD9NhohLt5o4PLNDSytBhpmjQw52D9Tw+NHhzA7vbVB1o/Pu/jrb3u4/4AAKzdDBFZEgCXQFMOQCLAMhZNWjABLmiPG8RBgGUsnsiABlkhb4qAIsETbkyI4Aiy7gAcBll1+EmClGMyEHvpoBhbwhZd9fOLpACNDITYaAd7+cB3fem0Zl29tYHUtRL3m4MB0DR97ehSfem4U+/Z68AMHl1sZWB9ez6+dqwys3/kVH6cOB/DcEHOLPr77sxX8+O1V3H/Y1F89HB91cfroED774jiePjWEobqLtY0oA+s//6A9AyvEl/7V/8QMLKFt0TQsAixT5eSVI8CS54lRRARYRrJJLESAJdEV85gIsMy1G0BJAqwBiDyQUxBg5fcgOBDD+pyEAMsuPwmwJPSqbDEogPWtr/85wsDV+2CpLw4++3iAjz8V4OQhH3fuN/Dq+VX8+O0VzD/09TJCtXywXnfw5MkRfOr5MTx7ZhhLqx5ef9/Fj9QeWPP5tfPZ6VBng330iQB7xn0N0773sxWcv7SGZjNaRqiWDk7t8fBLT43i40+P4tC+Oq7c8vDauy5+/kG0B5aj9sByfXzhX/4hAVa2JiOuNAGWOEuMAyLAMpZOVkECLFl+ZIiGACuDeAKLEmAJNGUrJAIs0fakCI4AK78HwRSyF3YoAZZdfhJgFdZVBlax+grhP33jj9Bs+wrh7FT0FcJPPtPE9Tvr+NFbK3jj/TUsr23/CuDxg3X80tOj+PQLY7h9fwjf/omLSzcdrK7l185HR0KcOhTicx8LcOxAA6+dX8UP3lzBhesb2zQaHXbx5KlhfPLZUZw+NorX3qnhp+orhAuOztLSXyGsr+PXf+d/5VcIB9a6BnMiAqzB6DyIsxBgDULlAZyDAGsAIg/mFARYg9F5UGchwBqU0kbnIcAykk1gIQKs/B4EJdhLgGWXnwRYEnpVthgCv44fv/J/YmV5FhtrUzq7quaFePIk8PJzDSytrOGtCyt48xePAqwj++t4/uwInj09gat3h/C9n7lYXHIQJPtYYKLAXQfYMxHi08+HOHN0HR9cXcVP3l3Bhx0AS+2DdfbEMJ57fBT7p8fx6tt1vHMJaPqOztIaHlnE+MQ9vPwb/wdcdwVBEKAZNBCGIRy9Db1tP7UBvwfPq8Fz8tuTTKJKBFgSXTGLiQDLTDdxpQiwxFliGhABlqlyMssRYMn0pRWVmj2rrxF5+P/Ze9fnW47rOqzPnHMBXIAAAZAECPEhiiXacslSlIqcKFJiVyqVKiqxZNOV8kcn+csSUeWH6HyLP+RLKqUktllRkiqSkkg9bFJ8iCBBAiRA4AL3nkdqd0+fM+f8zqNnTz/W7N86KhDQvdO996zVzzVreh4sV07IMvfr72m327rNdu02m41fiIfvQdn53RGw5CtTC3nVJeMOCQCuOEEMF+IWN1bnBayF8ztMQz8/QfgN8sZtNmsXvpUmPzv9U7iUjT+/QjjvhrvbLt1f/sl/5370g7/t3n7rs87tFl7EeuG5nfvExzbulZfed2++/Z772l8+cu++tzm05MXCfea1p9znPv2se//xc+71H6/cD9/qvNspZ2+WHrNaOfexl7butY+s3XPPvOf+/NsiYH2wnwfkmmcfLt0vf/YZ95EPP+d+9NNn3PfeWLq33w3ilVvs3Isv/5V75bU/dr/0q3/g3OIDJ2OtXQErMEABa959M2QfuFwsOrfsVq7r5N/21kCRqfsgYIX9ycKtugeez7j+s9Ba9/dwLwSssEMR/qRvLrulXw/5CdTQmvaygGV0TStjbHzwI4uLnAsagE5+LwWs3/vK5+dBozdgHQtYFkUsIcMLWJuNF7FE8JgHQSN6sEwCPZcrv3gLApbFn7DnBazNxm13G7eLh80Yu1mZ4LvF0q1EXJbFm7H72y/EBwKWF1yN3qj0R+FSFm8Wx1m/hdzt3Ha3devN2m22G1stdte5N9/4Nffdb/5X7o3v/brbbB44t5MF3M49fHrnXn5e5pb33Q/feuTeefd992S98ePww6efch958aF7/tmH7u33nnLvvCfiVS8YZUbIu8JWO/ehh1v34eeeuHfee8/9+CeP3KMPHrvtVg6VX7rnn3vavfLSs27RPePefHvlHn2wcJuNbCa2brl64j7+ia+4n//c/+Y+9urX3G4nPAqfT5zBWXMvlQ8FLMt9c//gR9ZBmdte8+r6G1r0goeIVyJ6WPxJX/QCVlzTipXT2rwZ9yeLhVstDwKWNT59s+3nzSfrJ37+9KKOQUPBXsBaioBlc03r95e7nVsPDRPW+mb/iPk+zZuyBgp909Tz9fDoZ7fz7vPlcukWX/zqb+OvDeJkL08fl8t+U2VzQIkEhcVbELD2K1cLs2GYAf2d+AFFnm54wcPgqNnzJZtj4XMnAlZ01Fm53Z5PeZIsAtZyKf+2uRAXOmVSkH/EgbV/GIfMZapJ7GQWEDEjPn20MOycuwf/sMALkusw2Rv7PXn8gvvrb/2X7q+/85+59376Cbd+8jBMJf51wq1bLcVF+IF799Ej9/jJ2jtAnnv2abdaPePPzlqvu6yvDV6CV14nXK02brV87Nab99277wUn1VMPVu65hw+dW0g+q/1rg1LP6sH77kMf/r775Gf+rfvUL/zv7qmn3/abZHFIbvpXCLNtqoZ9o2Vf7/MIbp3w4Mf2vClcypwp/xhaiA/aU9wkW36It583fd+UB3nb0G5b9qWcY31cA8lddUu36te0OUMg1SWC5G678w9+wrw5IwErZRzZr2nDGkj2Kd6BZfQXBKyN28qaNioec7ndJD77twp6B5aMuVbnTf+woF/TSh/d/+bC560+tpPRZhfeEJGH6//0j3/ntoB12kiGm6LUDdKtxK79vV+9yCAZbLl+Eb7/39vpTwndqmxQxv3U399tP+FfwnssJxreUsoc5dFvCoeCxkDA8i6s/cRg0NPpW2kARDZX/r/906orAk8Kxpd24zkGqWFfP9fvz8Xwi5hgsbY80cs9RmeHFyKHClYO7FMHm5RJW+oas/HeX9u3U5niZaI3u3A79M0w1spn+OLMIq8KXNkwjx1rU3i9VKd2PJAxZ7Nyj979uHvj+/+h++43/wv37s9edZv10/vXCReLsPmQBY+MT3L73VIeJnT+mp38k5L7xGskrm9mi61k47Yb+bfzY0lwpUgu8npVeG1wuXrsnvvQD9ynPvuH7pXX/j/38EOvu66LD3vCE+W9Ujc2t0trnWE9p309haOUa1Jy7d0Ox4vwGiylJJf3muA+j+Ns/wrP1XVi/5e1xuLBunT0nUfBvF/TWl/P+umod3vEtfwes9T57BLIKWviWwSl5nAx1rk1kMU1bQDSrxLGroFS59Th2iW1L6eMr6nrodivnew3w5s/Nn8nayCP+6EdH93zGO5OwUrpWynXxHYR6Ujh018T1rTykN0ul3HtGnYoh7452G9eWtvkbN5+He0Xc/m6zJ28Qxv1a6B/8af/4Pbq59qNpwwc+W4lvPYhbpa+UWasGqiq8DpW2ED2aUUOUibrFE5Srjk3EMV+krKYOBdj0JZknpAnOH7zuJ8WgWjIkopwKK6kRDFAw8vpwD4l72FfP9fvL41LwmW/GY4TxpQ0MMuGgVk21UdCXerkm+umUuOlTPAxp5N2F16v64WdKjJGLnDG1BOexPnXA/xKdVA2dcGm7a/XxtZrfXDM7e3kzLan3LvvvOZ+8Ne/5l7/7q+7t9/6zP51wjFVQVwrrw0un7jnX/or9+on/sh97OP/r3v2+e+5rnvsFosAmnDpHaDa9dOltc4QgJYCVniDx8+Ze/cDBDm5kwgPQ0ZtOnL1xdRbyRTPr2ejWGdyrB3Mm+ecV6nzWcqac3jNGH5Sc7hxnd88epdZ2DRb/PlZ08+Z/VswUQe5NebemlPPjau36rywfjmL+5j10H6cDWsgu/vN4EUS52B4KHLhd4u7a/vClL6Vcs3pPieFz1hv79y5F2taWQOdO8bl0tomtY+lDGapPKbUNezbJznGhyGLL339C/MYZfsD9OIByuEp6zxST+VqP9/2hweKFdmiYuwPD4xWx3g2VO8ASMVqDtdFPsXqKIcHhnOi7B3UGg833/QfH5AF+bX5bA7cnctR+PQb5G7lVvL+dVSXDR3suZ8zxFYezyyJBw7Plbgzeft5tncMyllf8sBgYJg0c6dyj5vNyv3sZy+773/nP3Y/ev1X3KN3P+bef/SS2/SvFM7hZpcPHrlnHr7lHj73hvvIK19zr3zi37hnnv2hF6/iulb6poy1/hy+fo4xtUTwGmv/IQk5t223MXWo8Gk79K8w9+fPzKGNjsqxX5DLax7+tTo5ZsC/WmfrF9dAvm/2ByjL5srqB3vCmYpP+ofseh0dtRUc5s3OhfNrjR5W37tY4lEu8YgBS/0zag0iRPo1UNxvGlvPxsPq43mn0QBjicuDthfOCQ9r2pO3tlAHlZF5hcPqw7nSsxGwYiOkgDWSbcDLKWDZEl7vq4AVXVjWFuN+MryXApatrwx5Edl/OdO59aZzjx49dD97++fcW2/8inv9u7/hfvaTTwPODudT+tCHv+M+/skvu5de+Zp77vnvuAdPveMWiye98yo8yqKANRs6kxK1LWCF7ZOcwUcBK6k5QF90vEmmgAVNVmJysgaigJUIFvBl91vAMrqm7T8KMhsBKz4dvytgWdJRg7Cx//qFUQdWeC+yP2zuyIFlictw2Jz8hg4sedph6VO8h01yeKVFDsT2X1oMLRl4WhufWjg8cOjA6uuwpUf6mxp+NergdLXDp3AZHFjytCp8Zcjkz3/2XMbajf/wwOMnz7h33vpF9++/8d+6H33/12Zzyx957avus3/zf3YvvPQXbvXgvTt5x74Zx1rvjjT2JDkOqf6genFH7h1Ydvrl0FVvWsCKU4ffJA8dWJa49BJdv6a17cCK+5O7DixbfB7Nm/FDEv0cM5vJJDHR8wKWHT49l36/GR1Y/VEKxtazdwSs+OVMg/sTcWgPXeiJTX1Wl83SgXVewJoV7gnJ3iMBqz/LzH/9ov86n7UvQ9xHAUu+nBlfIaSAldDlQS+hgAVKzNi0TgQs2WA9eu9V92df/R/cD779m2Nra3b9K5/6svulX/0f3cPnXj+bw/0VsJpRUijwYfdEAasQxFWrvT8CVjyb7vgVQjuCR5AjBw9+KGBV7Um5g1HAstc3/Sd4Bsco5G4zCPVRwEJg4cIyXP74XjiwKGDBtsKxicVXCP17yRSwxsIHeT0FLEhaxidFAWs8ZsglFs4/IDg4sJCT1eRGAUuDGm4ZCli43IzPjAKWHdGDApYdLqO4TAFr/JhWp0T/pYvjVwjrhK4XhQ6seliXj0QHlsEJgq8Qlu84FSLc11cI6cCq0LhKhqCAVRLd6nWH15T4CmF14HMH7N9Yli/W0YGVG9w29fEVwja45456n14hpICVu/Xkqo8CVi4k29fTn08iT5L5CmF7OqZmQAfWVATxytOBhceJKiM6sFSwwRaigAVLjSYxClga1ADLUMACJGVaShSwpuGHUpoCFgoTefLgK4R5cCxQCx1YBUBtViUdWHRgNWt8EwNTwJoIIEpxClgoTOTJgwJWHhxBaqGABULE1DQoYE1FEK48BSw4SlQJUcBSwQZbiAIWLDUUsGCpUSRGAYsClqLZQBShgAVBw/QkKGBNxxCpBgpYSGxMzoUC1mQIMSqggIXBQ8YsKGBlBLNhVRSwGoJfIDQFrAKg5qmSAlYeHDFqoYBFAQujJY7PggLWeMwgS1DAgqRFnRQFLDV0iAUpYCGyosiJApYCNOwiFLCw+UnNjgJWKlLzuI4CFixPFLBgqVEkRgGLApai2UAUoYAFQcP0JM4IWO+/96r7s6/99+71b/+mc7sZ9NHFzr36qS+7v/kr/5N7+NzrZzGRsbZbdG7ZLd1yufJf8nXyXXtrPwpYphilgGWETgpYRog83AYFLBuUUsCywWO8CwpYsHxSwIKlRpEYBawZbI5H8Bo3yV23cqvl0ske2f8M7pMpYI1oGMiXnhWwXnF/8Sf/xL3+7d9w2+0DbBFrsXNd98R9/FP/t/vFv/1F9/DZH1DA2m7dZrNxm93G4NhzGEyX3cotl0svTFr9UcAywiwFLCNEUsCytp6lgGWra1LAguWTAhYsNYrEKGBRwFI0G4giFLAgaJiexBkB64NHH3Xf/LN/7L7/7f/UPXn8IbfbLqfHKVTDotu4B0+961771JfdZ37pS+6Zh29QwKKAVai11a+WAlZ9zItEpIBVBNaWldKB1RL9fLEpYOXDEqEmClgILFxYhssfC0H+6WMnLg9bIoC/7f71ju1269bbjdvuNk4mi4Wzda8UsOzxKW4AOrBgB9DkxKRvytjaLZbeTWfW5XFGwHr8wUvue9/8vHv9O7/pfvb2a267eSoZt9oXdssn7rkXvu8+/sl/6z75C/+re+qZNylgUcCq3QyLxaOAVQzauhVTwKqLd4VoFLAqgFwhBAWsCiBXDEEBqyLY40LRgTUOL+yrKWBRwMJuoZezowNrrsyd5H1GwFo/ed796PW/417/zm+5H//wl93QZQOGAAAgAElEQVT68bOwN7t68Mh95JU/ca9+6l+7j378j9yDp96hgEUBC7a9jk2MAtZYxECvp4AFSow+LQpYeuyQSlLAQmJjei4UsKZjWKgGCliFgG1SLQUsClhNGl6GoBSwMoCIUMUZAWuzecb97KefdT/47m+5733r77nH77+AkOnZHB48/Y77xGf+0H38k//afejFf++Wy/cpYFHAgm2vYxOjgDUWMdDrKWCBEqNPiwKWHjukkhSwkNiYngsFrOkYFqqBAlYhYJtUSwGLAlaThpchKAWsDCAiVHFGwNrtlu7xBy+6H3zvt9y3/ux33PvvftTJn6H9FouNe+a5H7vP/I1/5V795P/lnnr6J07+7NyPXyFEY0+bDw9x1yKHWS6uaTv/ddClfwW/80dGmPpRwDJFp9wMBSwblFLAssFjvAsKWLB8UsCCpUaRGAUsCliKZgNRhAIWBA3TkzgnYLmF220fuB//4D9y3/rz33Vvv/UZt3783PRYmWtYPfWee+Glb7mf/9z/4l8fXCzWbrE4v/GlgJUZ/GbVUcBqBn2RwBSwisDaqNKjsyO7leu6hT9L0pwgSQGrUQvLH5YCVn5MW9ZIAasl+ldjU8CCpUaRGAUsCliKZgNRhAIWBA3TkzgjYIVKF+4deY3wO/+5e/27v+HeffvnpsfKXMOzz3/fffxTX3Yf/+T/6Z5/8d/dmDl3/iB++fCJOD38x0+suTwCbU4+frLZbNxmt3HWPnk+vCH/IRvLH1jYb5I3brsVPrfmPmQT+VxI36QDK/MIWb86Clh21rSeS/9Nrc6tliJGdv28Wb9dlYxIAaskuvXrpoBVH/PEiBSwEoGaxWUUsOxM9tLgosuDXyGcRfe7KXjc168QRgHryeMX3Ntvfc59+y//G/fjH/yy226edrtd+z4rLqtu+YF7+ZWvu09/7l+5D7/05+7BU2/f5JMC1vz7JQWs9v0vbyuiAysvnm1ro4Blp39SwLLD5X5/4hau6+TL2v1DvLbDRZHoFLCKwJqjUgpYOVBEqYMClsEJwp/hsXKr5dKJycP/jB3nIbdEBxbKKDIxjysOrN1u5d5/9FH3/W//XffD7/0n7mc/+bTbbJ6aGHB68eXysXvuxW+7V3/uj9xrn/5D98yzb/jXB6/9+ArhdNwxauArhBg85MqCAlYuJBHqoYBlZ01LAcsOlxSwEEbHazlIW9s5txar9WZt8p3rg9164bx9vpNNsq1O5inuX++QVyGEz+1u4/lceEOrnR8FLHt8isuDAtb8++jRQtzya0pXBCxhcbN+6N7+yS+6H37vN9wPvvd33AePXnbbzYNmBHfLJ+7ph2+5Vz7xR+7Vn/uye+Glv3TL1Xs386GAdROimVxAAWsmRCWmSQErEahZXEYBy86algKWHS4pYKEPnxSw0BlKz48CVjpWM7jSWzq3W7fdbd1mu/b/HX4GJwgKWDNokbdTpIAV+qZ8fXCzfta99cavuL/+q7/rfvLm59wHj14MXyWs+TrhYue/MPj0Mz91L37kL9xrP/9/uJc/9lUvXl368uCQZQpYt9v8PK6ggDUPnlKzpICVitQcrqOAZWdNSwHLDpcUsNBHTwpY6Ayl50cBKx2rGVxJAWsGJI1Mka8QjgQM9fIbDiwRmXe7zj354EX307f+hvvrb/099+aPfsk9+eAFt9suq93Votu4B0+/41766DfcJ37+D90LL/+5e+rpt9xiIWL47Xd0KWBVo6pwIApYhQGuXD0FrMqAFw1HAcuO6EEByw6XFLCKDnsZKqeAlQFEkCooYIEQkScNClh5cESqhQIWEhsTcrkpYIW6xXElItabb/yKe+P7v+7efONvucfvf7jK64QLeW3wmbfdSx/9unvltf/HvfzKV92Dp3+S5LyKyFDAmtBGoIpSwIKiY3IyFLAmQwhUAQUsO6IHBSw7XFLAAhokz6ZCAQudofT8KGClYzWDKylgzYCkkSlSwBoJGOrliQJWcGIt3ebJs+7NN37Vvf6d33I/fesX3ONHL7rN5pkyXydc7Nxq+YF76uFb7oUXv+U+/ql/415+5Stu9eDdXry67byigIXa8LR5UcDSIodZjgIWJi+6rChg2RE9KGDZ4ZIClm48q1eKAlY9rEtHooBVGuGq9VPAqgp3lWAUsKrAXD5IsoAlqRxeJ3znp7/gfvzDX3Vv/vBvuZ/99NNuu3mqF7FyLPrkvKud65aP3Yc+/B338se+7j7y6lfdhz78zVGvDQ7BowOrfFOqE4ECVh2ca0WhgFUL6RpxKGDlmP9qMHU7BgUsO1xSwLrd3tteQQGrLf45o1PAyolm87ooYDWnIHsCFLCyQ9qmwlECVkhRnFjrJ8+5d9/5lHv7rc+6t9/6nHvnJz/vHr33Ubd+/Kw/M0v7kzOtVk+95x4++yP3oRf/yn34pb90L7z479xzL3zXrR78bNRrgxSwNinHg2mpalSOAlYj4AuFpYBVCNgm1VLAsiN6UMCywyUFrCbD4YigFLBGgAV+KQUscILGpUcBaxxec7iaAtYcWErIUSFgBRVr4bZyLtbjD7v33vmEe/ON/8C9/dYvuEfvfsyt1w/dZv2U226edtvNym1F0Donai22rpN/lmvXLT9wy9Vjt1o9cg+f+5F7/qVvuo987Cvu2ee/6x489VPXLTbOLdJfGTy9czqwEtrCLC6hgDULmpKTpICVDNUMLqSAZUf0oIBlh0sKWOiDJwUsdIbS86OAlY7VDK6kgDUDkkamSAFrJGCol2sFrP5+druV26yfdk8ev+A+eP9l9+i9j7n33vmke/ftT7p333nNvf/oZbd+8tALWfIK4uEnrwiu3erBI/fMw7fcc89/3z33/Hfcsy98zz189ofu6Wfe8sLVcvWBWyzWk9GjgDUZQpAKKGCBEJEpDQpYmYCEqIYClh3RgwKWHS4pYEEMj1eSoICFzlB6fhSw0rGawZUUsGZA0sgUKWCNBAz18okC1vC25Bys9ZNn3QcfvOw+ePSy++D9F/2rhpv1A//aobi29r+FnHO1cd3yiXvw1Lvu6Wd+4p5++JZ7+uk3/SHtcv5Vzh8FrJxotqyLAlZL9PPHpoCVH9N2NVLAsiN6UMCywyUFrHZjYlpkClhpOM3hKgpYc2ApOUcKWMlQzeZCClizoep6ohkFLGREKGAhszMmNwpYY9DCv5YCFj5H6RlSwLIjelDAssMlBaz0MazNlRSw2uBeIioFrBKoNquTAlYz6IsFpoBVDNq6FVPAqot36WgL57bbrdtsNm6z4yHupeEuXf9ut3Ob7cZtt8Ln1i2OXsMtHb1G/RSwaqBcKwYFLDuiBwUsO1xSwKo1AmrjUMDSIodXjgIWHicTMqKANQE80KIUsECJGZsWBayxiGFfTwELm5+R2VHAGgkY6uUL+Xqr/LN1680TLzKLdGdNkKSAZUf0oIBlh0sKWKgTQ8yLAhY6Q+n5UcBKx2oGV1LAmgFJI1OkgDUSMNTLKWChMqPLiwKWDjfQUhSwQIkZmxYFrLGIwV8f+ubWbbZrt91tfb6WBEkKWBSw4DvhmQT9fnMXXOiLL339C/pvV9e8ewpYNdEuG4sCVll8K9dOAasy4BXCUcCqAHKNEBSwaqBcLwYFrHpYV4hEAasCyDVCUMCqgXLVGBSwqsJdLJjsT4RLET3Wm16MFLuksde1/TmgbuG6bulWy5WT+7b4o4AFy2o8L2Dhlt3KLbulzUZIAQu2BWoSo4ClQQ27DAUsbH6Ss6OAlQzVLC6kgDULmlKTpICVihT4dRSwwAkanx4FrPGYIZaggIXIij4nClh67AqXpIBVGOCq1YsiLj8RIpfLlesWC7dYdOGwBEM/CliGyOxvhQKWEU4pYBkhsr8NClim+KSAZYROClhGiDzcBgUsG5RSwLLBY7wLCliwfFLAgqVGkRgFLFsWVm/RXXSu61ZutRR3ZN8obOmR/qYoYCk6PGIRCliIrOhzooClxw6wJAUsQFI0KVHA0qAGXYYCFjQ9yclRwEqGahYXUsCCpYkCFiw1isQoYFHAUjQbiCIUsCBomJ4EBazpGCLVQAELiY3JuVDAmgwhRgUUsDB4yJgFBayMYDasigJWQ/ALhKaAVQDUPFVSwMqDI0YtFLAoYGG0xPFZUMAajxlkCQpYkLSok6KApYYOsSAFLERWFDlRwFKAhl2EAhY2P6nZUcBKRWoe11HAguWJAhYsNYrEKGBRwFI0G4giFLAgaJieBAWs6Rgi1UABC4mNyblQwJoMIUYFFLAweMiYBQWsjGA2rIoCVkPwC4SmgFUA1DxVUsDKgyNGLRSwKGBhtMTxWVDAGo8ZZAkKWJC0qJOigKWGDrEgBSxEVhQ5UcBSgIZdhAIWNj+p2VHASkVqHtdRwILliQIWLDWKxChgUcBSNBuIIhSwIGiYngQFrOkYItVAAQuJjcm5UMCaDCFGBRSwMHjImAUFrIxgNqyKAlZD8AuEpoBVANQ8VVLAyoMjRi0UsChgYbTE8VlQwBqPGWQJCliQtKiTooClhg6xIAUsRFYUOVHAUoCGXYQCFjY/qdlRwEpFah7XUcCC5YkCFiw1isQoYFHAUjQbiCIUsCBomJ4EBazpGCLVQAELiY3JuVDAmgwhRgUUsDB4yJgFBayMYDasigJWQ/ALhKaAVQDUPFVSwMqDI0YtFLAoYGG0xPFZUMAajxlkCQpYkLSok6KApYYOsSAFLERWFDlRwFKAhl2EAhY2P6nZUcBKRWoe11HAguWJAhYsNYrEKGBRwFI0G4giFLAgaJieBAWs6Rgi1UABC4mNyblQwJoMIUYFFLAweMiYBQWsjGA2rIoCVkPwC4SmgFUA1DxVUsDKgyNGLRSwKGBhtMTxWVDAGo8ZZAkKWJC0qJOigKWGDrEgBSxEVhQ5UcBSgIZdhAIWNj+p2VHASkVqHtdRwILliQIWLDWKxChgUcBSNBuIIhSwIGiYngQFrOkYItVAAQuJjcm5UMCaDCFGBRSwMHjImAUFrIxgNqyKAlZD8AuEpoBVANQ8VVLAyoMjRi0UsChgYbTE8VlQwBqPGWQJCliQtKiTooClhg6xIAUsRFYUOVHAUoCGXYQCFjY/qdlRwEpFah7XUcCC5YkCFiw1isQoYFHAUjQbiCIUsCBomJ4EBazpGCLVQAELiY3JuVDAmgwhRgUUsDB4yJgFBayMYDasigJWQ/ALhKaAVQDUPFXeIwHL7dx2u3XrzcZtdxsnk8XC2RM8pF0su6VbLleuWyzcYtE5tws8W/n5AWW7ddvd1m22a//f4WePz27Rua5budVy6Rbx9mzR6ZmjgGWkd1LAMkLkYUiV8XWz2bjNbuOcubHncEPLbuWWy6WTMdfqjwKWEWYpYBkh8nAbFLBsUHqfBCzZQ8t+c7VcOblviz8zApY4XCyJHtGxI0KHX7x1skk22Aj9PYmAtXPrzXogYNkSPe46sDovYsnEaOl3TsCSO7TUN6W9yj1RwLLRcuPc0fnJ3u4mOS7eNtuN2/ix1ra4HB8W+HnT2DgbngmEhwXCZRCwwkhr53ffBSxba6CosMqDO3mIt/QPgDpzayDpl7Ku2+3koewT30etroFkbJV1kGyS5d9xjrEzBoUh1QtYm/6hbD9vWlrThjWQTCk9l51wafMBu3Apax+/3/QP2K3Nm2GHEgWsaJgw1SfjMzxZA4lZYrNxi3/5jX90czc9pHp4cZAh6nktpBGu7yzEDVHUg+kFLJnsewFrLiLW6ZBwrm3Ea+TfwYHVC1gyqFgT62Rz4cXI6MAKAlbOX9X+d6WvRwfWYYIwtq/q713467oHveiRl8vUdnFp6r3U/1K2REdjvF+IH8baKMSm5jeX64S9IGCFsXb4u7a8Gfa5XP3v0iSco4VFl0cQPaKANReWEvPc7fzGWB78THn6eMpnLq5ztRNBYxMFrO3angFrMMcMHVg110CpXKVed9qCT8faMGduPK+mtEi58bimlb45ELASe/Wky7T8XAt6rc7jTXJ4q8DcmtYLHgMBS0QPt5gsB5zuK89xkCI5pMzbaeuhsAaKY61/8GOQz6GA5ddA8pbIpF6XXvhUVxjGvdTPrs3PV/vtkYAlfdPg/kTeYvIPCJZuterF5QEoNW65RIxzdQYBa+sWX/r6Fy6tnfe3fm4RFweBEpPEpYYoGyn/9HErr51J5LsOrBQAbw1yqR34UgfUYLInYSebqjBBzM2BdWtwOW5o/QSxkVfP7k72p4PZube1hn92i7Ox7SJlQo3t9FzdvrwfUAKXMqgIr7mnB01bS59ijq9MWbzJhC9PIYdz/ZiJ6tq11/A+FR8u3eO5SfLctefbU+RTuAxPHnPzmcLNOR7OtdfTgf1SH7nbbw+Lt9A3D/uqS/0opX9dEoiu9bVLfevS+JCy8A3xwtwRBMmez8HS7WpbH2yyc/W/S5PwrXEtqb30i7fDvHm8T744fmVa441tG7faySkmkU/P5WI5ad68NodN4XpK2WM8dm63lY2VrIHE5RHQvTSunWs/t3K5NW6ca6vn5uJbbfp0rB/epxeX4xqowLypFSnOzTNj+ujpWLd/hbBfA419pyBlfDw3b47pk7faw6X+2i+BvIYj/8ir9+EYhTrz5q12njJ2nl5zfV449E1ZA8ke5ZbwGnm4NKePaVsp95Myr8W93dm5NK5p5aFsvwYazibafK+tAYbt92pug4SvjXvxslu5ytgqLg9ZA4Xn69d7jXZtdGnOuZbnWB7P5ybrvLAG8nvNZedEjqzxG+Z/qe2f4/ra/Hx1TPdrIPlHHhbIfR8WN+fWE+fXGOefL0xZP90aW6/NtWEVezz6xv1m0A4ObJYYCy+Njdf66Ni2db5thP2J8Lj453/yu5fWGftY2kYzNtmU6+PrV9rBIpKeupm7tdC5tnAbMxScb2Ay88/3ody1gem4cd31eNQWsM4NqKcL6kttIXkArvh0I6Uv5bwmvK1zdyhJnajioHfr+lv993wWhzudImD53KQ/+sEn1DSmj+fCO3UySlkUxpyG42mgMv7J6RSZPomPGTvjtSkLh9Ox/9JccO7eTtvH/tnxCZ/XME7FX8t39vp38QXY847pW+P01DZ+i5+p7eRcO7+1cUzlJjsXqYHPXLe/z/7VyEv9+1q/TxkTzi0Ib42buQWs4diai8sJ0J8tmqtt+FfPTiKk9rlzfetSfzsd48fEOAXg2vr5cr39nJkaeCJhufgZpnFzXhj0zVu3eWutM2XcHLNWHc6Tl+bhO/WdeZPg1v3eGudrradScD0da1OaYkq/O63n3HicMhaMHeNT7rnVmrZEP72D8xGox+Nt6prz2ho1pY5zbega1+fm4dM+cm2ubjFvJrWzlM7UX3Oxbfg1rXOL3//qb1/CaUSYWpeGp+UH5f/CKu/WSJo6k2t6VkqZqzNXOLsjOM3iKwIzomhEU/DnIoj7Qd67vqZYyd9dwiwF7xE5+Uuz1dlzKU/j5JBz19uQx+aDfv0uqKzB/dC5RSeEDUm78cr5Lbw1o+Kt1WHk+dZYcYJ9eE1A+qc4k4y+jiWODumb/XklYWFzYwy6xeG5lVvKU4Rz9Wraw4XVg7hY/Os7+zMu0DvbyPw8VgeX2eFA7AGfKX1lZNiky1N4TJ2r5TWWfpwVd9LN9pqUINZFkSa/BpK+eTpv3ko3Be+U+W84FGhW7ufa29HuQGTl4GaRvhnObbO6BgquQf/qh7cq3SLxyt9P5eXSDmtMTnfaWFgDxdfrvGvQ4quSHrt+3hT3w941OKHd5uqvKX06eT0U17TBBerXQEOL9oTmi1U0NHq/P9k7zW5keGkNlDyHJexnr/XxWDzlmkGo+KqkOM1MnhsZ10BxHeTnzYQ17bDfDKm5NR6OXQtfalaX5slzT5P8nw20g93a3jmDg/a96GS+XLrFF7/y+QkjbL0hJ4wBYSH+IJ6wf64hpTSe1AElpa5zG7O+LV1E58KGIb4IEA8o8wKWwYNoDwvxzq28rbw/2FMWqZc2Uyl/nqs5ang/E9ufDRDfo/cL8fi1xVyJYtQjTTS89hrOE5IJP4z9J5vkFMEixyL6dMF2bWFxq68O8hE+/blt/Tl88f5uzWcYLI3JIrzmEc+G8oe09owmjWkpoa4tzi/19eECbSLosW/Ggz2D6DFt/5hy27WvCa/y9mcqLoPwcYfLW3iXSjplnE2cq2PflFeY19sn/VdtSyXept7DvNmf22ZUwApn6sTzZ+T1HXuC5J7L/oM98cHspPMGWwtYZ/pzPB9pf/SHrIO2W3NHQ8X9SZg3H+wfsk/mM2WeSx1Hb01wCfX4cTaeJ7R+EsRlg0d9Bc2j/5iW/8hLeO31Kp8p68wEjI9ml9N10rU+Plwfxf++0n7iGiicd7ruBclwsLulX1wD+TMy+3P4wpo2Qfo4d8ktgMZyfAnsc+uy0z48uGa435QPSfijXIyuacM54XcErEuP04aonfaglB6VwtD1LjP8atRewLLUy/oBU9CUhifilbx/fSxgnVqRhgDcau2nO4GEEe5O8781Qg/zOVW4Y9s6DBsyoBwJWMbEusMXwOK5bVHAujYCjh39pvS/cx3o2o7x/N8Jo/vzZ7yA1U/2BvkcJ2BdU+xuzYKnq5FLT4wuWRelfErbOD9DDz8ksd9tGOLzzqeVewHr/JRyzWZya9xNnaSuLaYOY+ft08iO54S7C3F7Xxnyq5P4db47AtZY1fzSPHlpbrs2J1+an7Xrof5LqPHDAyJgWfsN6AoHKIcHP8fOgHP94XS8u7S+SZlfU665Nr7eKn/o63GTvBewDI2xnoH+VbMjAWu3HWySY/+5xOmtNcqQh9O+eIuH0/6ZMiefVxTiOBvOExoIWMb4DJ+w77/oFgWs/Sb5Fn7XttOX9pUp65tLe43TtnNpPXT3z/1+85yAZYjPuAaKAlZwuw5P4bu0F0jhKqVvXduTXttrDseKW/vYwymRdwQsQ1zGNVA0TAQBy/uYTwTJ0/401HZuLSZS5LCUPn5rnDjXb4/1Azndqxew5vIKYZD5vQOrW908HPEWFZB/33MUGuFQwBpLOOTd7ZOKEpb/WkJ/sKfFTyvrBCxs7s4vJ3sBq/8KWHRgpTzgmNPdxk1ydGBlfNcUDoZjAatP75rGAncH1xO6LGDZG2u9K6BbhQlfNpSGeNyz3AtYQWCODixbXIZ7la8thq/aipvO8s8LWL1z2V6bDZ0wHKMQXMvy+r1Fx73cp2yMPZf9K6EtPn5Stq/0+xM/1j7Yv3Zmjk9xrvQH1K+PBCxbY+2RgNV/gCm+olW2HdWr/ZyAFdqrQS7921sHB9bpCSf1UC8XaS8uyxqoF7D6k6LKBW1QszdMUMBqgPytkBSwbiE0q7+ngDUrum4mSwHrJkSzuYAC1myoSkuUAlYaTjO6igLWjMi6kep9ELD81xUpYJlotHcErPgpTUOuHQpYJprq4Ble746kgIVILB1YiKxocqIDy94TDv8KIR1Ymu4AWYYOLEhaRicVF+J0YI2GDrQAHVigxIxMiw6skYCBXx5eOaOABU5TYnoUsBKBmsFlh+OH6MCaAV03U6QD6yZEjS6gA6sR8GXC0oFVBtdWtdKB1Qr5/HHpwMqPadMa6cBqCn+J4HRglUC1TZ10YLXBPXvU+/oKIR1Y2ZtSrQopYBk0TPAVwlrdZ0QcClgjwMK/lAIWPkdjMqSANQYt7GspYGHzMzo7ClijIUMvQAELnaH0/ChgpWMFfSUFLGh6xiTHVwjHoIV/Lc/AguaIrxBC0zMiOb5CaFAR5yuEI3oA/qV8hRCfo5QM+QphCkpzuoavEM6Jrcu58hVCGzzGu+ArhJb45CuEdtikA8vgfpMOLMAOSgcWICn6lOjA0mOHWJIOLERWdDnRgaXDDbYUHViw1GgTowNLixxeOTqw8DhRZUQHlgo2xEJ0YCGyos+JDiw9dhVK0oFVAeQqIejAMqiI04FVpe/UCkIHVi2ky8ahA6ssvvVrpwOrPuYlItKBVQLVdnXSgdUO+/yR6cDKj2mrGunAMrjfpAOrVXe6EpcOLEBS9CnRgaXHDrEkHViIrOhyogNLhxtsKTqwYKnRJkYHlhY5vHJ0YOFxosqIDiwVbIiF6MBCZEWfEx1YeuwqlKQDqwLIVULQgWVQEacDq0rfqRWEDqxaSJeNQwdWWXzr104HVn3MS0SkA6sEqu3qpAOrHfb5I9OBlR/TVjXSgWVwv0kHVqvudCUuHViApOhTogNLjx1iSTqwEFnR5UQHlg432FJ0YMFSo02MDiwtcnjl6MDC40SVER1YKtgQC9GBhciKPic6sPTYVShJB1YFkKuEoAPLoCJOB1aVvlMrCB1YtZAuG4cOrLL41q+dDqz6mJeISAdWCVTb1UkHVjvs80emAys/pq1qpAPL4H6TDqxW3elKXDqwAEnRp0QHlh47xJJ0YCGyosuJDiwdbrCl6MCCpUabGB1YWuTwytGBhceJKiM6sFSwIRaiAwuRFX1OdGDpsatQkg6sCiBXCUEHlkFFnA6sKn2nVhA6sGohXTYOHVhl8a1fOx1Y9TEvEZEOrBKotquTDqx22OePTAdWfkxb1UgHlsH9Jh1YrbrTlbh0YAGSok+JDiw9dogl6cBCZEWXEx1YOtxgS9GBBUuNNjE6sLTI4ZWjAwuPE1VGdGCpYEMsRAcWIiv6nOjA0mNXoSQdWBVArhKCDiyDijgdWFX6Tq0gdGDVQrpsHDqwyuJbv3Y6sOpjXiIiHVglUG1XJx1Y7bDPH5kOrPyYtqqRDiyD+006sFp1pytx6cACJEWfEh1YeuwQS9KBhciKLic6sHS4wZaiAwuWGm1idGBpkcMrRwcWHieqjOjAUsGGWIgOLERW9DnRgaXHrkJJOrAqgFwlBB1YBhVxOrCq9J1aQejAqoV02Th0YJXFt37tdGDVx7xERDqwSqDark46sNphnz8yHVj5MW1VIx1YBvebdGC16k5X4tKBBUiKPiU6sPTYIUDBLLUAACAASURBVJakAwuRFV1OdGDpcIMtRQcWLDXaxOjA0iKHV44OLDxOVBnRgaWCDbEQHViIrOhzogNLj12FknRgVQC5Sgg6sAwq4nRgVek7tYLQgVUL6bJx6MAqi2/92unAqo95iYh0YJVAtV2ddGC1wz5/ZDqw8mPaqkY6sAzuN+nAatWdrsSlAwuQFH1KdGDpsUMsSQcWIiu6nOjA0uEGW4oOLFhqtInRgaVFDq8cHVh4nKgyogNLBRtiITqwEFnR50QHlh67CiXpwKoAcpUQdGAZVMTpwKrSd2oFoQOrFtJl49CBVRbf+rXTgVUf8xIR6cAqgWq7OunAaod9/sh0YOXHtFWNdGAZ3G/SgdWqO12JSwcWICn6lOjA0mOHWJIOLERWdDnRgaXDDbYUHViw1GgTowNLixxeOTqw8DhRZUQHlgo2xEJ0YCGyos+JDiw9dhVK0oFVAeQqIejAMqiI04FVpe/UCkIHVi2ky8ahA6ssvvVrpwOrPuYlItKBVQLVdnXSgdUO+/yR6cDKj2mrGunAMrjfpAOrVXe6EpcOLEBS9CnRgaXHDrEkHViIrOhyogNLhxtsKTqwYKnRJkYHlhY5vHJ0YOFxosqIDiwVbIiF6MBCZEWfEx1YeuwqlKQDqwLIVULQgWVQEacDq0rfqRWEDqxaSJeNQwdWWXzr104HVn3MS0SkA6sEqu3qpAOrHfb5I9OBlR/TVjXSgWVwv0kHVqvudCUuHViApOhTogNLjx1iSTqwEFnR5UQHlg432FJ0YMFSo02MDiwtcnjl6MDC40SVER1YKtgQC9GBhciKPic6sPTYVShJB1YFkKuEoAPLoCJOB1aVvlMrCB1YtZAuG4cOrLL41q+dDqz6mJeISAdWCVTb1UkHVjvs80emAys/pq1qpAPL4H6TDqxW3elKXDqwAEnRp0QHlh47xJJ0YCGyosuJDiwdbrCl6MCCpUabGB1YWuTwytGBhceJKiM6sFSwIRaiAwuRFX1OdGDpsatQkg6sCiBXCUEHlkFFnA6sKn2nVhA6sGohXTYOHVhl8a1fOx1Y9TEvEZEOrBKotquTDqx22OePTAdWfkxb1UgHlsH9Jh1YrbrTlbh0YAGSok+JDiw9dogl6cBCZEWXEx1YOtxgS9GBBUuNNjE6sLTI4ZWjAwuPE1VGdGCpYEMsRAcWIiv6nOjA0mNXoSQdWBVArhKCDiyDijgdWFX6Tq0gdGDVQrpsHDqwyuJbv3Y6sOpjXiIiHVglUG1XJx1Y7bDPH5kOrPyYtqqRDiyD+006sFp1pytx6cACJEWfEh1YeuwQS9KBhciKLic6sHS4wZaiAwuWGm1idGBpkcMrRwcWHieqjOjAUsGGWIgOLERW9DnRgaXHrkJJOrAqgFwlBB1YBhVxOrCq9J1aQejAqoV02Th0YJXFt37tdGDVx7xERDqwSqDark46sNphnz8yHVj5MW1VIx1YBvebdGC16k5X4tKBBUiKPiU6sPTYIZakAwuRFV1OdGDpcIMtRQcWLDXaxOjA0iKHV44OLDxOVBnRgaWCDbEQHViIrOhzogNLj12FknRgVQC5Sgg6sAwq4nRgVek7tYLQgVUL6bJx6MAqi2/92unAqo95iYh0YJVAtV2ddGC1wz5/ZDqw8mPaqkY6sAzuN+nAatWdrsSlAwuQFH1KdGDpsUMsSQcWIiu6nOjA0uEGW4oOLFhqtInRgaVFDq8cHVh4nKgyogNLBRtiITqwEFnR50QHlh67CiXpwKoAcpUQdGAZVMTpwKrSd2oFoQOrFtJl49CBVRbf+rXTgVUf8xIR6cAqgWq7OunAaod9/sh0YOXHtFWNdGAZ3G/SgdWqO12JSwcWICn6lOjA0mOHWJIOLERWdDnRgaXDDbYUHViw1GgTowNLixxeOTqw8DhRZUQHlgo2xEJ0YCGyos+JDiw9dhVK0oFVAeQqIejAMqiI04FVpe/UCkIHVi2ky8ahA6ssvvVrpwOrPuYlItKBVQLVdnXSgdUO+/yR6cDKj2mrGunAMrjfpAOrVXe6EpcOLEBS9CnRgaXHDrEkHViIrOhyogNLhxtsKTqwYKnRJkYHlhY5vHJ0YOFxosqIDiwVbIiF6MBCZEWfEx1YeuwqlKQDqwLIVULQgWVQEacDq0rfqRWEDqxaSJeNQwdWWXzr104HVn3MS0SkA6sEqu3qpAOrHfb5I9OBlR/TVjXSgWVwv0kHVqvudCUuHViApOhTogNLjx1iSTqwEFnR5UQHlg432FJ0YMFSo02MDiwtcnjl6MDC40SVER1YKtgQC9GBhciKPic6sPTYVShJB1YFkKuEoAPLoCJOB1aVvlMrCB1YtZAuG4cOrLL41q+dDqz6mJeISAdWCVTb1UkHVjvs80emAys/pq1qpAPL4H6TDqxW3elKXDqwAEnRp0QHlh47xJJ0YCGyosuJDiwdbrCl6MCCpUabGB1YWuTwytGBhceJKiM6sFSwIRaiAwuRFX1OdGDpsatQkg6sCiBXCUEHlkFFnA6sKn2nVhA6sGohXTYOHVhl8a1fOx1Y9TEvEZEOrBKotquTDqx22OePTAdWfkxb1UgHlsH9Jh1YrbrTlbh0YAGSok+JDiw9dogl6cBCZEWXEx1YOtxgS9GBBUuNNjE6sLTI4ZWjAwuPE1VGdGCpYEMsRAcWIiv6nOjA0mNXoSQdWBVArhKCDiyDijgdWFX6Tq0gdGDVQrpsHDqwyuJbv3Y6sOpjXiIiHVglUG1XJx1Y7bDPH5kOrPyYtqqRDiyD+006sFp1pytx6cACJEWfEh1YeuwQS9KBhciKLic6sHS4wZaiAwuWGm1idGBpkcMrRwcWHieqjOjAUsGGWIgOLERW9DnRgaXHrkJJOrAqgFwlBB1YBhVxOrCq9J1aQejAqoV02Th0YJXFt37tdGDVx7xERDqwSqDark46sNphnz8yHVj5MW1VIx1YBvebdGC16k5X4tKBBUiKPiU6sPTYIZakAwuRFV1OdGDpcIMtJc6A7daJa2e9feJ2u51bOFsLt4A9BSzYNjgqMQpYo+CCv7h/wL5YuFX3wHVd5+IcA5/6mATpwBqDFvS1dGBB0zM6OTqwRkNWs4BM+AvXdUv3YLnyk4O5X39Pu50sxNdus9n4hXj42bnfgwOrc6tu5Sf7btEN7tUGs/dDwApsimOnWyzdchn4DHut2Hbt8Ln1G+SN22zWfjNprW+GexIuF57LZbc8DD2G6KSAZaNPxruI4vKxgGVr3pS+6cfabulW0jcX/ThricrBMse/QrjZuO1u088ldtZAce5YLDq37NdAy87eGiguW7fbndtsN24r/+y2/R/b4TO6PBZdELCES7sC1s5zuF4/8f8Oo6wdLuM4K/xJ35Q1UNfJHS5M7VFOBSy/33T2HvyEewrzpl/Tyrwpe22L+5Pdzvk9yiY8xIvreTtLhH4NFB1Yv/eVz89mWyKNMGyqVn6D5RuhoZ/cjW9yImBtNl7EkkY4G4JSuQh7ZC90yEJcxCtZyFn7eT53snATQTIsxHdbeVJn7E534goQETJsrBayeBvIO2buVvqi8LkLApYsyo1py/vbkf7oN8nLZVi4mSFxcCP7vrn2/dPkT5xIXox84FZ+IR7GWUt8xuFUFm5ewIqLN2vjbE+c9Mm4EI8P8qzwGSmT+5E+6QUsWQeZ7JyyhBXBQx76LO2uaWVT5cfawKX0U2trd2mgwqXnczkQsCy22/0mee3XQl4IMLYX86JcFLCWfd80t3APD5llTbvehDWQFz2szZv9GsgLWF6Q7MVlY31zuN8Ma6CtzXmz32+KsLz4/a/+17NZGwTNKjg9LAoe8XmxDCLyZMNP9P1TV2N9LTyx8Vx2B8eOsZscCpLCZVTEZ9PhEvkI850s3uRpcni6YVLA6rf+8SmyzA7WuIxjkB9nZYLwXBoVsJzzY6xM9PFJcmKTn9VlYWPV+SeP1gSP2F69ttNvlKV/GnzsE0fZfqMc5s2h4DOrRnkl2aMHebIGsroQ750r4XWzQ9+0wuN+PRs6Z1jTesHD6rzZr2n7NwosroH2fXMb5szwgN3eKiiOq0FY7h07ljrm8F78Q9mwDjq88WPrZoN20Dn5P6sP2EPfFEGy75tbiz2z11fFACM60D//k9+d1eizdyRdzLq39zTtfxNzkM7mBYGmN1E8eHBwSoebGmoi3lPD3ygfeLwffPohczKfhQmZUv0iWKyDADulIvSyoV/2XbRAsiB9tqfR5CvpA9b8vDmqX4LwM6LlxfnyPnDZawIj0DnasWQ4kqB8+7hPfJYbZ5VNJHexezLOhuXP2LE2N9jl67s/a9owaabNnZfGxPJj5THjY+MdPkBQvuW0i3BbO2iXW7bI+3E27Dmt/qJ2sPiDr38hYVk77BBjO8d0CPdPGfunOPKawE5ex+pTGdIUb+b0yeTpNZeoPS1/LvshYMOnLOeeuJyLcy7GcZ3B/eDfvZZDE4/O2hmTYYsGPMzv/J1GR4d/Has/4+LUunqJ02vYX2ppYxC71lqvcTkcLvY5ejfuwiv+4T36Eq/WnSIyvb+NrSFaV+WJXHhVMp6LcHxK1O12f/76iO3pQHWLj3P3ca5dJV+3k9de+7O+eneSX9wcVVB/fDyEP42d0jaOWTl2P4TXPW716CEGp5xc6nunM0q8h0vj6bXx+1r/vtjm+rceFvLa6+DVusO9XOMxZUQZ24tyCwyhvqO+KWOtO/TNGPEcv8Nsrs0iKUiktJ9rY/c5l9Gdfty/wiPjrLeWx/Mkp9BwtV+PvasUpC4nO7xfP87u581A8qVx7dp4d2sNdKkNnI7Dt/ru6V2dWyedu/PlIsyZwuelmJcRm4Z3erPRjffDNu1fR4+O+/4vrq1fT0eKc2uPa+OwtuWmjAmXZiB/Rqb0Tf/2BKKjN5XH89dFvMNrzOGsL3/llcHz0rg75D7nCv7S+ulc37rUfuKrkuJK8uNsPBuqPzszvd+cXnkO11ROUqOmrIeO503/GrMcL9Af5ZLK57U+eu7vzvXh4bh6Dq3Tv7/E48U1WHxbcP8a8zWH9hQuLpU9XQWmtPbxeYT5pn+N2Z8rLWvaA1opY+W5sW9Kfzpde42ZIy/O6f0aKM6Zd9+eGI9das86XFcixnGdcv/ySrqMsYsvJQlY428ja4k4asi7uv0ByvH9zkBmSsPPmlGRymKniu9ey8bKL8RTV3xFsspfaVzAhMPmZPEWD6u3eBSk8xO9P9xcLKz+Ky7jl+P5WchXYzxA2R/s2S/GQ6+00S/lXvYfHvAL8QduJWdDDcalfGg2rqk/3DKeWWLzsPrAprTOrlt5LsNrAj32hrrn4UMS/bltvbh8WKY3bm+Twwey5H/jpsqfw2dwnA1LnYUXlaVf+jMy96sfK2PtofP580r2fdPYobs9XbIUCOcpbvxrPHbnzW5/bptssCyugeLRH34NFAUso/sTGWvjB5jMjbV+Xdefd9qPtfYOqz+sgfbnnfb7TT8CG9qj3P1gz0HAsrNHiXyGBwX+bOkuTjKTF1lQFfj9Zv8Qbx4CVr9wk051ELCkm5VQ+9pxNdwkx69fWHwdIghY8WsJ/eHmBj97Hvm8TwKWbKqia8fO5BDGBOEznNkWRA+TAlY//HkBq/+QhMWvLfov0/TnKR4JWIbEqzBtBsE8HIgdnB52xKs4V8cvoQZXwL0RsPZf5wuyh43fBQHLxs0d7iLuLQZf5xMBy+KcKTftxeX+C2D2BawnptdA+3kzvlVg9GHB4QNMh3nTUv+MX+eLAlY489TYF14Ga6DhA3bh1hKXcX8i9zRcA1kzv8Q17QwFrNCxjgUsa6uasHjbf/1i8CqEqTvtR8ngwLpPAlY4TNnS0439gNIf6hkFLHub5HMCVt8rjYkeclf3UsAyNchGnSoIWN7hYVbAOvTN+LDAi8uGniLvm+YifHjAi8v9gdi2mu09EbDi1LH/Ol9wYFnbVMWHH/4jEoYFLNko+jMjvQv9vghYweVhzoF11DflldD7ImD1rxAaW8/ecWDJQ7x4/pChydM/YHcHB5ZF8wsFLOgGe48ErPgpXn9mUniF0Nri7a4DiwIWdPe7kdxdBxYFrLnyedaBNdebuZZ3/3ScApYRcilgGSEy3EZ0R8ZXCK2tgShgWXFG9u116FzuKGDNeTC668CigDV3PilgoTLYWxvpwEIlaERe8ZwdcWBRwBoBHOalwzOw6MDC5GhsVnRgjUUM9HoKWKDEKNOigKUEDrMYBSxMXkZnRQfWaMjQC9y/VwgpYKG3yWv50YGFzB4FLGR2xuVGAWscXuBXU8ACJ0iRHgUsBWiIRShgIbKiz4kClh47wJIUsABJ0aREAUuDGnQZCljQ9CQnx1cIk6GaxYUzPcSdZ2DNonWlJEkBKwWl2VxDAWs2VCUnSgErGSrsCylgYfMzNjsKWGMRg76eAhY0PenJUcBKx2omV1LAmglRN9KkgGWDx3gXFLBg+eQZWLDUKBLjGVj2zn84/gph3yiMHXopd0UBS9HhEYtQwEJkRZ8TBSw9doAlKWABkqJJiQKWBjXoMhSwoOlJTo4CVjJUs7iQAhYsTRSwYKlRJEYBiwKWotlAFKGABUHD9CQoYE3HEKkGClhIbEzOhQLWZAgxKqCAhcFDxiwoYGUEs2FVFLAagl8gNAWsAqDmqZICVh4cMWqhgEUBC6Mljs+CAtZ4zCBLUMCCpEWdFAUsNXSIBSlgIbKiyIkClgI07CIUsLD5Sc2OAlYqUvO4jgIWLE8UsGCpUSRGAYsClqLZQBShgAVBw/QkKGBNxxCpBgpYSGxMzoUC1mQIMSqggIXBQ8YsKGBlBLNhVRSwGoJfIDQFrAKg5qmSAlYeHDFqoYBFAQujJY7PggLWeMwgS1DAgqRFnRQFLDV0iAUpYCGyosiJApYCNOwiFLCw+UnNjgJWKlLzuI4CFixPFLBgqVEkRgGLApai2UAUoYAFQcP0JChgTccQqQYKWEhsTM6FAtZkCDEqoICFwUPGLChgZQSzYVUUsBqCXyA0BawCoOapkgJWHhwxaqGARQELoyWOz4IC1njMIEtQwIKkRZ0UBSw1dIgFKWAhsqLIiQKWAjTsIhSwsPlJzY4CVipS87iOAhYsTxSwYKlRJEYBiwKWotlAFKGABUHD9CQoYE3HEKkGClhIbEzOhQLWZAgxKqCAhcFDxiwoYGUEs2FVFLAagl8gNAWsAqDmqZICVh4cMWqhgEUBC6Mljs+CAtZ4zCBLUMCCpEWdFAUsNXSIBSlgIbKiyIkClgI07CIUsLD5Sc2OAlYqUvO4jgIWLE8UsGCpUSRGAYsClqLZQBShgAVBw/QkKGBNxxCpBgpYSGxMzoUC1mQIMSqggIXBQ8YsKGBlBLNhVRSwGoJfIDQFrAKg5qmSAlYeHDFqoYBFAQujJY7PggLWeMwgS1DAgqRFnRQFLDV0iAUpYCGyosiJApYCNOwiFLCw+UnNjgJWKlLzuI4CFixPFLBgqVEkRgGLApai2UAUoYAFQcP0JChgTccQqQYKWEhsTM6FAtZkCDEqoICFwUPGLChgZQSzYVUUsBqCXyA0BawCoOapkgJWHhwxaqGARQELoyWOz4IC1njMIEtQwIKkRZ0UBSw1dIgFKWAhsqLIiQKWAjTsIhSwsPlJzY4CVipS87iOAhYsTxSwYKlRJEYBiwKWotlAFKGABUHD9CQoYE3HEKkGClhIbEzOhQLWZAgxKqCAhcFDxiwoYGUEs2FVFLAagl8gNAWsAqDmqZICVh4cMWqhgEUBC6Mljs+CAtZ4zCBLUMCCpEWdFAUsNXSIBSlgIbKiyIkClgI07CIUsLD5Sc2OAlYqUvO4jgIWLE8UsGCpUSRGAYsClqLZQBShgAVBw/QkKGBNxxCpBgpYSGxMzoUC1mQIMSqggIXBQ8YsKGBlBLNhVRSwGoJfIDQFrAKg5qmSAlYeHDFqoYBFAQujJY7PggLWeMwgS1DAgqRFnRQFLDV0iAUpYCGyosiJApYCNOwiFLCw+UnNjgJWKlLzuI4CFixPFLBgqVEkRgGLApai2UAUoYAFQcP0JChgTccQqQYKWEhsTM6FAtZkCDEqoICFwUPGLChgZQSzYVUUsBqCXyA0BawCoOapkgJWHhwxaqGARQELoyWOz4IC1njMIEtQwIKkRZ0UBSw1dIgFKWAhsqLIiQKWAjTsIhSwsPlJzY4CVipS87iOAhYsTxSwYKlRJEYBiwKWotlAFKGABUHD9CQoYE3HEKkGClhIbEzOhQLWZAgxKqCAhcFDxiwoYGUEs2FVFLAagl8gNAWsAqDmqZICVh4cMWqhgEUBC6Mljs+CAtZ4zCBLUMCCpEWdFAUsNXSIBSlgIbKiyIkClgI07CIUsLD5Sc2OAlYqUvO4jgIWLE8UsGCpUSRGAYsClqLZQBShgAVBw/QkKGBNxxCpBgpYSGxMzoUC1mQIMSqggIXBQ8YsKGBlBLNhVRSwGoJfIDQFrAKg5qmSAlYeHDFqoYBFAQujJY7PggLWeMwgS1DAgqRFnRQFLDV0iAUpYCGyosiJApYCNOwiFLCw+UnNjgJWKlLzuI4CFixPFLBgqVEkRgGLApai2UAUoYAFQcP0JChgTccQqQYKWEhsTM6FAtZkCDEqoICFwUPGLChgZQSzYVUUsBqCXyA0BawCoOapkgJWHhwxaqGARQELoyWOz4IC1njMIEtQwIKkRZ0UBSw1dIgFKWAhsqLIiQKWAjTsIhSwsPlJzY4CVipS87iOAhYsTxSwYKlRJEYBiwKWotlAFKGABUHD9CQoYE3HEKkGClhIbEzOhQLWZAgxKqCAhcFDxiwoYGUEs2FVFLAagl8gNAWsAqDmqZICVh4cMWqhgEUBC6Mljs+CAtZ4zCBLUMCCpEWdFAUsNXSIBSlgIbKiyIkClgI07CIUsLD5Sc2OAlYqUvO4jgIWLE8UsGCpUSRGAYsClqLZQBShgAVBw/QkKGBNxxCpBgpYSGxMzoUC1mQIMSqggIXBQ8YsKGBlBLNhVRSwGoJfIDQFrAKg5qmSAlYeHDFqoYBFAQujJY7PggLWeMwgS1DAgqRFnRQFLDV0iAUpYCGyosiJApYCNOwiFLCw+UnNjgJWKlLzuI4CFixPFLBgqVEkRgGLApai2UAUoYAFQcP0JChgTccQqQYKWEhsTM6FAtZkCDEqoICFwUPGLChgZQSzYVUUsBqCXyA0BawCoOapkgJWHhwxaqGARQELoyWOz4IC1njMIEtQwIKkRZ0UBSw1dIgFKWAhsqLIiQKWAjTsIhSwsPlJzY4CVipS87iOAhYsTxSwYKlRJEYBiwKWotlAFKGABUHD9CQoYE3HEKkGClhIbEzOhQLWZAgxKqCAhcFDxiwoYGUEs2FVFLAagl8gNAWsAqDmqZICVh4cMWqhgEUBC6Mljs+CAtZ4zCBLUMCCpEWdFAUsNXSIBSlgIbKiyIkClgI07CIUsLD5Sc2OAlYqUvO4jgIWLE8UsGCpUSRGAYsClqLZQBShgAVBw/QkKGBNxxCpBgpYSGxMzoUC1mQIMSqggIXBQ8YsKGBlBLNhVRSwGoJfIDQFrAKg5qmSAlYeHDFqoYBFAQujJY7PggLWeMwgS1DAgqRFnRQFLDV0iAUpYCGyosiJApYCNOwiFLCw+UnNjgJWKlLzuI4CFixPFLBgqVEkRgGLApai2UAUoYAFQcP0JChgTccQqQYKWEhsTM6FAtZkCDEqoICFwUPGLChgZQSzYVUUsBqCXyA0BawCoOapkgJWHhwxaqGARQELoyWOz4IC1njMIEtQwIKkRZ0UBSw1dIgFKWAhsqLIiQKWAjTsIhSwsPlJzY4CVipS87iOAhYsTxSwYKlRJEYBiwKWotlAFKGABUHD9CQoYE3HEKkGClhIbEzOhQLWZAgxKqCAhcFDxiwoYGUEs2FVFLAagl8gNAWsAqDmqZICVh4cMWqhgEUBC6Mljs+CAtZ4zCBLUMCCpEWdFAUsNXSIBSlgIbKiyIkClgI07CIUsLD5Sc2OAlYqUvO4jgIWLE8UsGCpUSRGAYsClqLZQBShgAVBw/QkKGBNxxCpBgpYSGxMzoUC1mQIMSqggIXBQ8YsKGBlBLNhVRSwGoJfIDQFrAKg5qmSAlYeHDFqoYBFAQujJY7PggLWeMwgS1DAgqRFnRQFLDV0iAUpYCGyosiJApYCNOwiFLCw+UnNjgJWKlLzuI4CFixPFLBgqVEkRgGLApai2UAUoYAFQcP0JChgTccQqQYKWEhsTM6FAtZkCDEqoICFwUPGLChgZQSzYVUUsBqCXyA0BawCoOapkgJWHhwxaqGARQELoyWOz4IC1njMIEtQwIKkRZ0UBSw1dIgFKWAhsqLIiQKWAjTsIhSwsPlJzY4CVipS87iOAhYsTxSwYKlRJEYBiwKWotlAFKGABUHD9CQoYE3HEKkGClhIbEzOhQLWZAgxKqCAhcFDxiwoYGUEs2FVFLAagl8gNAWsAqDmqfKeCVi7rVtvNm672ziZLBbOnuAh7WLZLd1yuXLdYuEWi865XeDZys8PKNut2+62brNd+/8OP3t8dovOdd3KrZZLt4i3Z4tOzxwFLCO9kwKWESIPQ6qMr5vNxm12G+fMjT2HG1p2K7dcLp2MuVZ/FLCMMEsBywiRh9uggGWDUgpYNniMdzFTASvMEOvtxm02ay94HFZvw42y/PmtjfO1a+ICSuoY/vewEQxXjediXSp3ro7jXbCUFKHDL9462STfupf5NU4/oLidFzqOBazhvdzidMhhCudjcEppA7fqi/6rYwFLFuOh7dr5DQWs9Xbtdtut7znpguSt/nTab271idP+d6n+1HYTyoe+ORSw+jyM8envVcZa2SRv1yfj4CXMcv35ab9IGUtjmdMcLufk/2axcN1i6cVIv0keDvlWuqfMH7ud2/Tz5ma37WfHS31oTF9MBSm1n53jMaVdhbFWOJQ5c7VcCbnmHhQI+uX/IQAAIABJREFUOtJmA5dRwLrF1+k8eWmOvcTluf53bny9NianrLfuxjctYMWpYxv65lY4vdg3U/vPrbYwdh69NBb7lnihwRznKj1TrpQHd/IQb+nnT5trIJkz5SHeevPEr23vsnZr3RJXGcM9wdgyt8bk1L54Pq7nM86b3cp1nTyUXZhb08Y10EYeFshD2V14KHt9TZsyV93iJ7aBlHH6WrxY/nJbGvZNmTM7v98cLPdSUp3BNXcELN83w7gUfrfWQlPmtpT+ewvE0zn8dG8cysc9V1wDee3AKJ/eLLHZuMWXvv6Feeym+wXpvASsS53j3ELjIHhIw5PF28q0gOV6AUsmh+jAujRoX1pEj53obw0U8e+H8cZsoI8XiLHk0IFlWcCSBfjQgdVewIr979LCftzGIG6SDw6s+ypgnRvXxi7exmF/+6HE6eJ/uBA8XUSEsVbapyzaLAtYcfEmm+T1JizEAxq3Fm3XrkkdR4fj6ZiF3LUF27k67wpYVjdV8WGBcBkcWLdEi5IC1un4miZqHLeey8vP+ytgnfa9sWPlrb6rX9McuEvjOq5qvbhMASth4EwZ+06rSeXz1nW3xhLZJEcBq3MrL2B1FLD2dIxdA11qDqdj4q25+u765m4/vZvbqYAVDRMWH7AfxOXwhsg4AevWeiltLEzo/BcuGSdghTVteOPHvoD1jQQB69q4d2tM1LN2VFI2G4fXlMITK4u/wyZ5eRCwzgmut0ThUmuYMaCfto3BuCz/6S26/knyuje7zUNLTYVA9haLLrg8wqsQ4WnV1Z+mP91ed6SmfLjuXB6Xctv1XHpVPLgjjyeI8eExS4RXQJddcHoccTlmf17r5lLb0pl+GhxYQVyW1wkRb286jCJgCZfyqlLnBa39Y4Tac94wXipvNwEIrO122/CwYPB6rzU+47x55MAKd38TpaMLLs1ZwyeZl/YLhUH17bN3efh506+BRt7fODSaXO2X6/IQbz9vijty+LCqSVp3g2bop3ENJOtZGWet8Rm2XmHdEwWsvTMgIpoBx7MtIrXe1OuGw8lJXz/um+FBwXYrYg9IW82Zhu+bYd6U+XP/m7InuTbupuSewmGqLtTzPHyFUOZQm7/QN70Yuey8i/lgpah0xyncnRsrxux7dnIsRv/Gz3Zjcn8i04f0x/iwIO43L/I5BvfUppC7zgv70Pjq/eJf/Ok/uL0Cqr2YvwCWV4alIUrzM/jaTrxtmQdkoywDy50JMKWB5LomtdFeuu7SpNRf72UOvyC/3QSnptKyvOdR3B5REb+WTAp3p+XHDOSpQFwYOHzxMwsV3zVFuOrFq9Qwc7suchmoHACBuFBNbUtn+mnkMfTRubGUnm94HeKMsFx7zhvGS+Ut8TaH/dI2l72rLr4OmojP0WXAApbP0y+B7sG8uXBOJGX57V/v1fBZskyGfhr65oHTkum2rDvMm0GYvPMQLwOOZ+8ttd7U6/r+d2kN5Ptmv/4J/7b7i3Nm8hroFsZoAlbPtexNdrLjNEymrGU7GW1T9iclmvSttjGMeW6ddGFPcmeb1O81TWsH/b4kPjS4+uR5DO6pvOeu85KA1a+BFv/0a39/Xl2z33D4XTTipjGV6EvX9WyI4m+5o8Xbj0KdSS7jhqN/smqdzyjueNXVYt/0fPYbDrNP5PqeuRDXVecWwyesU8c2tPJx47iVQXde0+BoKOO8adIS0KPhN5D3ZN6UV3esroEinf05QqZ3j/uHlf4/Rnfr2RSID7f8vGn4PvuHlc3EgFoNQsSA/cd6agWtHycIrr3LzGKz7Zc9/owvyypdL3KFhyEWiRyugcIbMLb5FHdr5xZf/Opvz2blLs1O3u+U1wQufZlGbuZW8xxek3L9Na2pxNuvwy/TxMMDTXU6P1Au/OZYzvny79H713cOv+ELA+cwTuHwGrdTeB8zjUqceOCcvI7lBxVrA6i8YtYf7Kn9alRO4f7cw7xLbWgvpCaS6vvmLn5IIoo9iYXncFm/iImv1vmDPS/kfasP3up/iQ/O7kRP7bsp150e0joHikblGPtm/1EQ7wJN+KX0xxR8ew3/bBtKKX+rjQ1v5fDKx5Pw8CfxXhPgwLmkf00gfORF93W+FNyv3fC18TWl7nPXnGtvoW/KcRHyIQljAk9/w9JEl90Dz+XQmZSK47kxNLXscCRIKZPSCS7VI29NyGuvwqXJvtnzeZg3g3/w3Jo2Bcdr4+bRmJew30mNF69LaQvhA0zxcHNjY22/BvJr2sHHtG7NnJdwG9sGbuF/a24es4/y7cx/HK0/GyqKWLdudmyjanl9vwYafkhibDrXML80n+WAcMhlyl4lfBxNPgwiH5KIk8zYuwW/vufTH+Pyxa/MQcA6NB/ZUD1YrvZWZFOuln7BLU+R5SwhWbwd7i9Hd0BomAdrtT9srv+SidXDzeVu/UJcFm9Hh9Xb4lM2xuGsr8G5CMae6OwPUO6/6Hb5K6UI/UybQxhr94fudsvDE4Fzs6k2TONyd79MMzxT0VbfjGdciLjsN8mGeNwv6hbhjEwZa9fbIGAFFu1wGe/VP8TrD8S2eli93OsdAcsMl1GeCKLcqhewLH6dL7ZZeRUripGHMxWt9M3+cHP/UZDAp9nDzfsvDsoe5cn6yeDrfLbGWi9KDL4Gvz/ry9CaNs4dUcCSPUrcnaV/gKnxQu5m+PjBnt780s+bVg83jw/x5EuoQTu4JYfeBBDsgv6DPU7OVJyNgHV4HtEtl+5BFwQsc7+hgLVde9EjNEJb97r/Mk0UsPyTDrufVt4vxPcClj0+jwUsf9qFOQvr/RCwwqgqfPpN8r0TsOz1TQpYVlYKvbg8ELCs3Nm5+xjOm/ZE18Bl+ChIeOgjLixTD2QHpB4ELHmQJ19CtTfOxnOh7AtYW39u7fpIwLLH55GA5Y/FsLWmPRWw5EMSVveb4YvThy+hWhWwpF8Gd6RVASs8LBB/6/wELC90WBawwowfVFQKWHNfnMcJ4t4IWP0X3Q5Pq+bO4HH+FLDs8HnZgWVzIS5OV8sOLNlc+K8UHzmwbHHZrw7CMQrxSbKdLnnnTihg2SHXuoAl26p4QD0FrPm3W/8V7aEDiwLWbEkNX0SngDVbAk8Sp4CFymS/3qaAhUrQuLwoYI3DC/1qCljoDKXnRwErHatZXEkBaxY0jUmSAtYYtLCvpYCFzU9ydv4VQjqwkvECvpAOLGByFKn5/QkdWArkqhQJBwXSgVUF7KJB+AqhLWeAV8T710Dj6xC+ARk7a4cCVtFhoWrlFLCqwl0+GAWs8hhXjkABqzLgBcNRwCoIbs2qKWDVRLtoLApYReGtXjkFrOqQjwlIAWsMWsjXUsCigIXcPi/lRgFrjqydz5kClh0u/Z1QwDJG6OAQd//1Xmu3xzOwbDHKVwgt8clXCO2wyVcIDe43eQYWYAflK4SApOhT4iuEeuwQS1LAQmRFlxMFLB1usKUoYMFSo02MDiwtcnjl6MDC40SVER1YKtgQC9GBhciKPic6sPTYVShJB1YFkKuEoAPLoCLOVwir9J1aQfgVwlpIl40TnyTzEPeyONerfcdD3OuBXTASHVgFwW1QNR1YDUAvFpIOrGLQVq+YDiyD+006sKr3o9sB6cC6jdGMrqADa0ZkJaRKB1YCSDO5hA6smRCVmiYdWKlIzeY6OrBmQ9XNROnAugnRPC6gA2sePCVkSQdWAkgzuoQOLGiy6MCCpmdEcnRgGVTE6cAa0QPwL6UDC5+jlAzpwEpBaU7X0IE1J7Yu50oHlg0e413QgWWJTzqw7LBJB5bB/SYdWIAdlA4sQFL0KdGBpccOsSQdWIis6HKiA0uHG2wpOrBgqdEmRgeWFjm8cnRg4XGiyogOLBVsiIXowEJkRZ8THVh67CqUpAOrAshVQtCBZVARpwOrSt+pFYQOrFpIl41DB1ZZfOvXTgdWfcxLRKQDqwSq7eqkA6sd9vkj04GVH9NWNdKBZXC/SQdWq+50JS4dWICk6FOiA0uPHWJJOrAQWdHlRAeWDjfYUnRgwVKjTYwOLC1yeOXowMLjRJURHVgq2BAL0YGFyIo+Jzqw9NhVKEkHVgWQq4SgA8ugIk4HVpW+UysIHVi1kC4bhw6ssvjWr50OrPqYl4hIB1YJVNvVSQdWO+zzR6YDKz+mrWqkA8vgfpMOrFbd6UpcOrAASdGnRAeWHjvEknRgIbKiy4kOLB1usKXowIKlRpsYHVha5PDK0YGFx4kqIzqwVLAhFqIDC5EVfU50YOmxq1CSDqwKIFcJQQeWQUWcDqwqfadWEDqwaiFdNg4dWGXxrV87HVj1MS8RkQ6sEqi2q5MOrHbY549MB1Z+TFvVSAeWwf0mHVitutOVuHRgAZKiT4kOLD12iCXpwEJkRZcTHVg63GBL0YEFS402MTqwtMjhlaMDC48TVUZ0YKlgQyxEBxYiK/qc6MDSY1ehJB1YFUCuEoIOLIOKOB1YVfpOrSB0YNVCumwcOrDK4lu/djqw6mNeIiIdWCVQbVcnHVjtsM8fmQ6s/Ji2qpEOLIP7TTqwWnWnK3HpwAIkRZ8SHVh67BBL0oGFyIouJzqwdLjBlqIDC5YabWJ0YGmRwytHBxYeJ6qM6MBSwYZYiA4sRFb0OdGBpceuQkk6sCqAXCUEHVgGFXE6sKr0nVpB6MCqhXTZOHRglcW3fu10YNXHvEREOrBKoNquTjqw2mGfPzIdWPkxbVUjHVgG95t0YLXqTlfi0oEFSIo+JTqw9NghlqQDC5EVXU50YOlwgy1FBxYsNdrE6MDSIodXjg4sPE5UGdGBpYINsRAdWIis6HOiA0uPXYWSdGBVALlKCDqwDCridGBV6Tu1gtCBVQvpsnHowCqLb/3a6cCqj3mJiHRglUC1XZ10YLXDPn9kOrDyY9qqRjqwDO436cBq1Z2uxKUDC5AUfUp0YOmxQyxJBxYiK7qc6MDS4QZbig4sWGq0idGBpUUOrxwdWHicqDKiA0sFG2IhOrAQWdHnRAeWHrsKJenAqgBylRB0YBlUxOnAqtJ3agWhA6sW0mXj0IFVFt/6tdOBVR/zEhHpwCqBars66cBqh33+yHRg5ce0VY10YBncb9KB1ao7XYlLBxYgKfqU6MDSY4dYkg4sRFZ0OdGBpcMNthQdWLDUaBOjA0uLHF45OrDwOFFlRAeWCjbEQnRgIbKiz4kOLD12FUrSgVUB5Coh6MAyqIjTgVWl79QKQgdWLaTLxqEDqyy+9WunA6s+5iUi0oFVAtV2ddKB1Q77/JHpwMqPaasa6cAyuN+kA6tVd7oSlw4sQFL0KdGBpccOsSQdWIis6HKiA0uHG2wpOrBgqdEmRgeWFjm8cnRg4XGiyogOLBVsiIXowEJkRZ8THVh67CqUpAOrAshVQtCBZVARpwOrSt+pFYQOrFpIl41DB1ZZfOvXTgdWfcxLRKQDqwSq7eqkA6sd9vkj04GVH9NWNdKBZXC/SQdWq+50JS4dWICk6FOiA0uPHWJJOrAQWdHlRAeWDjfYUnRgwVKjTYwOLC1yeOXowMLjRJURHVgq2BAL0YGFyIo+Jzqw9NhVKEkHVgWQq4SgA8ugIk4HVpW+UysIHVi1kC4bhw6ssvjWr50OrPqYl4hIB1YJVNvVSQdWO+zzR6YDKz+mrWqkA8vgfpMOrFbd6UpcOrAASdGnRAeWHjvEknRgIbKiy4kOLB1usKXowIKlRpsYHVha5PDK0YGFx4kqIzqwVLAhFqIDC5EVfU50YOmxq1CSDqwKIFcJQQeWQUWcDqwqfadWEDqwaiFdNg4dWGXxrV87HVj1MS8RkQ6sEqi2q5MOrHbY549MB1Z+TFvVSAeWwf0mHVitutOVuHRgAZKiT4kOLD12iCXpwEJkRZcTHVg63GBL0YEFS402MTqwtMjhlaMDC48TVUZ0YKlgQyxEBxYiK/qc6MDSY1ehJB1YFUCuEoIOLIOKOB1YVfpOrSB0YNVCumwcOrDK4lu/djqw6mNeIiIdWCVQbVcnHVjtsM8fmQ6s/Ji2qpEOLIP7TTqwWnWnK3HpwAIkRZ8SHVh67BBL0oGFyIouJzqwdLjBlqIDC5YabWJ0YGmRwytHBxYeJ6qM6MBSwYZYiA4sRFb0OdGBpceuQkk6sCqAXCUEHVgGFXE6sKr0nVpB6MCqhXTZOHRglcW3fu10YNXHvEREOrBKoNquTjqw2mGfPzIdWPkxbVUjHVgG95t0YLXqTlfi0oEFSIo+JTqw9NghlqQDC5EVXU50YOlwgy1FBxYsNdrE6MDSIodXjg4sPE5UGdGBpYINsRAdWIis6HOiA0uPXYWSdGBVALlKCDqwDCridGBV6Tu1gtCBVQvpsnHowCqLb/3a6cCqj3mJiHRglUC1XZ10YLXDPn9kOrDyY9qqRjqwDO436cBq1Z2uxKUDC5AUfUp0YOmxQyxJBxYiK7qc6MDS4QZbig4sWGq0idGBpUUOrxwdWHicqDKiA0sFG2IhOrAQWdHnRAeWHrsKJenAqgBylRB0YBlUxOnAqtJ3agWhA6sW0mXj0IFVFt/6tdOBVR/zEhHpwCqBars66cBqh33+yHRg5ce0VY10YBncb9KB1ao7XYlLBxYgKfqU6MDSY4dYkg4sRFZ0OdGBpcMNthQdWLDUaBOjA0uLHF45OrDwOFFlRAeWCjbEQnRgIbKiz4kOLD12FUrSgVUB5Coh6MAyqIjTgVWl79QKQgdWLaTLxqEDqyy+9WunA6s+5iUi0oFVAtV2ddKB1Q77/JHpwMqPaasa6cAyuN+kA6tVd7oSlw4sQFL0KdGBpccOsSQdWIis6HKiA0uHG2wpOrBgqdEmRgeWFjm8cnRg4XGiyogOLBVsiIXowEJkRZ8THVh67CqUpAOrAshVQtCBZVARpwOrSt+pFYQOrFpIl41DB1ZZfOvXTgdWfcxLRKQDqwSq7eqkA6sd9vkj04GVH9NWNdKBZXC/SQdWq+50JS4dWICk6FOiA0uPHWJJOrAQWdHlRAeWDjfYUnRgwVKjTYwOLC1yeOXowMLjRJURHVgq2BAL0YGFyIo+Jzqw9NhVKEkHVgWQq4SgA8ugIk4HVpW+UysIHVi1kC4bhw6ssvjWr50OrPqYl4hIB1YJVNvVSQdWO+zzR6YDKz+mrWqkA8vgfpMOrFbd6UpcOrAASdGnRAeWHjvEknRgIbKiy4kOLB1usKXowIKlRpsYHVha5PDK0YGFx4kqIzqwVLAhFqIDC5EVfU50YOmxq1CSDqwKIFcJQQeWQUWcDqwqfadWEDqwaiFdNg4dWGXxrV87HVj1MS8RkQ6sEqi2q5MOrHbY549MB1Z+TFvVSAeWwf0mHVitutOVuHRgAZKiT4kOLD12iCXpwEJkRZcTHVg63GBL0YEFS402MTqwtMjhlaMDC48TVUZ0YKlgQyxEBxYiK/qc6MDSY1ehJB1YFUCuEoIOLIOKOB1YVfpOrSB0YNVCumwcOrDK4lu/djqw6mNeIiIdWCVQbVcnHVjtsM8fmQ6s/Ji2qpEOLIP7TTqwWnWnK3HpwAIkRZ8SHVh67BBL0oGFyIouJzqwdLjBlqIDC5YabWJ0YGmRwytHBxYeJ6qM6MBSwYZYiA4sRFb0OdGBpceuQkk6sCqAXCUEHVgGFXE6sKr0nVpB6MCqhXTZOHRglcW3fu10YNXHvEREOrBKoNquzn5/sli4VffAdV3nokDQLqcCke+rgNXJmn3h3C70Wws/ClgWWDzcwz0VsD4/ix4pSS7cwnXLpXvQrfzkYO3nBxQnY+TWbbZrt9ls3M7QgBn5ig2u65Zu1a2cbJZlwrd2r5cdWLZarvDpOVws3XK5cl0nPXVhks/tduvW243bbNYuCrEGRyLPp3C57JbOxbHW0Fh02YFlr2/KvS67lVstl65bdKHdzmLWT+ciuiPFtbPePvFjj71+GWjz86b0zUWXDtBcrhyQ5h1Ym43b7jamNo5CxX4N5PtmEDyWBtdAce6QeXOz3bit/LPbmuubfn/i10C2BaywSd46cdSt10/8f8vP2lgb+ZR5c+nnTXtr2lMBS/qnxXlzrx3IGNvPmxbF5eF+c70Ja6Dw+qStn2xDwv5k6RZf/MrMBKxu6R4s7QpY0tRkUrgfAlbXC1idcQFr4/mUSd/qBHEsYHV+0LQoSFLAsjEZ3kcBSyZ8ET0oYM23DVPAmi93w8yPBSx56LOkgDVjaqPgIfOKOLBEjLS6SaaANeOGOkj9sAbaubXsTyhgzZrYeylg/f5Xfxv+WWxM0Duw+ol+sbC3SY6uMtn4b3bxaZVBBbUfJsQNIA4P+bfVyV42i/HpozjrwtMAW794T508rfILN3t90z9l9PZ56ZviDLDswJInHCIqh75p3YEVXQG2emW4m8PTR9kghyfJ0TloyYV17HYNfdPaOBv53M+b3dLeg4I9aQs/b0rflLWQNS4Pa1rn3ZFhrLXpWg4PZXe9A0vWQDYdWHKfoW/adqEP17TWHVj+rQIZZxfhDSBLD2XDGz/yUN31D9i3+/uzNN7GNZDsS7ybTpjs33ay+EpoGGvX/k0uk/vN3oElc+bin/3x78ALWHc3Fn33stTL7tykvdc8zm8Q/cxg++d72Ay72QhW9gOlwVd773ZN21zu75dcjugBM7iUfM6ApBEpWufzHsybB7bvwTqod2VbX+75Ba39mzT3Wu/Fkdf6OOu3J7bXtPsHBuRyxAID/dKFW/zBn/7D2bTcoBYHR4uojP5naaKIt9SfCRWVYvRmpM1P+JRzLrxSbFIqDsjEM75E9Zf/s/jzT+X6vrl/SmXtVsM5rb07yfdOi1T2T+XkOfnO7Xz/7G/T0u32XAY+e6eZSTZFOj+ZNy3xGDkb9s3e0WuUzv0ZNPEJq8X79Ecm+zOFgjvb8lgb1rO210Cey67bnyVksc3GcXa3lbVQcD+YWyLs581wZpvVfhkeOcc1rZwNZXMN5JtoP87Gs2tt9s1wpImcp+jPhjK63/ROwf484jBv2vwFLndu8S+/8Y9mI2CFDXI4T0iED5M/scf5Az2jdTXYHa39gg155w9p3ezE7jibZphOhXQw/ypWODzQv5Zlkcv+bC9ZtK3l1Tr//28Pr56lIwZ9ZdxUHQ72NHiIcv+UXDj0h9WLFXkrq1ZoalTJyS3tD8SWw+qN/vxrr/2HB/y8aZBLWZGGeVMOq7d5RmZsnoHLvm8abbP+wwP+oyCHIwYs3qofZzeyng2Hm5v7DQWPeIBy/5EXa/caNlXheIEoSu5fvzd0s1HwkHHWf23R4IQSxcjwIQk5v9Zg3+z1Vdmj+I+C9B/ssbk8CH1Txtpw1pc9cVnGH78GknlzFfabFrmUoTQcy7N1iy99/QvzUA78qdDu8AWw/fudligKVMSvRoV3ry3dX3yKEe7JH4jtJ4fh1y+s3O/+pJkgRg4ELGtiXfwC2EHAGk72tvgMZ0OFL7rtu+Y8RtBRS2j/Hn2/ST68/mqFy/B0NZ6pGL/ONwqgmVx8OBsqfDnzsBC3w2VgM54/E8ZaP29afCiy6Bdv/sFP/DqfLS5j17L+oEDuM4rL4ayv+EU3e3yG82fClzMtfnFaFgPxwZ18AUzWtoc9shU+wzh7TsCytqaVnb/vm5vwQa3DWV9WuIxrIOEzCFj+TCGD8+bdD/bIOGtLwTp8ET2cE+75tKgd9ONPeFCwmbOAZXDX2J+TdD8ErPAq6Lr/THb4Op+dycEvTns+DwJWeCXC2mQ/FLD8ZL93R9rjkwLWTJSbG2l6Aau3WlsWsOLGym+QzQpYYayNh5vfLwHLRn883MVhXXcfBSxra6D48OP+Clj21kD7eTMeVm/w4wMHcfk+CVjhdW1rx/XeEbDkQYFBC1Z8KCv7TcsudL/fpICFuPC7Rw6s3m593wQsWchZcwZQwEIcS6bldC8cWBSwpjUSoNIUsIDImJQKBaxJ8MEVjmta6w6ssKyToxOOHVgUsOCaZGJCwR1JASsRLtjL7pOAJS8NRgeWybe36MCC7Wf7L9XdCwdWf+C3nLNzeIXQ3mQvrW3owKKAhdz/rucWN8l8hXC+HMbM6cCyN9bSgTX/fjl8/E8Hlh0+7TuwKGBZaK3De6CAZYNRClg2eIx3QQcWLJ/3zIElrxBSwIJtjamJ0YGVitR8rqMDaz5cXc20f72DrxBa4fP0DCwj97W/DTqwbDFKB5YlPo8e/PAVwllTG145G56BxVcI50yof8BOBxYohXcOcecZWKBM3U6rPyjQn4FFAes2XuBXUMACJ0iRHgUsBWiIRShgIbKiz+nOIe76qjBLUsDC5EWbFQUsLXKI5Shg2XEuU8Cyw6WMFRSwEEfMmBMFLGR2xuVGAWscXuBXU8ACJ0iRHgUsBWiIRShgIbKiz4kClh47wJKnXyHkIe6AJKWk1H/0lGdgpYA1j2v4CuE8eLqVJV8hvIXQvP6erxDC8sVXCGGpUSR27iuEPANLASRIEZ6BZeeJFc/AssPl/unjotufN2jxc+B+GKSABTIb5EmDAlYeHJvXQgGrOQW5E6CAlRvRNvVRwGqDe6moFLBKITu5XgpYkyEEqoACls1NMg9xB+pkylQoYNnsm/GDGRSwlB2jeTG+QticgqwJ8BXCrHA2royvENqZN/kKoR0u9w/xeAZW4xHyUni+QghKjCItvkKoAA23CF8hxOVGmxlfIdQiB1aOrxCCETIxHTqwJgKIVZwOLCw+1NnQgaWGDrUgHViozIzLiw6scXihX00HFixDdGDBUqNIjA4sg084Fp2jA0vRGcCK0IFls2/SgQXW0UanQwfWaMigC9CBBU3PyOTowLIzb9KBZYdL6cY8xH3kYFb1cjqwqsJdNBgdWEXhrV05HVi1ES8fjw6s8hhXiUAHVhWYqwWhA6sa1DUC0YFVA+UKMejAqgBy3RB0YNXFu1Q0OrBKIdumXjqw2uCeEJUOrASQZnMJHVgGn3DQgTWb/nctUTqwbPZNOrDm3j3pwJo7g8f504Eg0cRLAAAgAElEQVRliU86sOzMm3Rg2eFSxhg6sJBHWjqwkNkZlxsdWOPwAr+aDixwghTp0YGlAA2xCB1YiKzoc6IDS48dYEk6sABJ0aREB5YGNegydGBB05OcHB1YyVDN4kI6sGBpogMLlhpFYnRgGXzCQQeWoifgFaEDy2bfpAMLr6+Ny4gOrHF4oV9NBxY6Q2PyowPLzrxJB5YdLqUP04E1ZiSrfS0dWLURLxePDqxy2DaomQ6sBqAXDkkHVmGAa1VPB1YtpOvEoQOrDs6VotCBVQno0mHowCqNcPX66cCqDnmRgHRgFYG1WaV0YDWD/lZgOrBuITSnv6cDy+ATDjqw5tQFL+ZKB5bNvkkH1ty7Jx1Yc2fwOH86sCzxSQeWnXmTDiw7XMoYQwcW8khLBxYyO+NyowNrHF7gV9OBBU6QIj06sBSgIRahAwuRFX1OdGDpsQMsSQcWICmalOjA0qAGXYYOLGh6kpOjAysZqllcSAcWLE10YMFSo0iMDiyDTzjowFL0BLwidGDZ7Jt0YOH1tXEZ0YE1Di/0q+nAQmdoTH50YNmZN+nAssOl9GE6sMaMZLWvpQOrNuLl4tGBVQ7bBjXTgdUA9MIh6cAqDHCt6unAqoV0nTh0YNXBuVIUOrAqAV06DB1YpRGuXj8dWNUhLxKQDqwisDarlA6sZtDfCkwH1i2E5vT3dGAZfMJBB9acuuDFXOnAstk36cCae/ekA2vuDB7nTweWJT7pwLIzb9KBZYdLGWPowEIeaenAQmZnXG50YI3DC/xqOrDACVKkRweWAjTEInRgIbKiz4kOLD12gCXpwAIkRZMSHVga1KDL0IEFTU9ycnRgJUM1iwvpwIKliQ4sWGoUidGBZfAJBx1Yip6AV4QOLJt9kw4svL42LiM6sMbhhX41HVjoDI3Jjw4sO/MmHVh2uJQ+TAfWmJGs9rV0YNVGvFw8OrDKYdugZjqwGoBeOCQdWIUBrlU9HVi1kK4Thw6sOjhXikIHViWgS4ehA6s0wtXrpwOrOuRFAtKBVQTWZpXSgdUM+luB6cC6hdCc/p4OLINPOOjAmlMXvJgrHVg2+yYdWHPvnnRgzZ3B4/zpwLLEJx1YduZNOrDscCljDB1YyCMtHVjI7IzLjQ6scXiBX00HFjhBivTowFKAhliEDixEVvQ50YGlxw6wJB1YgKRoUqIDS4MadBk6sKDpSU6ODqxkqGZxIR1YsDTRgQVLjSIxOrAMPuGgA0vRE/CK0IFls2/SgYXX18ZlRAfWOLzQr6YDC52hMfnRgWVn3qQDyw6X0ofpwBozktW+lg6s2oiXi0cHVjlsG9RMB1YD0AuHpAOrMMC1qqcDqxbSdeLQgVUH50pR6MCqBHTpMHRglUa4ev10YFWHvEhAOrCKwNqsUjqwmkF/KzAdWLcQmtPf04Fl8AkHHVhz6oIXc6UDy2bfpANr7t2TDqy5M3icPx1YlvikA8vOvEkHlh0uZYyhAwt5pKUDC5mdcbnRgTUOL/Cr6cACJ0iRHh1YCtAQi9CBhciKPic6sPTYAZakAwuQFE1KdGBpUIMuQwcWND3JydGBlQzVLC6kAwuWJjqwYKlRJEYHlsEnHHRgKXoCXhE6sGz2TTqw8PrauIzowBqHF/rVdGChMzQmPzqw7MybdGDZ4VL6MB1YY0ay2tfSgVUb8XLx6MAqh22DmunAagB64ZB0YBUGuFb1dGDVQrpOHDqw6uBcKQodWJWALh2GDqzSCFevnw6s6pAXCUgHVhFYm1VKB1Yz6G8FpgPrFkJz+ns6sAw+4aADa05d8GKudGDZ7Jt0YM29e9KBNXcGj/OnA8sSn3Rg2Zk36cCyw6WMMXRgIY+0dGAhszMuNzqwxuEFfjUdWOAEKdKjA0sBGmIROrAQWdHnRAeWHjvAknRgAZKiSYkOLA1q0GXowIKmJzk5OrCSoZrFhXRgwdJEBxYsNYrE6MAy+ISDDixFT8ArQgeWzb5JBxZeXxuXER1Y4/BCv5oOLHSGxuRHB5adeZMOLDtcSh+mA2vMSFb7WjqwaiNeLh4dWOWwbVAzHVgNQC8ckg6swgDXqp4OrFpI14lDB1YdnCtFoQOrEtClw9CBVRrh6vXTgVUd8iIB6cAqAmuzSunAagb9rcB0YN1CaE5/TweWwSccdGDNqQtezJUOLJt9kw6suXdPOrDmzuBx/nRgWeKTDiw78yYdWHa4lDGGDizkkZYOLGR2xuVGB9Y4vMCvpgMLnCBFenRgKUBDLEIHFiIr+pzowNJjB1iSDixAUjQp0YGlQQ26DB1Y0PQkJ0cHVjJUs7iQDixYmujAgqVGkRgdWAafcNCBpegJeEXowLLZN+nAwutr4zKiA2scXuhX04GFztCY/OjAsjNv0oFlh0vpw3RgjRnJal9LB1ZtxMvFowOrHLYNaqYDqwHohUPSgVUY4FrV04FVC+k6cejAqoNzpSh0YFUCunQYOrBKI1y9fjqwqkNeJCAdWEVgbVYpHVjNoL8VmA6sWwjN6e/pwDL4hIMOrDl1wYu50oFls2/SgTX37kkH1twZPM6fDixLfNKBZWfepAPLDpcyxtCBhTzS0oGFzM643OjAGocX+NV0YIETpEiPDiwFaIhF6MBCZEWfEx1YeuwAS9KBBUiKJiU6sDSoQZehAwuanuTk6MBKhmoWF9KBBUsTHViw1CgSowPL4BMOOrAUPQGvCB1YNvsmHVh4fW1cRnRgjcML/Wo6sNAZGpMfHVh25k06sOxwKX2YDqwxI1nta+nAqo14uXh0YJXDtkHNdGA1AL1wSDqwCgNcq3o6sGohXScOHVh1cK4UhQ6sSkCXDkMHVmmEq9dPB1Z1yIsEpAOrCKzNKqUDqxn0twLTgXULoTn9PR1YBp9w0IE1py54MVc6sGz2TTqw5t496cCaO4PH+dOBZYlPOrDszJt0YNnhUsYYOrCQR1o6sJDZGZcbHVjj8AK/mg4scIIU6dGBpQANsQgdWIis6HOiA0uPHWBJOrAASdGkRAeWBjXoMnRgQdOTnBwdWMlQzeJCOrBgaaIDC5YaRWJ0YBl8wkEHlqIn4BWhA8tm36QDC6+vjcuIDqxxeKFfTQcWOkNj8qMDy868SQeWHS6lD9OBNWYkq30tHVi1ES8Xjw6sctg2qJkOrAagFw5JB1ZhgGtVTwdWLaTrxKEDqw7OlaLQgVUJ6NJh6MAqjXD1+unAqg55kYB0YBWBtVmldGA1g/5WYDqwbiE0p7+nA8vgEw46sObUBS/mSgeWzb5JB9bcuycdWHNn8Dh/OrAs8UkHlp15kw4sO1zKGEMHFvJISwcWMjvjcqMDaxxe4FfTgQVOkCI9OrAUoCEWoQMLkRV9TnRg6bEDLEkHFiApmpTowNKgBl2GDixoepKTowMrGapZXEgHFixNdGDBUqNIjA4sg0846MBS9AS8InRg2eybdGDh9bVxGdGBNQ4v9KvpwEJnaEx+dGDZmTfpwLLDpfRhOrDGjGS1r6UDqzbi5eKJA8vt3Ha7devNxm13GydPOxbO3oAiIMZNVbdYuMWic253WKSXA7lezUMH1nq7drvttg9uj8+OAla9hlUwEgUsm32TAlbBTlOlagpYVWCuFoQCVjWoKwSigGVn3qSAZYfL+ytgfeML0SjiLuoHMgdFrod7715U8uPmsC0Mr782qMa6EtqRiBsicqy3G7fZrP1/iwhi6RfvpnMLt1yuvPAh4sD+dw3veFEqJynYn/I4LHOu/KW2cUKSt3SeFbAssXlonUMBSwSQQ4fr7/cWrkNYLnFy2gcvQXnKUbzu3J+fizUcB/r/lr4pYuR2t3UiYMl/p6YzJ8ZlyOm6znXdyq2WSyeCpJ845C/O4BL+8oyWd4mDUzBS+tO1cTclzoUh1I+1m43biCDZ30TCMD0bOj1li4XruoVbLVeu65ZhEjsnLp/eeEp/vTW+XuvHpyhealvn0D6pN86bm37e3Oy2xh4TBBDktmVslbFW+IxzzMUGecrhOYwvLS9O59hLffzSmunW2Hylo8Wxdr1Zu81uY+5hyBDKZbdySz/OdufH15Q+dK3vXuo/w7WUZv2a1Pfj3LF1G3mIJ/1zu3XD5d5sBtMrie7XtNI3ZU3rHwCdrIGGPJ5ymtJXLuF9i4dr66prbeN0zpWZI76qLWugzRO/Bkq9lTnx7O9J5s3F0q06mTfloWzYm92cWK4Bcmmtk7K+GY7HQzAv9f3Tay6sfc+/Qjgntq7nGumQh+pxDdR7Cw4FL82LZ/pAkn5wqc9dGsvPcThmXu3XecKl359swv4kind22AxLAemLwzVQmFD6Bn5tvkxZ3KcMaJeuSSl7baw/kkEWLh5xsvjS179waZmGw+2gwd4VsFKQx7mV20NKbIRnBKy53MatPOnAuoXQrP7+fjiwgoxDB9asmuYV/SI4PkW4CmJkZ+PGTu/i4hlYcqGdudPb53sBSzbK/sGPMaerp/bOGVhTVoaITf6wHL0jYOGvVEcDKu12L2DtxWU7/TJunmSTfCRgWeub8VzXOwKWLS6vClijWz9ogX7Pf//OwOoNE8b65p0zsPwD9jHqNmg7PUkriHInAtY8Uh+V5dEZWH/wp/8Qf1kwELBERZUnVbtdfE1p1L3P4uLwhCM8qQoL8VmknZ5kz6eoqMG5I0+S04vP7Urv2un59Llbu9d+whd3x24rr4Rau8FDi4t9U55ynHWlzq1xXsjX983d1jsDzP4WIkgug6vOkJhzxNfgcGFxYR3mTUsbq3DHckciSMo/d54kW2nEnk8RPWQNtDE3lQSawvzhuYzzpt0pxUm/lLE2vFVg8xfcrkvvwPId1dqtxjXtVuZNcdRZ3p8IhUu3jPsTi3z2TTTuT6z3zfi2z/6NH0v9s2+f4ruShwU7t7U3/gymDeFS5s2jt7csTSv9Gkj65uKf/fHfn1lTDTNFPC9pZsknNKPTO7J3h4ftxmHm86+6JKAzp0vC3fV3tXcEWLvLuHWM/7b3ZCO2uSM+TSqRw94ld2tP5Djmsr9Fg6+jx/s8+HMilzY5vY9989ybFHOaH2/nGucSi3PmcCSKKyJ7a6C7HAuX5PN220e+YrjGs8rncP1jzeV62IEFJu/DOBv3JzbXP4fd13BstTnOht7Y60C//5Xfns1diqK46BZuuVj5f9vcYO38kzhRF8Vp5qyqxQt5VTKcWSIOiMOQijxxj8stbqoil979YPEpqx9LwrkI/qmc9b4pT1i9A2I2Q+fohrvvm/6JudVJX8ZZ+Sc+MTfKZ9f3TXkqtx9rxzUJ9KulhYan5Tt/bpvJcbZfpS76cTacDWW0b/YO0L1r0GjXFP7iGig8MbfJp6x9ZD0rY61/1cUonwtxmfWO+3AOn7VfuKP7sqa13zd3buddg33fNLumjW81Dfebtvqm32/6eTOcp3j4mJat+5QRSM4f9k773/vK5+cxxvoDylx/uPnK34BFi5x/niGTfTxAeXfnyO/5t8Zw2lx//kzg0uoZNP6MCxEj49cWRZS0tunY7cJrWHKwp5w/Iwd7GlyIy+TgX9+RCcIfBhnddfPvkqd3IP1RuJRDlC1y6Z87Dg72lI2yyZ983VU2ycsHbnX0sMDe3cZNlRyi7B8WWBtnQ6N13VI+IhEOxLa4BoqegPDhARGX5UMSxn5x6pCPSHQPguhhVFwW5uR4gbim9a9+WOubfpyVNZB8FOTB4fgPi822f8B+9CEJa3z2h9UPz+GzKC3HNa3n0h8xkHAY/9zadL8G8q8wW583/QO8/kMS3jBh75mItFGZK2U9u/jibBxYB9HjQdcf0jq3jnQr336EDIcHrsP7untF3M7wGSU5f4By/yUT/3U+Y+p/PDzQC1j+nIvAZ3wJ9lZzmMffx8PNRZAUR518maZ31BnbdcTD6uOHJCwfBCkL8fglVItnfd092DMKWHbG2SAEBAFLxlkvRlo8U9E7k/ovocribSsCVjjQ1NYvDKjDhbit+zu+m+G8GRx1lvgMXAana5gzRcSytgaKjAZnZPjaorg9/L2b4fPwSp3/qm13ELDM8Tn82uL6iUEu46x5/DGtw5rWzqI2roH8F6f7/abdNe3JvGnw3LZwuHl4eys8xIuv99qZN/fagZzCJ+tZClhAS8CLApadBniYHsKA4gUs78ayt3i7LGDZ4zNySAELaDyZkAoFrAngARWlgAVERpZU5Onj4UlylipBKzkWsECTVKd1vwUsO+JVbADhQUF4WGBdwAqvaq/NCliHBz/egeUPxfZnnph6Nf1UwPKv95p7UNBz6b84ffgSqsUPSdwHASvqB/LRJQpY6sVHoYIUsAoB26ZaClhtcC8V9T44sCJ2FLBKtaK69VLAqot3+WgUsMpjXCMCBawaKNeLQQGrHtblI8V5kwJWeaxLR/BcUsAqDXO1+oVPCljV4B4RiALWCLDwL6WAhc/RmAwpYI1BC/tavkKIzc/o7O7FK4Th+SMdWKNbB2ABCliApExIiQLWBPDgilLAgqNEnRAFLINv/NCBpe4P5QpSwCqHbYOaKWA1AL1gSApYBcGtXDUFrMqAlw5HAas0wtXr5yuE1SEvFvD0DCy+QlgM6rIV+zOw+AphWZDr1M5XCOvgXCsKXyGshbQqzn0+xN2egipNgGdgqToCXCFv6ezPMeMZWHD0qBLiK4Qq2OAK8RVCOEomJkQH1kQAQYrTgQVCRKY06MDKBCRENXRgQdCQJQk6sOzpB3yFMEvXyFwJHViZAW1bHR1YbfHPHZ0OrNyItquPDqx22BeJTAdWEVhbVkoHVkv088amAysvns1qowOrGfS5A9OBlRvRtvXRgdUW/xvR6cCCpmdEcvtPYfIrhCNQw72UDixbTzikpdGBhdvfxmRGB9YYtOZwLR1Yc2Dpdo50YN3GaE5X0IE1J7Zu5UoH1i2E5vP3dGDZ2p/wEHfUvkcHFiozqrzowFLBBluIDixYakYnRgfWaMiwC9CBhc2PIjs6sBSggRahAwuUmLFp0YE1FjHY6+nAgqVGlRgdWCrYahWiA6sW0qXj0IFlUBHnGVilu03V+unAqgp3sWB0YBWDtlHFdGA1Aj5zWDqwMgPauDo6sBoTkDU8HVhZ4WxaGR1YBveb/Aph0z51PjgdWICk6FOiA0uPHWJJOrAQWdHlRAeWDjfYUnRgwVKjTYwOLC1yeOXowMLjRJURHVgq2BAL0YGFyIo+Jzqw9NhVKEkHVgWQq4SgA8ugIk4HVpW+UysIHVi1kC4bhw6ssvjWr50OrPqYl4hIB1YJVNvVSQdWO+zzR6YDKz+mrWqkA8vgfpMOrFbd6UpcOrAASdGnRAeWHjvEknRgIbKiy4kOLB1usKXowIKlRpsYHVha5PDK0YGFx4kqIzqwVLAhFqIDC5EVfU50YOmxq1CSDqwKIFcJQQeWQUWcDqwqfadWEDqwaiFdNg4dWGXxrV87HVj1MS8RkQ6sEqi2q5MOrHbY549MB1Z+TFvVSAeWwf0mHVitutOVuHRgAZKiT4kOLD12iCXpwEJkRZcTHVg63GBL0YEFS402MTqwtMjhlaMDC48TVUZ0YKlgQyxEBxYiK/qc6MDSY1ehJB1YFUCuEoIOLIOKOB1YVfpOrSB0YNVCumwcOrDK4lu/djqw6mNeIiIdWCVQbVcnHVjtsM8fmQ6s/Ji2qpEOLIP7TTqwWnWnK3HpwAIkRZ8SHVh67BBL0oGFyIouJzqwdLjBlqIDC5YabWJ0YGmRwytHBxYeJ6qM6MBSwYZYiA4sRFb0OdGBpceuQkk6sCqAXCUEHVgGFXE6sKr0nVpB6MCqhXTZOHRglcW3fu10YNXHvEREOrBKoNquTjqw2mGfPzIdWPkxbVUjHVgG95t0YLXqTlfi0oEFSIo+JTqw9NghlqQDC5EVXU50YOlwgy1FBxYsNdrE6MDSIodXjg4sPE5UGdGBpYINsRAdWIis6HOiA0uPXYWSdGBVALlKCDqwDCridGBV6Tu1gtCBVQvpsnHowCqLb/3a6cCqj3mJiHRglUC1XZ10YLXDPn9kOrDyY9qqRjqwDO436cBq1Z2uxKUDC5AUfUp0YOmxQyxJBxYiK7qc6MDS4QZbig4sWGq0idGBpUUOrxwdWHicqDKiA0sFG2IhOrAQWdHnRAeWHrsKJenAqgBylRB0YBlUxOnAqtJ3agWhA6sW0mXj0IFVFt/6tdOBVR/zEhHpwCqBars66cBqh33+yHRg5ce0VY10YBncb9KB1ao7XYlLBxYgKfqU6MDSY4dYkg4sRFZ0OdGBpcMNthQdWLDUaBOjA0uLHF45OrDwOFFlRAeWCjbEQnRgIbKiz4kOLD12FUrSgVUB5Coh6MAyqIjTgVWl79QKQgdWLaTLxqEDqyy+9WunA6s+5iUi0oFVAtV2ddKB1Q77/JHpwMqPaasa6cAyuN+kA6tVd7oSlw4sQFL0KdGBpccOsSQdWIis6HKiA0uHG2wpOrBgqdEmRgeWFjm8cnRg4XGiyogOLBVsiIXowEJkRZ8THVh67CqUpAOrAshVQtCBZVARpwOrSt+pFYQOrFpIl41DB1ZZfOvXTgdWfcxLRKQDqwSq7eqkA6sd9vkj04GVH9NWNdKBZXC/SQdWq+50JS4dWICk6FOiA0uPHWJJOrAQWdHlRAeWDjfYUnRgwVKjTYwOLC1yeOXowMLjRJURHVgq2BAL0YGFyIo+Jzqw9NhVKEkHVgWQq4SgA8ugIk4HVpW+UysIHVi1kC4bhw6ssvjWr50OrPqYl4hIB1YJVNvVSQdWO+zzR6YDKz+mrWqkA8vgfpMOrFbd6UpcOrAASdGnRAeWHjvEknRgIbKiy4kOLB1usKXowIKlRpsYHVha5PDK0YGFx4kqIzqwVLAhFqIDC5EVfU50YOmxq1CSDqwKIFcJQQeWQUWcDqwqfadWEDqwaiFdNg4dWGXxrV87HVj1MS8RkQ6sEqi2q5MOrHbY549MB1Z+TFvVSAeWwf0mHVitutOVuHRgAZKiT4kOLD12iCXpwEJkRZcTHVg63GBL0YEFS402MTqwtMjhlaMDC48TVUZ0YKlgQyxEBxYiK/qc6MDSY1ehJB1YFUCuEoIOLIOKOB1YVfpOrSB0YNVCumwcOrDK4lu/djqw6mNeIiIdWCVQbVcnHVjtsM8fmQ6s/Ji2qpEOLIP7TTqwWnWnK3HpwAIkRZ8SHVh67BBL0oGFyIouJzqwdLjBlqIDC5YabWJ0YGmRwytHBxYeJ6qM6MBSwYZYiA4sRFb0OdGBpcfu/2/vTXhmSa4rsZuZ9b3v7a9fb1xapETOaKEoUoZ3S4ZhwAODGs14RvMPxRl7PPIfMAwYsIGBx4YMmU2pSYpDiTT3bvL129evMnNwIzKq8qtXVRkRlRFx875TRLOXF8vNc2I9eSIyQ044sDKAnKUKOLAUKuJwYGXpO7kqgQMrF9Jp64EDKy2++UuHAys/5ilqhAMrBarlyoQDqxz289cMB9b8mJYqEQ4shftNOLBKdacj9cKBJZCU+JDgwIrHTmJOOLAkshIXExxYcbiJzQUHllhqYgODAysWOXn54MCSx0lURHBgRcEmMRMcWBJZiY8JDqx47DLkhAMrA8hZqoADS6EiDgdWlr6TqxI4sHIhnbYeOLDS4pu/dDiw8mOeokY4sFKgWq5MOLDKYT9/zXBgzY9pqRLhwFK434QDq1R3OlIvHFgCSYkPCQ6seOwk5oQDSyIrcTHBgRWHm9hccGCJpSY2MDiwYpGTlw8OLHmcREUEB1YUbBIzwYElkZX4mODAiscuQ044sDKAnKUKOLAUKuJwYGXpO7kqgQMrF9Jp64EDKy2++UuHAys/5ilqhAMrBarlyoQDqxz289cMB9b8mJYqEQ4shftNOLBKdacj9cKBJZCU+JDgwIrHTmJOOLAkshIXExxYcbiJzQUHllhqYgODAysWOXn54MCSx0lURHBgRcEmMRMcWBJZiY8JDqx47DLkhAMrA8hZqoADS6EiDgdWlr6TqxI4sHIhnbYeOLDS4pu/dDiw8mOeokY4sFKgWq5MOLDKYT9/zXBgzY9pqRLhwFK434QDq1R3OlIvHFgCSYkPCQ6seOwk5oQDSyIrcTHBgRWHm9hccGCJpSY2MDiwYpGTlw8OLHmcREUEB1YUbBIzwYElkZX4mODAiscuQ044sDKAnKUKOLAUKuJwYGXpO7kqgQMrF9Jp64EDKy2++UuHAys/5ilqhAMrBarlyoQDqxz289cMB9b8mJYqEQ4shftNOLBKdacj9cKBJZCU+JDgwIrHTmJOOLAkshIXExxYcbiJzQUHllhqYgODAysWOXn54MCSx0lURHBgRcEmMRMcWBJZiY8JDqx47DLkhAMrA8hZqoADS6EiDgdWlr6TqxI4sHIhnbYeOLDS4pu/dDiw8mOeokY4sFKgWq5MOLDKYT9/zXBgzY9pqRLhwFK434QDq1R3OlIvHFgCSYkPCQ6seOwk5oQDSyIrcTHBgRWHm9hccGCJpSY2MDiwYpGTlw8OLHmcREUEB1YUbBIzwYElkZX4mODAiscuQ044sDKAnKUKOLAUKuJwYGXpO7kqgQMrF9Jp64EDKy2++UuHAys/5ilqhAMrBarlyoQDqxz289cMB9b8mJYqEQ4shftNOLBKdacj9cKBJZCU+JDgwIrHTmJOOLAkshIXExxYcbiJzQUHllhqYgODAysWOXn54MCSx0lURHBgRcEmMRMcWBJZiY8JDqx47DLkhAMrA8hZqoADS6EiDgdWlr6TqxI4sHIhnbYeOLDS4pu/dDiw8mOeokY4sFKgWq5MOLDKYT9/zXBgzY9pqRLhwFK434QDq1R3OlIvHFgCSYkPCQ6seOwk5oQDSyIrcTHBgRWHm9hccGCJpSY2MDiwYpGTlw8OLHmcREUEB1YUbBIzwYElkZX4mODAiscuQ044sDKAnKUKOLAUKuJwYGXpO7kqgQMrF9Jp64EDKy2++UuHAys/5ilqhAMrBarlynqlhZIAACAASURBVIQDqxz289cMB9b8mJYqEQ4shftNOLBKdacj9cKBJZCU+JDgwIrHTmJOOLAkshIXExxYcbiJzQUHllhqYgODAysWOXn54MCSx0lURHBgRcEmMRMcWBJZiY8JDqx47BLntG+ryLg8GjqrV8RkqftBwFJFKQQsVXSaMafrOlp3LbXtmoiGcYn0jUVwYOlou3Bg6eBx+xQ7DiweetwwpOxRIWDpIfRNELDM/qSqaFWfUV3XZr3Q98o65/BMXd/Ren1B/HezNVO2BnrNgVXzQFsRKeJzV8Bqu3Z4Pl3rWTiw9PFZbx1Y31jECMtB8iDZ1A2tmkHA2seLTXj8N05zLH3s/nQqhnG5o3/m5+N/7fuOeDDhTbK6CXBYb5vpgLmsV2bS5wnfHS00IDgOQ/95jjVfLO87dRs++57GC3H+96nmOccj5CyD5/S65sXb0DdrfnJuy6Oh5ZR+NtWf9j3sbh+LHStGZfMzsYDl+mY3PJ82Ps1IywvxZmXGW/ey4BKfu5iHcuTbHvb1xdC69rQP1zfNQrxdG07tQlzXj/sm89c0K1o1DdUVj7P82+mb7uFnGvu8UPTh0XOu3vZNFpgvzLirjssBVH6JZ/pmVYc1WB+8x03jEIDjFeNuGp/2s8vpeIwdXkxyEjvOttSZvrmIZapXsx9DbF4UDIJHM14DeZc0SngqL4fm0ZCOtNPG3JrWzZvMJf+ztvfP9rEHAasZCVintNu5+qtrcFM8etRnxtm+N8IVC1i8V7FzTEyDlZvHQGH65ooaM2/uWdP6roE857C9aOxycqyPuwJ80gztledJ/mvd2TWQynlzWAPxHpPXQTxvGvHOp2/um3Z82rpHX5ps/bt7GJdhXP8ozXi/uW6Hvql0TetesFff/PBPlrMyqMgKWM6BpfTtI3csI3ooFbDcYpQX4jxBmMlB2ww4Gp2cgNX3doII23VMDnMCEtj7H8wEYfisBcSUIAR+Adf11PZOXE5Qh5AiLzmwhMQ0axjmZeqweGvXZlOl82f7plmIj8RIjc+6fVlgBSx946xlzS3E3aZKI5f8TJsXP4O4rPE5ednjBCx+CeSzp1oiDmMHFose+vqmHW+YQ+fAWiJPPjFv582tA0sjn3ZNa+dNHmu1/qyA1VLbrUcOM03P6/qmFbB4f6Lp6TbtcjAI2lMiwxpoOepOQPfiNa3da1b/8tt/uohHNA2uItv42J5rHldlMxzeavBbDqaG33Doe06eDypiLs3/63uFs3kb0jODRvjgf+IF6iI6XMBwUlX2idiBxZO+FSP1tVnHHPfL3ryt0selGVUrdq/Udqw1HVUjl/ykVsAyb5TVCliWPu6bZhGulkvrXLZ8ct/U2WYthdw3NY+zl/umc3kETEmLSer6pp03Na9prWvHilc87urqn44648Iajg/qXAOZIyLGvdLxmpY5XUxv8w/U8mkddbZvKn0pa/qinTvNftNwq+9n1rRmPWvXtSp/wwt2uwYyu06dGxTzEs/2yepff/TPFtFe3XRnNo/DxkNjI3TPeXlBo2uyH/PmNh2LaIQRDW4svKpd0Bhc7EKGhTq7/dD32y5SrbCj1AA6sGcXNlZE1/kzMqt6IcCJAWbbqPJIumud9qWIEwKULlKH0dWJOnp757ZvartfZ3c0NRuO4eWWzpHWPpXZdNh/UveYboVu1kDD5lHr1PlmzZt2v6lVC3BCnZ039e4zeX9idilGo1M8aw5rIOsY1MynFVqrv/juny2KTXMvwnCOXt0sOCxOrT2Oj9dt75/R9qx2ou/tHRebo3X6ntLYkFn156N1G+egtue0XLLqb/m0b1k1DqDuri/NfdNO9HzXF9+LYF2DGn88vW+Ovdb6NlWOM/u23N7dptdp1g/jbGPuLNEsemzHWesC1fhzrge+t82+LNC5GLfHXu0aiB0tWn9m3uQrBiqlH2AaiNuMsxu3mbZ2ay+8aio7zqp1s1ifoFnP2ruhNB57HYTlYb9Zm3lT7681+xO910VsPzwwumZJKZ3uSHr1v3zvXyxm1tyc1eVGOHz9QhU/w70d4/tntg4BVU86uHWGC5RZwOLFm7bRc7jd0oiRw9lrrWfpeeHmLsS2m2SFN3uaY5K8ED8bLsTW1mDtGLO92HP0IQmFj2oFrOFC7LrRNcCOnsZtknnxZgTJjFx2L1ta33tF1ZWKmltnVJ/V3Inmx7rnr/PZexE2H3mZvxYRJbrLzVlgXsziLRA5biHbC5SHo8yBZSwhuVnTDh+R0LmmtaeWzUvZ4QJl7qcaf+4lHvPJl9Ubp4dCV4t9KWvnTeuqSzCeF24gzq3s7iJW2TeHV8zcN90He8xtLhr5dB8e2PRNfe/XebxhQdncE75SfBexe8HetgtyYA3nddwn7N3Za12dzS5H1V+6y5P6cPeM2VQNDixdXNo3OPwbC1jGpqvstTk/kxOweFO1dXloWthYNp2bzjoDhlWWwl2kecNh3j6uRwdC9fC5/bQyL8QVv0l2nz0fvmq7XYin55JfSlx88oIef/hraq6t6OoXb9LZe9eovtpQ1bxe/3A7jr0TMXB9yXy6xRtvlDWOsw4U4/Lgvtlr/Oz5djAdC1iF97PJqt84sLh/Di9lda2D3Jr2soCl7hjPsKzjfQl/AYz7qPWgpx9nkzXO1woeju2MBazhCL5KPvmDPca5vDVMaOLTroGsuGzFyOFFgbL1rPni4CUBS+cJEbMGMnfwDV+DVyieO33EudCXc4TwNQFLWS+z3oc3S8AyX0vYHiHUNDlYNncFrOEySAhY+dZcM9bkNsl8HBQC1ozAFijK2a3tm2QIWLNT0BOtn67pxd8/ogf/18+pe7amqx/cpBtff4fOf+MmrW6dXaqSl5TPeRNPPZ0zJ3xMJSCoN1fACgBpEUnfbAFL2xpou6aFgLWI7jcR5KV501yLYe9OUidguStOIGAtvtm+JmDxiwKFXymGgCW5qULAksxOWGzOgQUBKww3oanfDAeWFSThwBLaCAPDgoCV1hnA7qv1p6/o6d/epwf/9md08evndOUz1+mtP/o8Xf/du1S9fUZPupae950Rrl70HT3tWrpWN/SFs6t0k49dB7gXIGAFdgCxySFgiaUmKjA4sKJgE5oJAlbaeTMn7W+sAwsCVs5mNntdZr853LcMB9bs8J5SIBxYp6AnLS8cWHome25bELD08AkBKy2X7vjg0+9+Sg//71/Sxf0XdPbZ63Trv/48Nf/gFj27XdPP1y/pV+tXdL97RQ/btblf7rfOrtF/cu0tusv35UDAen1Kq8heyL85Qiht1js1HghYpyIoKz8ELFl8nBYNBKy08+Zp7ITlhoClh8vN/gRHCMM6QbbUcGBlgzp5RXBgJYc4ZwVwYOVEO09db8QdWJu7PHCEcO5W1bc9vfzJE3r81/foybd/Re2TC6q/cJO6/+6z9IvP1PTj6iXdW18Y19XL4QtPv3d+g75+9Tb95tlVus5f4A0ICg6sALBEJ4WAJZqe4OAgYAVDJjgDBKyQWUkwkcML2TfyDiw4sGQ3zIno4MASSx8cWGKpiQgMDiw9k/3mDUdVE+7AiugMwrLAgZW2b/brnp7/4CE9/tav6Nn3HxB/L+/5l6/TT//4Dv3wTkc/W7+g5+wkIqKrVU0frM7pP7/2Fv3+1ZvBxwfHfdN9MOPNucRdWMc6ORwIWCdDKKoACFii6DgxGAhYaefNE+kJyg4Hlh4uN2sgOLCC+kC+xHBg5cM6dU1wYKVGOGv5cGBlhTtLZXBgZYE5fSWFvkLYrzt68p0H9PivPqHnP35Ez2439PFvX6VvfWVFH9/o6aIfvupJRJ9tzulrV2/R185v0QdXzjdfIQwBBw6sELQkp4WAJZmd8NggYIVjJjcHBCw9ogcELD1cQsCSO2bayCBgSWfIPz4IWP5YLSAlBKwFkBQYIgSsQMCkJi8lYF109PjDe/ToLz+m5588pZ99sKK//8o5/d1v1PT43C4cayK6Va/od65coz++/g59fnVOV2v+r+E/CFjhmMnMAQFLJi+xUUHAikVOYj4IWHpEDwhYeriEgCVxtBzHBAFLOkP+8UHA8sdqASkhYC2ApMAQIWAFAiY1+dwCVk9UX/R09vSCzh6vafV8TatnLTUv2+HT1BaIru3pFz99RD//0SN6+uIV/e1Xzumjr1+h+7dretXYY4PvN1foC2fn9A+v3KDfO79JN+omGkUIWNHQCcsIAUsYISeGAwHrRABFZYeApUf0gIClh0sIWKKGyT3BQMCSzpB/fBCw/LFaQEoIWAsgKTBECFiBgElNPpOAVXVE9auOVs9buvLoFV375AVd//g5nd97Qef3n9PZkwuquq34sCai71209N22pUfXK/reH16l73/1CrFEdUY13Tm7Qr918yZ96doN+tyVq3Stbsyfxf4gYMUiJy0fBCxpjJwWDwSs0/CTlRsClh7RAwKWHi4hYMkaJ1+PBgKWdIb844OA5Y/VAlJCwFoASYEhQsAKBExq8hkELBavmhct3fjFc7r9w8d04yeP6fzBK+O6ql+uqX61pnrdXUKABayP+p6+daWiT95v6NdfOqOLdxv63NOKPktndPf2Dbryxbfo/O5VOjs/MzcEnLKchIAltQGGxgUBKxQx2ekhYMnmJyw6CFinzFJhWKdODQFLD5cQsFL3llPLh4B1KoJy8kPAksPFDJFAwJoBRGFFQMASRkhsOCcKWM2Ljs7vv6KbP3lCt37yhG78/Cmd/+oZNS9Zotr/66inZ9TTd3uiH6wqqu80dPbWiq6fV/TO857uUkPXb1yj9nO36Nlv3KRnn71Kr26dUb+KX1BCwIptINLyQcCSxshp8UDAOg0/WbkhYMXPUbKYJIKApYdLCFjSetduPBCwpDPkHx8ELH+sFpASAtYCSAoMEQJWIGBSk8cKWD1R86ozRwVv//1jevs7n9LVT55S/aqluu149Xvwt6aeHvVEP6Se7lVEX6xreq8mul5VVHO5nLOpqb1xTk9+8zbd/5079PhLt+jVrVW0iAUBS2oDDI0LAlYoYrLTQ8CSzU9YdBCw9IgeELD0cAkBK2wcy58aAlZ+zFPVCAErFbJFyoWAVQT2pJVCwEoKb77CIwWs5mVH1375gu5+7yHd/d49c9dVfcH3XE2HzkleUE+/pp5eUE2f7Xu6UVWX77iqeurqhtrrZ/T0g1v06z98x4hYL986izpLCAFrmpdlpICAtQyefKOEgOWL1BLSQcDSI3pAwNLDJQQs6aMnBCzpDPnHBwHLH6sFpISAtQCSAkOEgBUImNTkEQIWHxu89qsX9PZ3HtCd79+n6798QtXOHVdTj9sa8aqidU90oyJaHcmwvnlOj778Fn361bv06Mu36OLGivrAG90hYE0xspQ/h4C1FKb84oSA5YfTMlJBwNIjekDA0sMlBCzp4ycELOkM+ccHAcsfqwWkhIC1AJICQ4SAFQiY1OSBAhY7rPjY4Ft/+5De/dav6NrHT6niI4MRP9668l/1VN6qovX1M7r/e2/T/T94hx795g1aX18RVUfOKe6UCQFrCuSl/DkErKUw5RcnBCw/nJaRCgKWHtEDApYeLiFgSR8/IWBJZ8g/PghY/lgtICUErAWQFBgiBKxAwKQmDxCwzNcGn7d093sP6P2//ISu//wpNS8vsjxZX9f06s45Pfrtu/TL/+I9ev7+Nequ+C8wIWBloSlDJRCwMoCcsQoIWBnBTl4VBCz/OSk5GSdWAAFLD5cQsE7sDMmzQ8BKDnG2CiBgZYM6R0UQsHKgnLcOCFh58U5WW4CAxfde3fzpM3rn2/fo7t/8mlbPXnndeTVL7BVRX1f07HO36Ff/6fv04Hfu0It3rngXDQHLGyrhCSFgCScoMDwIWIGAiU4OAUuP6AEBSw+XELBED5tkL3btidZdS227pr73P14g/dG28bnJvqKmXlFTN8TigLofBCxVlELAUkWneRgIWEo49RWw+orOH76i9/7q13T3o/t07eMnVF+02UG4uHVOj7/8Fn3yn71HD//BLeonzx/aECFgZacqUYUQsBIBW6hYCFiFgE9SLQQsPfsxCFh6uISAlWS4m7FQCFgzglm4KAhYhQmYt3oIWPPiKaE0CFgSWJghBk8Bq77o6fovntMH/8fP6fYP7lPzam0vsMr865uKXr59nX75x5+je197m9bXGy8RCwJWZqKSVQcBKxm0RQqGgFUE9kSVQsDSI3pAwNLDJQSsRAPebMVCwJoNyuIFQcAqTsGcAUDAmhNNGWVBwJLBw8lReApY5w8u6M4PHtNn/t0v6cZPH55c7SkFtNfO6N5/9D79+g/foaefv0bt+bQNCwLWKYhLygsBSxIbp8cCAet0DOWUAAFLj+gBAUsPlxCw5IyR+yOBgCWdIf/4IGD5Y7WAlBCwFkBSYIgQsAIBk5rcU8C68bPn9O637tHbH31K5/eeFn2a7kpDT75wmz792rt072tv0cXN1WQ8ELAmIVpIAghYCyHKM0wIWJ5ALSIZBCw9ogcELD1cQsCSPnxCwJLOkH98ELD8sVpASghYCyApMEQIWIGASU3uKWDd+bsn9Jl/9zHd+uEDOnvyqujT9E1NL+9epft/8A794o8+Q6/unE3GAwFrEqKFJICAtRCiPMOEgOUJ1CKSQcDSI3pAwNLDJQQs6cMnBCzpDPnHBwHLH6sFpISAtQCSAkOEgBUImNTkngLW2x89pA/+95/QtU+eUn3RFX2avqqoO2/o/u+/Sz/57z+gl3env0YIAasoZTNWDgFrRjAFFAUBSwAJs4UAAUuP6AEBSw+XELBmG+ISFQQBKxGwBYqFgFUA9HRVQsBKh22pkiFglUJ+5no9Bax3/+pT+uL/+v/TlYcvZg4gvrgHv/8e/eiffIFevHM+WQgErEmIFpIAAtZCiPIMEwKWJ1CLSAYBS4/oAQFLD5cQsKQPnxCwpDPkHx8ELH+sFpASAtYCSAoMEQJWIGBSky9ZwPrKe/SjP/0CvXj3nGhirQkBS2oDDI0LAlYoYrLTQ8CSzU9YdBCw9IgeELD0cAkBK2wcy58aAlZ+zFPVCAErFbJFyoWAVQT2pJVCwEoKb77CFyxgPfqHb9NP/9Fv0JMPrlF35fiXCCFg5WtSaWuCgJUW39ylQ8DKjXjK+iBg6RE9IGDp4RICVspRb46yIWDNgaKMMiBgyeBhpiggYM0EpKBiIGAJIuOUUBYsYD3+8l362X/7AT3+4g1qr0HAMs2gIuq6jtq2pbZvibZ6zymtRFBeCFiCyJghFAhYM4AopggIWHpEDwhYeriEgCVmiDwQCAQs6Qz5xwcByx+rBaSEgLUAkgJDhIAVCJjU5AsWsB7+7rv2COF759TXxxebcGBJbYChcUHACkVMdnoIWLL5CYsOApYe0QMClh4uIWCFjWP5U0PAyo95qhohYKVCtki5ELCKwJ60UghYSeHNV/iCBawHfAfWP8Ul7pcaCxxY+fpOhpr6vqe2a6nr2FHXUTV12VuGmOatAgLWvHiWLQ0Clh7RAwKWHi4hYJUdF6drh4A1jdFSUkDAWgpTXnFCwPKCaVGJIGAtiq7DwXoKWO98+z79xv/2Y7p67zlVXeFzaSzSNA09+P136Md/8gV68faVSTLgwJqEaCEJ4MBaCFGeYULA8gRqEckgYOkRPSBg6eESApb04RMClnSG/OODgOWP1QJSQsBaAEmBIULACgRManJPAeut7z+mz/3bX9CNHz+i1fOLok/DxwUvbp/T/a++Sz/7bz5Lr946m4wHAtYkRAtJAAFrIUR5hgkByxOoRSSDgKVH9ICApYdLCFjSh08IWNIZ8o8PApY/VgtICQFrASQFhggBKxAwqck9BaxbP3pK7//lr+jOv79PVx6+KPo03VlDzz93kz79g3fok//4Hbq4tZqMBwLWJEQLSQABayFEeYYJAcsTqEUkg4ClR/SAgKWHSwhY0odPCFjSGfKPDwKWP1YLSAkBawEkBYYIASsQMKnJPQWs65+8pLvfuU/v/tWv6NrHT4o+TXt1RQ++8g7d+/q79OhLN2h9rZmMBwLWJEQLSQABayFEeYYJAcsTqEUkg4ClR/SAgKWHSwhY0odPCFjSGfKPDwKWP1YLSAkBawEkBYYIASsQMKnJPQWs5nlHt376lD7/f/6cbv39A6rarswTVRW9unNOH/9Xn6Nff/1tenXnjPpmeqEJAasMXfPXCgFrfkxLlggBqyT6c9cNAWt6Lpob81TlQcDSwyUErFS9ZK5yIWDNhWT5ciBgledgxgggYM0IppCiIGAJIeLUMDwFrKojOv/0FX32//mY3vrOfTq//7yIiLW+dkZPv3CbPv4vP0MPfvc2dSxeeawzIWCd2lCk5IeAJYWJeeKAgDUPjjJKgYDlMRnJoGoyCghYeriEgDXZ3AsngIBVmIAZq4eANSOY5YuCgFWeg7kjgIA1N6KFyvMUsDi61bOW3vrBY3rnr+/RrX9/n1YvXhH1+RZ5fHn7y3ev070/fI8+/epdevq5q96gQcDyhkp4QghYwgkKDA8CViBgopNDwMo3H6ZuCBCw9HAJASt1bzm1fAhYpyIoJz8ELDlczBAJBKwZQBRWBAQsYYTEhhMgYFVtT1ceXtA7H92n9/7fT+j83nOqL9rYmoPysXjVXj2jx1+6Q7/8o8/Q0w/47qvauwwIWN5QCU8IAUs4QYHhQcAKBEx0cghYekQPCFh6uISAJXrYJHuMoCdady217Zr6frvQkR66f3xusq+oqVfU1A2xOKDuBwFLFaUQsFTRaR4GApYSTgMELJ5fWcS6+dNn9Pbf3Ke3P7pH558+ywIEf3nw6Rfv0Kd/8DZ9+pW37N1X/voVQcDKQlOGSiBgZQA5YxUQsDKCnbwqCFh69mMQsPRwCQEr+dB3YgUQsE4EUFB2CFiCyDg9FAhYp2MorQQIWNIYiYwnRMAaqlg9benmT5/Su//fp3T7Rw/o7OELqrp0L4za8xU9/8wNuv/Vt+n+79yhF++dU3cWoF6Zd1s91VVtXvo0zcq++NH4kqsi6rqO2raltm/NSz1dPwhYGvmsuG82K2qqmuq61vcCehhu+r6jdXth+ii35MrnAr8FEQ4BS4/oAQFLD5cQsKQPohCwpDPkHx8ELH+sFpASAtYCSAoMEQJWIGBSk0cIWHyh++rpmm79+Cnd/e59uvP9+3T25BVVXTerYMLHBvuzhp6/f4Pufe0devjbt+n5e1epW/ld3D6GHAKW1AYYGhcErFDEZKeHA0s2P2HRQcDSI3pAwNLDJQSssHEsf2oIWPkxT1UjBKxUyBYpFwJWEdiTVgoBKym8+QqPELA4uKrlS93XdOsnLGI9oNt/95CuPBy+TDiD68fceXW+omcf3KIHv/0WPWTn1TtXqD0Pc145ICFg5WtSaWuCgJUW39ylQ8DKjXjK+iBg6RE9IGDp4RICVspRb46yIWDNgaKMMiBgyeBhpiggYM0EpKBiIGAJIuOUUCIFLFfllUdruvGzZ3TnB4/oxi+e0JVPX9CVxy+pWndxUVUVra+d0cWdc3r+3jV69KXb9Oi3btKLd8+puxInXm0WbzhCGMeJqFwQsETRcXIwELBOhlBQARCw9IgeELD0cAkBS9AguTcUCFjSGfKPDwKWP1YLSAkBawEkBYYIASsQMKnJTxSw+Dhh87Kls0cXdPNnz+j2Dx/TjZ8+prPHr6i+6Khat+Z+rIN3ZPHdMHznTVNRt6qpvbqiF+9fpydfvEWPfusWPX/3nNbXV1HHBseQw4EltQGGxgUBKxQx2ekhYMnmJyw6CFh6RA8IWHq4hIAVNo7lTw0BKz/mqWqEgJUK2SLlQsAqAnvSSiFgJYU3X+EnClgm0L4yXyc8e7am8wev6PzTl3T9l8/o+i+e0fn9F3T2+CWtnq/3XprOotX65hV6xY6rd6/Tsw+u0/N3r9Gru1fo5e0z47oK+drgIeAgYOVrUmlrgoCVFt/cpUPAyo14yvogYOkRPSBg6eESAlbKUW+OsiFgzYGijDIgYMngYaYoIGDNBKSgYiBgCSLjlFDmELBG9TtH1tV7r+jaJ8/pysOXdOXxmpoX/EW8nppXrRG72vOGzCXtq4oubpzRxe0r9OLtc3r2/jW6uLWi7mzexSMErFMaiaS8ELAksXF6LBCwTsdQTgkQsOadt0oyCwFLD5cQsEr2JJ+6IWD5oLSMNBCwlsGTZ5QQsDyBWlAyCFgLIutYqDMLWKaqnqhe91S3nRGrqCOq+t7897Mna2pedvTqztlGpDJCFv9ljhHaf5776/IQsJS0V25Ew6+pV9Q0DdVV/N1o0lHp+57arqWua6ntO6rm7hjFAYCAVZyCGQOAgKVH9ICApYdLCFgzDnJJioKAlQTWIoVCwCoCe6pKIWClQrZcuRCwymE/a80pBKwjAdYXVtDqz/juq3wLRAhYs7aagoVBwCoIfoKqIWAlALVYkRCw8s1pqUmGgKWHSwhYqXvLqeVDwDoVQTn5IWDJ4WKGSCBgzQCisCIgYAkjJDaczAJWbJin5oOAdSqCUvJDwJLCxDxxQMCaB0cZpUDA0iN6QMDSwyUELBnj4+EoIGBJZ8g/PghY/lgtICUErAWQFBgiBKxAwKQmh4AllZm4uCqiruuobfnIGd87FleM3FwQsORyExMZBKwY1KTmgYClR/SAgKWHSwhYUkdMFxcELOkM+ccHAcsfqwWkhIC1AJICQ4SAFQiY1OQQsKQyExcXBKw43ITmwh1YQokJDauyH2Ht+47W7YURmVm603anGQQsPaIHBCw9XELACh2wc6Z37awnWvNll+3aTBT2p6kRurdVFZkLTOuGWBxQ9xueiSf5dbumrm+JF3IaJ3vmjnlsmhXVVUUVX0jLKx1Fv7GAxXxq7ZvMGl8oXNcrWjXcNwcSNdE5vCh4IwQsqqiuG8Ol2ouiIWApGmntcmfjwOpaspsQTWuEAw6s4aWXLjLZQNcbh0KHNgAAIABJREFUN932Eneta9rarIEaM3/WZr2n6reZN4c1rembELAWyfEwnBpxue2o7XiPYvebmsbagwKWVUPU/Hh/wlwyh3a/yZd02t6p58ds2vbJ+81Vs9KpHfAzVpXhkOfN6i++92fTTfUY1y53jrbQk/liy+VNsqYmaJ+lJp7sm62ANcbWB++50pwK7b44TFuyr6vsJnltjkL0XX9pPMnRnE59vKn8PEZyZ+MFmxtQjIB1bHbw4W5fxSnG490yD9ZRUd91wwTRGkFS2zLczOn89bV6V8AaXr1KbLAhbWnMLd/DbfpmaxZvdmpUNt2bvsmCZEOr1coIWXYPMoCWe84bcxXC29FBaLMSN/OmHWvdQvz46DVbCFOD5Ax/7mJlEXK8eLP/fXp5cymEfWOea/yHQMkElts8uRc/zKnbhMwAo3cRoY87ZmBqmByXfekrhBLfFoQCcQlhiwS/7NkIWB1/zlPZODs8M/dNXgPx36t6Zw2UYu0y7vpTjc6lPSmdW9PyJtkKkualrE+Z3j2vfEKzpq0rO2/WPG9yg/VcA4XMqaF9yyd9yEBk+iZ/IZT7p30pa9fz6TnYnbFSVen2J7xH4b7Jc2exhZ7vGLCzTt2wcRSkcd9cD+5IfvGj47dpL8N+c2yYsA32wBrIp8+EQuTLY0i5r5XJguQgYP2b73oIWCGVJUrrNhfu7eNGEdfSCocNslkrV1ZFdQ6swCV4IgbmK9ZRZrjseUDpt2/klCzgxi8Ym6amprKKuHkbMB+UIkoyfdO94eCFGy/Eh02flu7p+LSCJPfNeuPa0can3Vi5z7vz4m2gUwuZw1jLj1PtOLC0cenmTbsQ502V3SQP3fPg+JFibZNqsDKxsrg8uDvGzmVNfF6aNzt+UcCbqvyb5NC2EbJvHKcdr4F0yTrbp+EXBSx2mL+GgTbHJjlVXxyX6/ol/zcWOngNxC+ANK+BuD/yKRHm0/3U8DlaB1RGwGoMn8Pwm6NJZavDrWnNvMkv8TL3zdAxNgaY7bqOxWXrQtfaNxkf59rZ3B2pZa856oDcbs3+ZHBgHZGvYpqMiDz8TMwl6wfVv/7ony5kjefeWNlw7eR42bUjAt1TgjAPZXuVETsulbUQmryef/tkbtGmjkvXSIfVy2U+NXG53QrzU5mJ3q1cFQkem0Fn6JeXj/Zq4pPfVhH1w8zXE9uth06tiU/zVocF5fGxAE08brZPls/BXVZC8PCaEk5N5Ph0xzxMW9XM5+AV1LYGGrFW84EI4+5w9k9NfG4HU7c5Nn/XNMaOu6AZZ5lRjVzuWQNp3J/srGn5SoztT2vfHNa0bgGoqX8Oc6ZtvXYtpJ5P9izbjYrOsVb9/mQYa82atqfqX/31P17IyGN7lzuSpeks8mtr9+EITz/cDWUf/NQVvqD8G6HOHq97XawTFOuJoTih1VzqaUdOXVwOixrTHwdXkpY3joeot2/LnWVSGZ8bsYqPY9m+qfnnnIPbe9uUPe0w1tpxlv9S9nzjJfdwiTI7QI28o/FZzTEBewzr8gZSH6/8cstw6e471cTn6KUAH8cyd/Bper49zZHXQOaF5cgFqqbV7qxp35S+yUKAurF24zSzd9aqnzfZ0eLGWY0vn4ejdbz4cS4zNePOngfh+XK731SmHWxEdHsCpvrmh99YlIBljmPx2Wtzl5DOn73Y01lX3WX1+p7VHN8ZbMiaBUm+d6bbfPZ8Id0tsLkZYblyl5vrXYkb62rP9wnxcSw3mgaCJT45C8v2QxLubijxIUcGuLnYc3TkI7Iowdkqe4EyHxNQvEt2x7HMnSUq3Ve2idkjzMNxLMGt7tTQeN404+xw19ep5UnMb6+LUPzBngH0Td80d0NpXdMOHwUZHa2T2ObmiMnMm2v7ASatP9c3ebzVLEi6Y688b+p0LdsWur0bSrd2wC/Y+Rjz5ioXhR3U9c3qz5ciYLkLsZuGzurtfULauLHGDrtwc2evdUoediHuLoLUKkgaMXK4f8Z9bVFbmzWbquHthvnaIrs9lG6UzQXKmy+h6nR5mLuhhkt31X4JdXxvG3+ZZvhqlMa+aS5p5U2y5q8tDm+Reazlz9hrFbDGd1zwF920OiQ3Fyib+4RYkNT5s33zzN6pONwnpO1JuS+6j4Iwl5trIzQ9qNufmAuxzzYnCzQ94uZ13XDf6cX6YvN1Pm3Pyc+zEZfd/VAKH5LHWStgrYeXsnrXtO5uqDdh3uQ1kP3aok4HFu83eT1bffPDP1nI2sB+AoIboROw1I0ng3HFLt5GA4oyMcBtLjYC1vClPm2fVnafb7UXQdqv85k7aBTyaQSsenBHuoX4QkYW33HEfL51JGDpvBxqcHmYCWL4Mo0z1Cni87VPK28cWLrcg+aegJGAtblTyLfRLyXd0Ddt/7xQOc5aKvrNJa28ENf8G8+b+hQsO5jyiwLnpmMRS9sayLVPI2BtLqvv1K2B3E6RncssSG4uqx9/zUdDZ+WPEBkXek/rkYClcU07dkcaB5b72qIGHgeBbixguS9n2sfTsw6yX+od9ie8pnXHtRWtZ53gap2uw0s8d2WNIi7tCqg3JwkgYEkbiCBgSWPkpHggYJ0En7jMELDEURIdEASsaOhkZoSAJZOXE6KCgHUCeMKyvgkClvvKNAQsYY0vIhz34scd732zBCw94pUTPCBgRXQCoVkgYAklxgmlcGBJJSgsLghYYXhJTw0BSzpD/vFBwPLHahEpIWAtgqaQICFghaAlOy0ELNn8eEcHB5Y3VNITujWQO0K4dWBBwJLO3b74zP4EDiyp1OEIoVRmQuPCEUJ9EwSOEIb2Atnp7RlzHCGUzdJ0dDhCOI3RslLgCOGy+DoULY4Q6uDRPYU9qu3uNMMRwmWzCwfWsvkbR48jhAr3mzhCKLCD4gihQFLiQ4IDKx47iTnhwJLISlxMcGDF4SY2FxxYYqmJDQwOrFjk5OWDA0seJ1ERwYEVBZvETHBgSWQlPiY4sOKxy5ATDqwMIGepAg4shYo4LnHP0ndyVQIHVi6k09YDB1ZafPOXDgdWfsxT1AgHVgpUy5UJB1Y57OevGQ6s+TEtVSIcWAr3m3BglepOR+qFA0sgKfEhwYEVj53EnHBgSWQlLiY4sOJwE5sLDiyx1MQGBgdWLHLy8sGBJY+TqIjgwIqCTWImOLAkshIfExxY8dhlyAkHVgaQs1QBB5ZCRRwOrCx9J1clcGDlQjptPXBgpcU3f+lwYOXHPEWNcGClQLVcmXBglcN+/prhwJof01IlwoGlcL8JB1ap7nSkXjiwBJISHxIcWPHYScwJB5ZEVuJiggMrDjexueDAEktNbGBwYMUiJy8fHFjyOImKCA6sKNgkZoIDSyIr8THBgRWPXYaccGBlADlLFXBgKVTE4cDK0ndyVQIHVi6k09YDB1ZafPOXDgdWfsxT1AgHVgpUy5UJB1Y57OevGQ6s+TEtVSIcWAr3m3BglepOR+qFA0sgKfEhwYEVj53EnHBgSWQlLiY4sOJwE5sLDiyx1MQGBgdWLHLy8sGBJY+TqIjgwIqCTWImOLAkshIfExxY8dhlyAkHVgaQs1QBB5ZCRRwOrCx9J1clcGDlQjptPXBgpcU3f+lwYOXHPEWNcGClQLVcmXBglcN+/prhwJof01IlwoGlcL8JB1ap7nSkXjiwBJISHxIcWPHYScwJB5ZEVuJiggMrDjexueDAEktNbGBwYMUiJy8fHFjyOImKCA6sKNgkZoIDSyIr8THBgRWPXYaccGBlADlLFXBgKVTE4cDK0ndyVQIHVi6k09YDB1ZafPOXDgdWfsxT1AgHVgpUy5UJB1Y57OevGQ6s+TEtVSIcWAr3m3BglepOR+qFA0sgKfEhwYEVj53EnHBgSWQlLiY4sOJwE5sLDiyx1MQGBgdWLHLy8sGBJY+TqIjgwIqCTWImOLAkshIfExxY8dhlyAkHVgaQs1QBB5ZCRRwOrCx9J1clcGDlQjptPXBgpcU3f+lwYOXHPEWNcGClQLVcmXBglcN+/prhwJof01IlwoGlcL8JB1ap7nSkXjiwBJISHxIcWPHYScwJB5ZEVuJiggMrDjexueDAEktNbGBwYMUiJy8fHFjyOImKCA6sKNgkZoIDSyIr8THBgRWPXYaccGBlADlLFXBgKVTE4cDK0ndyVQIHVi6k09YDB1ZafPOXDgdWfsxT1AgHVgpUy5UJB1Y57OevGQ6s+TEtVSIcWAr3m3BglepOR+qFA0sgKfEhwYEVj53EnHBgSWQlLiY4sOJwE5sLDiyx1MQGBgdWLHLy8sGBJY+TqIjgwIqCTWImOLAkshIfExxY8dhlyAkHVgaQs1QBB5ZCRRwOrCx9J1clcGDlQjptPXBgpcU3f+lwYOXHPEWNcGClQLVcmXBglcN+/prhwJof01IlwoGlcL8JB1ap7nSkXjiwBJISHxIcWPHYScwJB5ZEVuJiggMrDjexueDAEktNbGBwYMUiJy8fHFjyOImKCA6sKNgkZoIDSyIr8THBgRWPXYaccGBlADlLFXBgKVTE4cDK0ndyVQIHVi6k09YDB1ZafPOXDgdWfsxT1AgHVgpUy5UJB1Y57OevGQ6s+TEtVSIcWAr3m3BglepOR+qFA0sgKfEhwYEVj53EnHBgSWQlLiY4sOJwE5sLDiyx1MQGBgdWLHLy8sGBJY+TqIjgwIqCTWImOLAkshIfExxY8dhlyAkHVgaQs1QBB5ZCRRwOrCx9J1clcGDlQjptPXBgpcU3f+lwYOXHPEWNcGClQLVcmXBglcN+/prhwJof01IlwoGlcL8JB1ap7nSkXjiwBJISHxIcWPHYScwJB5ZEVuJiggMrDjexueDAEktNbGBwYMUiJy8fHFjyOImKCA6sKNgkZoIDSyIr8THBgRWPXYaccGBlADlLFXBgKVTE4cDK0ndyVQIHVi6k09YDB1ZafPOXDgdWfsxT1AgHVgpUy5UJB1Y57OevGQ6s+TEtVSIcWAr3m3BglepOR+qFA0sgKfEhwYEVj53EnHBgSWQlLiY4sOJwE5sLDiyx1MQGBgdWLHLy8sGBJY+TqIjgwIqCTWImOLAkshIfExxY8dhlyAkHVgaQs1QBB5ZCRRwOrCx9J1clcGDlQjptPXBgpcU3f+lwYOXHPEWNcGClQLVcmXBglcN+/prhwJof01IlwoGlcL8JB1ap7nSkXjiwBJISHxIcWPHYScwJB5ZEVuJiggMrDjexueDAEktNbGBwYMUiJy8fHFjyOImKCA6sKNgkZoIDSyIr8THBgRWPXYaccGBlADlLFXBgKVTE4cDK0ndyVQIHVi6k09YDB1ZafPOXDgdWfsxT1AgHVgpUy5UJB1Y57OevGQ6s+TEtVSIcWAr3m3BglepOR+qFA0sgKfEhwYEVj53EnHBgSWQlLiY4sOJwE5sLDiyx1MQGBgdWLHLy8sGBJY+TqIjgwIqCTWImOLAkshIfExxY8dhlyAkHVgaQs1QBB5ZCRRwOrCx9J1clcGDlQjptPXBgpcU3f+lwYOXHPEWNcGClQLVcmXBglcN+/prhwJof01IlwoGlcL8JB1ap7nSkXjiwBJISHxIcWPHYScwJB5ZEVuJiggMrDjexueDAEktNbGBwYMUiJy8fHFjyOImKCA6sKNgkZoIDSyIr8THBgRWPXYaccGBlADlLFXBgKVTE4cDK0ndyVQIHVi6k09YDB1ZafPOXDgdWfsxT1AgHVgpUy5UJB1Y57OevGQ6s+TEtVSIcWAr3m3BglepOR+qFA0sgKfEhwYEVj53EnHBgSWQlLiY4sOJwE5sLDiyx1MQGBgdWLHLy8sGBJY+TqIjgwIqCTWImOLAkshIfExxY8dhlyAkHVgaQs1QBB5ZCRRwOrCx9J1clcGDlQjptPXBgpcU3f+lwYOXHPEWNcGClQLVcmXBglcN+/prhwJof01IlwoGlcL8JB1ap7nSkXjiwBJISHxIcWPHYScwJB5ZEVuJiggMrDjexueDAEktNbGBwYMUiJy8fHFjyOImKCA6sKNgkZoIDSyIr8THBgRWPXYaccGBlADlLFXBgKVTE4cDK0ndyVQIHVi6k09YDB1ZafPOXDgdWfsxT1AgHVgpUy5UJB1Y57OevGQ6s+TEtVSIcWAr3m3BglepOR+qFA0sgKfEhwYEVj53EnHBgSWQlLiY4sOJwE5sLDiyx1MQGBgdWLHLy8sGBJY+TqIjgwIqCTWImOLAkshIfExxY8dhlyAkHVgaQs1QBB5ZCRRwOrCx9J1clcGDlQjptPXBgpcU3f+lwYOXHPEWNcGClQLVcmXBglcN+/prhwJof01IlwoGlcL8JB1ap7nSkXjiwBJISHxIcWPHYScwJB5ZEVuJiggMrDjexueDAEktNbGBwYMUiJy8fHFjyOImKCA6sKNgkZoIDSyIr8THBgRWPXYaccGBlADlLFXBgKVTE4cDK0ndyVQIHVi6k09YDB1ZafPOXDgdWfsxT1AgHVgpUy5UJB1Y57OevGQ6s+TEtVSIcWAr3m3BglepOR+qFA0sgKfEhwYEVj53EnHBgSWQlLiY4sOJwE5sLDiyx1MQGBgdWLHLy8sGBJY+TqIjgwIqCTWImOLAkshIfExxY8dhlyAkHVgaQs1QBB5ZCRRwOrCx9J1clcGDlQjptPXBgpcU3f+lwYOXHPEWNcGClQLVcmXBglcN+/prhwJof01IlwoGlcL8JB1ap7nSkXjiwBJISHxIcWPHYScwJB5ZEVuJiggMrDjexueDAEktNbGBwYMUiJy8fHFjyOImKCA6sKNgkZoIDSyIr8THBgRWPXYaccGBlADlLFXBgKVTE4cDK0ndyVQIHVi6k09YDB1ZafPOXDgdWfsxT1AgHVgpUy5UJB1Y57OevGQ6s+TEtVSIcWAr3m3BglepOR+qFA0sgKfEhwYEVj53EnHBgSWQlLiY4sOJwE5sLDiyx1MQGBgdWLHLy8sGBJY+TqIjgwIqCTWImOLAkshIfExxY8dhlyAkHVgaQs1QBB5ZCRRwOrCx9J1clcGDlQjptPXBgpcU3f+lwYOXHPEWNcGClQLVcmXBglcN+/prhwJof01IlwoGlcL8JB1ap7nSkXjiwBJISHxIcWPHYScwJB5ZEVuJiggMrDjexueDAEktNbGBwYMUiJy8fHFjyOImKCA6sKNgkZoIDSyIr8THBgRWPXYaccGBlADlLFXBgKVTE4cDK0ndyVQIHVi6k09YDB1ZafPOXDgdWfsxT1AgHVgpUy5UJB1Y57OevGQ6s+TEtVSIcWAr3m3BglepOR+qFA0sgKfEhwYEVj53EnHBgSWQlLiY4sOJwE5sLDiyx1MQGBgdWLHLy8r0JDizil3hVRav6jOq6JjfHyGPjhIjgwDoBPFlZ4cCSxcep0byRDqw///Ab/ZQ+x++KXBr73sj+xv9tqox95IzLnSLPpDUuj4bO6pX5Z54wXv+5CGMimooiz5/3fUdt21LbranvnV/pON67HO0+/S7WU+n5Sffxc4izcbvYbRuv/ftQCHO5qldU1zzx16Y+W+s4xxTmoemnypvvz5kD5m+8EOd/n2qZIf3iEGJTZRzj8VC/PtRm+L/zwo05bBrms6aKqg2T04im4HD+MhmXruto3bXUtmva9szXn/AYx8e48Rlrx7WN6zmU91hv2u23Lm1V1bRqVtTUjV2IT5MYmGJ+fkICcH2z6ztat2vquvbgMx6aZXb7yVSfG8e3bzw+FP9U/YfybRA2m6oVNU1j+uh4zAjBrGzafSuPyzMF900ea9ftxaZvHuqHvuPfvmfeNz5O9WmfGW2q/bg/53mTx9mmspvkMnwe6r+n9+vX5k1eB42IODY/HRobQ9ru4Zb2eik+7Wg316XyR4JHU7s1UEi0ktK+zv12nOV1UEtdtyYWs8b94dC6IuTJ9vEw1Z+OjcfHxtTD4/EgYDUjASvkIYqn9eu7vIY18+b6wvzd/U5Z1/r272P7Gp/o96U52HaqiprNvMk1+zzhvpHeJ7J95IeMRIdGmcMxu77JfK67tdlzWreS/R3qlz5c7fatQ6j47DUO9VMfdMbI786b/mva3ZRT7SBFR55uQ+N506yB+u4gh7v8+kTsM57GzIdTde+2Q34oe0KkoeqbH37Dn8c9DXuq8rn/3A4oK/MAVsAKDn/ukGYsr2LFwwwibcuLcRawLjfCGSubtahDg8lut3t9QLGbKt4wb4fNWUMrVNgwyA0CFm+Q2741/M79mx7a5q7xcnlcvxWwVrTiQeWSuDz/86Z9mkOlWz55k2y4HASsQ0831xS3OyH4TNruCXzT7puenYBVM5+mQJ1jrROweHO17zcXjz5tNkVbsu2HJ3vXN7WNs/b5XN80LwvaC+JZcw7u5li6zjU+u3JYVB4LWMeEdJ92JzWN5ZJFD7uxcr+plwM+6aae2WexPlXGoT+/NC4P4jJvrvjFj9Y1EItWZt7cI2DF4igvH6+BGrMGMlxuXrDrWgM5AatdsxhpX/zMNdaeUo7POOuTxraryqxjeazlNRC/klW732QBazBM+O6nQzj3xzy8R/vE4dIYw4TRDnicZT65PoV9062BRuJyOLIycxi2NgLWiqp/+e1/vCgGeYLgycEKWHqa33jR1Xf8hsO+sdL3hG56MJY6O0HwgOL0Hpn9JjiqzUTck3lLZSb6TutWw8Jj3nAMroBJW2cwomUzbN4UMZ8sYjGfRoz0mULLxu5X+2W5yy3e+O9pHFh+UaVK5dYupm8OfI5GplTVFijXtk8zzl7aVBUIJVGVm745zJtW8GBnwCnbIRespP5t+2hVNcRuHY3z5qaJ9Pyuxzrq+O/hzuxEjW3uYiuiZljTlnPTzf1Ql8urDJfWtWNf4qWtr2Tp/OLHrmndBlnh47o17aZvlkQ8Xd1Modtv7j/tk67uHCVv17T2lAjPmzp/dg7n+dJqB3a/qWkYGu9P7Kkf3p9s3ZGqeDXXoVdGWK7+p7/5HxbG43hBqU8Q2C65+diOvRhSVU8br1A32/+tu2NhjfHguLCfR0mboRmHNGMcZMeDPh4dSmM+XzdXm23ljICWKOp4z9PSLy/zuc9VtnQex21nxNowj+ibMcc9b3wg4fWeG9erJI3Zu73Qtl9tffMSc85lf+khNfXRsVBq/1kbn6+xpXlNa57NjRmWSX18ur3JqKeqe8iRb2j4R20j7dZZ7wz2o2eOmywF5mK1Y38n1NRkL+9PBNIwe0jDy7x/851/vigezT0XfKzOHK1bVOheFFoRgO/6sm9y1LmQRygYpdg4IC4fEfACaiGJmE97x9f2/pmFhO4XpnPObd7KWWeS1r65eSs3un/GD6iFpNrw6e4ssW/l9I209ujZpTfmC6EoJkweZ1W/lWMHKP9vmDdjMFpKHveGlR0tGsdZ5oGHIePoHe7g0zoI8bhqHaDW1avxZ1a05ooB6wJ1TjONk4r2vumOa5txtmqoqpUdnXCDz7DoYceg2Z+wi1Bhg3X7Tb5PiE9PqPwNTdQcY+Yj6YMzSSef2zWQxtc8rn0ydzxvVn/x3T9b1N6EF+F8/4xdvOn72U2VPfKxWbwdUJCX/vTmmCSfve7tZfUaf5uF+HD2Wt2g4tYv5vgOX6BsrasaJwdun+bywOFiT7eYU9Vuh7HGHPcwY609xqyxd1pxuR4+JKF08TY0TjdvspCl9Wc+ImHuh+J729SNtBvaTN90H3lRSqa5t23gcnNUUuMgRGTmTL7cXGvfdAKWvbdNqegx9EPXN1n00LlD2YqRq82x9OHhtfTPnZd45nJztftN5nP7wR5108nIlG1e4pkP9ujdn2znzeGecHWE2gey94S3CxGwRo1w8wWwzeXmmhaqgy3ObZLHbx81NcTBVma+6GbESOvauWRpXfzzbjf97tJde1m9s5gv/gE3D2A+3zq8RWY+t2evdfVN7p3msvr6bLisXtnCbXhTbu8rGcTlbq3y/hn7tR37VVtz6a7at4+VvX9m9OLHtlqNfdMJWMNXijW+FKmsY2csYOkS67a74O0XwIZLd1XK6Cxg2a+g8gZL1xposLGYecV+oZhdHvzSQN0Ly9GLn/FXbXXxade0zk3nviBu7shUNNbaOz97+wXx4WNazrWjaax1XxzcfLBHqTvStc/tF6fdnYr61kBOwOLL6jdOVz1bTbty5f3m8BJvOQ6sYYLYClha5P5x63qDBCyzqeqI+dwKWJoGlK1vZStg2SNLKb5EWHKMGgtY5itDnXN56OPTXgTpvuimT8By7eiNELCGYy0QsEqOHvPUzYvxrQPrDRGwVF6IfUjAmqedSCtlc+RsI2DpmjPd4fM3QcAyx8yMC/1icHlsv5Aqrd3FxuPu5TVfW6xX5noMbQKWw8b2Tfs1+DdKwFK2tX5NwGIX+uaeutieIC+fWQNtXspCwJLFEAQsWXycEs3gQoKAdQqIcvJCwJLDxVyRQMCaC8nC5Qxvx3U7sOzLAghYhdvaLNVDwJoFRjGFuJey+h1YELDENLpZAoGANQuMxQuBgFWcglkDgANrVjjnLAwOrDnRLF2WO0QIB1ZpJuap322S4cCaB8+SpVx6k4wjhCWpmKVuCFizwCigEAhYAkiYMQQIWDOCWbwoOLD0OCQPHiGEA6t4P4sJAA6sGNRy5YEDKxfS6euBAys9xhlrgAMrI9iZqoIDKxPQqauBAys1wnnLH9+BhSOEebFPUBuOECYAtUSRw9WmOEJYAvw0dcKBlQbX3KXCgZUb8bT1wYGVFt8TSocD6wTwxGWFA0vP2ypuXHBg6eETDiw9XI77pnO7avxYhpngIGCJm+dPCQgC1inoCcoLAUsQGfOEAgFrHhxLlwIBqzQD89YPAWtePGcsDQLWjGAWLwoCls5NMo4QFu9aJwcAAUtn34SAdXLXKFwAjhAWJmDm6nGEcGZAixaHI4R65k0cIdTD5eYlHi5xLzo+Hq4cRwiFEhMRFo4QRoAmNwuOEMrlJjYyHCGMRU5B4yaWAAAgAElEQVRYPhwhFEbIieHAgXUigLKyw4Eli4/oaODAioZOakY4sKQyExYXHFhheElPDQeWWIbgwBJLTURgcGApfMNR1QQHVkRnEJYFDiydfRMOLGEdLTgcOLCCIROdAQ4s0fQEBgcHlp55Ew4sPVxyN8Yl7oGDWdbkcGBlhTtpZXBgJYU3d+FwYOVGPH19cGClxzhLDXBgZYE5WyVwYGWDOkdFcGDlQDlDHXBgZQA5bxVwYOXFO1VtcGClQrZMuXBglcHdo1Y4sDxAWkwSOLAUvuGAA2sx/e9YoHBg6eybcGAtvXvCgbV0Bi/HDweWJj7hwNIzb8KBpYdLHmPgwJI80sKBJZmdsNjgwArDS3hqOLCEExQRHhxYEaBJzAIHlkRW4mOCAyseO4E54cASSEpMSHBgxaAmOg8cWKLp8Q4ODixvqBaREA4ssTTBgSWWmojA4MBS+IYDDqyIniAvCxxYOvsmHFjy+lpYRHBgheElPTUcWNIZCokPDiw98yYcWHq45D4MB1bISJY7LRxYuRFPVx8cWOmwLVAyHFgFQE9cJRxYiQHOVTwcWLmQzlMPHFh5cM5UCxxYmYBOXQ0cWKkRzl4+HFjZIU9SIRxYSWAtVigcWMWgn6oYDqwphJb053BgKXzDAQfWkrrgwVjhwNLZN+HAWnr3hANr6Qxejh8OLE18woGlZ96EA0sPlzzGwIEleaSFA0syO2GxwYEVhpfw1HBgCScoIjw4sCJAk5gFDiyJrMTHBAdWPHYCc8KBJZCUmJDgwIpBTXQeOLBE0+MdHBxY3lAtIiEcWGJpggNLLDURgcGBpfANBxxYET1BXhY4sHT2TTiw5PW1sIjgwArDS3pqOLCkMxQSHxxYeuZNOLD0cMl9GA6skJEsd1o4sHIjnq4+OLDSYVugZDiwCoCeuEo4sBIDnKt4OLByIZ2nHjiw8uCcqRY4sDIBnboaOLBSI5y9fDiwskOepEI4sJLAWqxQOLCKQT9VMRxYUwgt6c/hwFL4hgMOrCV1wYOxwoGls2/CgbX07gkH1tIZvBw/HFia+IQDS8+8CQeWHi55jIEDS/JICweWZHbCYoMDKwwv4anhwBJOUER4cGBFgCYxCxxYElmJjwkOrHjsBOaEA0sgKTEhwYEVg5roPHBgiabHOzg4sLyhWkRCOLDE0gQHllhqIgKDA0vhGw44sCJ6grwscGDp7JtwYMnra2ERwYEVhpf01HBgSWcoJD44sPTMm3Bg6eGS+zAcWCEjWe60cGDlRjxdfXBgpcO2QMlwYBUAPXGVcGAlBjhX8XBg5UI6Tz1wYOXBOVMtcGBlAjp1NXBgpUY4e/lwYGWHPEmFcGAlgbVYoXBgFYN+qmI4sKYQWtKfw4Gl8A0HHFhL6oIHY4UDS2ffhANr6d0TDqylM3g5fjiwNPEJB5aeeRMOLD1c8hgDB5bkkRYOLMnshMUGB1YYXsJTw4ElnKCI8ODAigBNYhY4sCSyEh8THFjx2AnMCQeWQFJiQoIDKwY10XngwBJNj3dwcGB5Q7WIhHBgiaUJDiyx1EQEBgeWwjcccGBF9AR5WeDA0tk34cCS19fCIoIDKwwv6anhwJLOUEh8cGDpmTfhwNLDJfdhOLBCRrLcaeHAyo14uvrgwEqHbYGS4cAqAHriKuHASgxwruLhwMqFdJ564MDKg3OmWuDAygR06mrgwEqNcPby4cDKDnmSCuHASgJrsULhwCoG/VTFcGBNIbSkP4cDS+EbDjiwltQFD8YKB5bOvgkH1tK7JxxYS2fwcvxwYGniEw4sPfMmHFh6uOQxBg4sySMtHFiS2QmLDQ6sMLyEp4YDSzhBEeHBgRUBmsQscGBJZCU+Jjiw4rETmBMOLIGkxIQEB1YMaqLzwIElmh7v4ODA8oZqEQnhwBJLExxYYqmJCAwOLIVvOODAiugJ8rLAgaWzb8KBJa+vhUUEB1YYXtJTw4ElnaGQ+ODA0jNvwoGlh0vuw3BghYxkudPCgZUb8XT1wYGVDtsCJcOBVQD0xFXCgZUY4FzFw4GVC+k89cCBlQfnTLXAgZUJ6NTVwIGVGuHs5cOBlR3yJBXCgZUE1mKFwoFVDPqpiuHAmkJoSX8OB5bCNxxwYC2pCx6MFQ4snX0TDqyld084sJbO4OX44cDSxCccWHrmTTiw9HDJYwwcWJJHWjiwJLMTFhscWGF4CU8NB5ZwgiLCgwMrAjSJWeDAkshKfExwYMVjJzAnHFgCSYkJCQ6sGNRE54EDSzQ93sHBgeUN1SISwoElliY4sMRSExEYHFgK33DAgRXRE+RlgQNLZ9+EA0teXwuLCA6sMLykp4YDSzpDIfHBgaVn3oQDSw+X3IfhwAoZyXKnhQMrN+Lp6oMDKx22BUqGA6sA6ImrhAMrMcC5iocDKxfSeeqBAysPzplqgQMrE9Cpq4EDKzXC2cuHAys75EkqhAMrCazFCoUDqxj0UxXDgTWF0JL+HA4shW844MBaUhc8GCscWDr7JhxYS++ecGAtncHL8cOBpYlPOLD0zJtwYOnhkscYOLAkj7RwYElmJyw2OLDC8BKeGg4s4QRFhAcHVgRoErPAgSWRlfiY4MCKx05gTjiwBJISExIcWDGoic4DB5ZoeryDgwPLG6pFJIQDSyxNcGCJpSYiMDiwFL7hgAMroifIywIHls6+CQeWvL4WFhEcWGF4SU8NB5Z0hkLigwNLz7wJB5YeLrkPw4EVMpLlTgsHVm7E09UHB1Y6bAuUDAdWAdATVwkHVmKAcxUPB1YupPPUAwdWHpwz1QIHViagU1cDB1ZqhLOXDwdWdsiTVAgHVhJYixUKB1Yx6KcqhgNrCqEl/TkcWArfcMCBtaQueDBWOLB09k04sJbePeHAWjqDl+OHA0sTn3Bg6Zk34cDSwyWPMXBgSR5p4cCSzE5YbHBgheElPDUcWMIJiggPDqwI0CRmgQNLIivxMcGBFY+dwJxwYAkkJSYkOLBiUBOdBw4s0fR4BwcHljdUi0gIB5ZYmuDAEktNRGBwYCl8wwEHVkRPkJcFDiydfRMOLHl9LSwiOLDC8JKeGg4s6QyFxAcHlp55Ew4sPVxyH4YDK2Qky50WDqzciKerDw6sdNgWKBkOrAKgJ64SDqzEAOcqHg6sXEjnqQcOrDw4Z6oFDqxMQKeuBg6s1AhnLx8OrOyQJ6kQDqwksBYrFA6sYtBPVQwH1hRCS/pzOLAUvuGAA2tJXfBgrHBg6eybcGAtvXvCgbV0Bi/HDweWJj7hwNIzb8KBpYdLHmPgwJI80sKBJZmdsNjgwArDS3hqOLCEExQRHhxYEaBJzAIHlkRW4mOCAyseO4E54cASSEpMSHBgxaAmOg8cWKLp8Q4ODixvqBaREA4ssTTBgSWWmojA4MBS+IYDDqyIniAvCxxYOvsmHFjy+lpYRHBgheElPTUcWNIZCokPDiw98yYcWHq45D4MB1bISJY7LRxYuRFPVx8cWOmwLVAyHFgFQE9cJRxYiQHOVTwcWLmQzlMPHFh5cM5UCxxYmYBOXQ0cWKkRzl4+HFjZIU9SIRxYSWAtVigcWMWgn6oYDqwphJb053BgKXzDAQfWkrrgwVjhwNLZN+HAWnr3hANr6Qxejh8OLE18woGlZ96EA0sPlzzGwIEleaSFA0syO2GxwYEVhpfw1HBgCScoIjw4sCJAk5gFDiyJrMTHBAdWPHYCc8KBJZCUmJDgwIpBTXQeOLBE0+MdHBxY3lAtIiEcWGJpggNLLDURgcGBpfANBxxYET1BXhY4sHT2TTiw5PW1sIjgwArDS3pqOLCkMxQSHxxYeuZNOLD0cMl9GA6skJEsd1o4sHIjnq4+OLDSYVugZDiwCoCeuEo4sBIDnKt4OLByIZ2nHjiw8uCcqRY4sDIBnboaOLBSI5y9fDiwskOepEI4sJLAWqxQOLCKQT9VMRxYUwgt6c/hwFL4hgMOrCV1wYOxwoGls2/CgbX07gkH1tIZvBw/HFia+IQDS8+8CQeWHi55jIEDS/JIu9eBxZOjpkb4hglYfU/rdk1d3xK/7bBM6uHzdQGrJlaPqd8u0iV3Od/Y3gwHlmWzhoDl2yxEp7OLt4rquqFV0xheVf7gwNJF62sOLJ1rICatqVfUaO6bvOnoe2q7lrqupbbv1K2BeFtlVnVVTU2zosbMn7V5blW/N8KBZddAvN6rq4ZW9YrqujL/rpLPjvtmR23He5Ru2J3o2p/w03DfXDXMpdufqOqZm/bJHJr9Zsdcaps331QB63v/YjOTHOqaY6rH086gKW1a+1TX3m0yu2VNdRseJNc80bdr6vtumBqnci3ozwdA6qqyk33dWMGD/9r5jf+LDyeHsB9zuFuLK9f9991/340pJA5OywPJRsDiQWXPcy6IvddD5UUac1k3hk8jfkw84xTGU5jH4nWIu33tbF+bYS4vTxCqtMgNrMxfXZ8NoodFZ3d8DB0HD3F2rD+5PKHjwLH2s/mzvjcL0s1Yq2+kHRajNAhYdqx1XB4ba8dpdvvBuO9O9eNjc+G+9jDVpo71e7dJ5nmTN8kqf31vFuAsevBi3MybQ9/kv0/NbQ6TfRwew+vQ/Hlsvp3q71Ncs+DRtq3ZWCmTATbQMAZjAWvM53g9cmj8G2M8hafvnHqobfi2rXEb2zyDe4k3CFjq+ubQEXjtMxawxs8ZMm7uw+fQWBsyBvtuZ4+VyePsdg1kX8qqW9MeErA8lnvHMPZdf06tR/eN9btj+26afftQluo2RwjNS3ad8+ZYwDJrIN5uDrPloXVt6Nx2iPdj62afPh3SZi73zW7om8pGWzaB8DjLL2VXdg3kuNzdpxxbGx1bn0zNpce43rdn2Z0H9pW/r0zuj7wGqv7iu38mfw00WiXaxZsdUOQHHt5BTJNzosdGwBqtxMOLlJdj4NPds2MdWDr5NIJH1VA9vEne6FdaGu8w4vSdXbzxoGL7ppYH3HYfflTrwGpG4rLWvjm8eWwtl/rYtKKGcWCZN8laHVi2ffK8yYIkOz20/qy7g18WDC9+tDXaYazllwVmnGU+VfZM6/JoKsulcUeOlUJFDdhtkrveOgO0NVknFph5c3BgVbVbNCghcqSobtZASvumeVTXN+vGzpva+ubwPLzqMe7IzZpWSXsdPYYVsKwL3b3E08onv7wz2oFxYFnHkrZfPZwqsIaJKblpgU/vpg52LrOA9T9/9M9ks7gjuVsltTVNT3bgcY3DPi6LHoNbZ/y6Ma5IWblGfPILKiN2KBWv3OLNWa4vjSdaGu8lPvthEa5xati6OLhv8psOzXy6N1b8dy1NdXcgdG8fDZ+yRsl5ohk9FL8ssGOtVjbtm2P7wmDYVI1fM86DaNlSRou3Tf8sG1Gy2t3LAvMW2Q20Spvupm8qHWkvrWmdeKWpb+6safueX+LpnDfdo9o17XDkzI0CWvrnWJCkbiR4JBvuihXsHpVf/JhVkOr9Ju9PuF86AasY7MkqtmvaoW9qXNWO17RdR9W/+ut/sqhhhxeodkEz6mzj5jDlGx5PnOM3B7sdd9+fHapnXOcumvt2RhPpzaaRNxrDZmNRBHl2TbcmNULA8Fbn0vrN563OFEe7E+uxXeoxTpwSdejZdtvcpbLsQsZuHJlTfcLrBtahbxrb6rGJcEeU3sC6y8+uR9iHz6nOcqjuMbeH2okpm/um5VPnEnVL3WbzOFbqDo2vPuPu1Pjp+tm+vrhvfPYZa/bFdamN2LGWNxxaf25Rc+g4+mbcPTTmnqrundJm9tFypH+alyFKN4+ufRoNwMybE2ug3XnLF8tj6Y51k935OLZLmXJG86ZiPq3j3m46Lh109e1zh9Yth+ZS3zXTlCgxta59bay346wT0GObhvQx2p2gsHROkDjXPOcz9/r0/UPrrV3QzRqWuexUrmc3w2bFgIyNBAF8Tq11Dq2P983BU2vWqXXzVPtw6x/N+81B2HHH6vo594KH9n+uDfjUtW//MTXXjrWMzdrZjbM6HWYbSN1e85vf/pNFzCWuDdSVvdhz81ZO4lurqQFjz4RwSSw1Rz5Y+V/rPSIwDCh8z4V9Yz4wbO4N2AHIZ/Kde2XjO5kfrHf7EOaoB7+VU3pEwI6d9kLsxl0EuW8CPyQEMtbHRCPfxfwpi+7JycYGYcSO4WJPzVOEuYcv59G6Y21g7r5tyrMrRXOER/PdUMOTmvuEhjsuJuE8eeybrGHmBK/3Ta3iMgPn7hOyRwQOqI6H+pPv2mSqDezOycfGb1+2d8rgt+XmCE+v99grP7IbZ/llnv2dsCRPMY76cn2E580VA8rvbePjWDzOXj6SfgKfvn3HJ91Un3ZNb2q9ZU5OcN9UehfxgCWvaXk9y+va7X7TB+jANPv67LFxei4e3aJ7+JAE83ni6BP44PmSc5M282Y93I851cZD9i/7HsN3nh0DfuylwLH9iWk/W0XU7U80v8izfXNF1Z9/+A0ho+t0Y3aT/eZ859QbjukiRabgNxubS1qVvn00S+/RF8C2izeRlEQFZbYWZnLg+4TsQlzrER5315e7QNl8mSYKNdmZ+oFLew/fHrFVdvhe0dmXx/bLNOZlAenkkl0e7tJd7p9af2ayb/hy8+3XFjX1Tbd0sws3/jDIhVp3JLdR91EQvvNr97J6DW14kJbtvGnu+lJ8WX1VDXfw7YoeGpgc5NXB4WG/tjjMmzoeb/sU5r52e3Rn/EU3TePs5mHdvLkeviCujUsnYA0v8ew9fO5lgbKHdR/s4Zd4nfvwgLJnHF7z2Psx7ZdQNe5PtvvN1nwcTe3VPKMP9lTf/HAZDizzVsp8AayhM6eiautnGxOSfbvBi7et4BEiGcsGxr0d316gbCd+beKO+7zwroA1/jKEbKZ8orNs2q/z2Tccm7ePylZvzKf5cubwIYntm3I9fdN9U3H8JVR19yIM7s/dr0bZ1q6JS+sR5HbLF9Wrvdzc0Gb7pu2fF2Yu0TXOurGYv7Y4WogbcVnZQDs86njetNcpaOqbljP71Sg7Z7LbQ9sayLVa69gZPjzQdwOT2vjkNRCPtWeGT7f+81lFLSYNv5g0okdHF+uLzdf5dI21dkS1H9OyzmXm1Yw/iq4acO3TfnHa7jcvf1N7Ma3yaKBmDTR8sMcJWOouqh/aq7lP0b3Ec9fWKJs3zX7TvJRtCAKWpD56UMDSNNFvD15tBKxB/NC2eHszBCzLJwQsSQPJ6bFAwDodQwklQMCSwMKcMVwWsOYsWVpZlwUsadGdGs+bLmDpWtPyKsjdGalfwOqM+3ytVsDavvjZCFj2ojrVAhZfdWL3YLr6phWwhhfsgwMLAtap81e5/Ga/CQGrHAEHa4aAJZCU+JAgYMVjJzHnm+HAsshDwJLYAsNjgoAVjpnsHBCwZPPjGx0ELF+klpEOAtYyePKL0s2bELD88JKcCgKWPkESApbEHgcBSyIr0TFBwIqGTmRGCFgiaYkKyvVNdwcWv320P32TPY4QRjURoZkgYAklJjAsCFiBgAlPDgFLOEFB4UHACoJLdGIIWPrWtBCwJHY5CFgSWYmOCQJWNHQiM0LAEklLVFAQsKJgk5vpDb0DSy4hp0eGI4SnYyilhNfvwNK1qcIRQl18QsCSMnKcHgcELH19EwLW6f1i/hIgYM2PacESIWAVBD9B1RCwEoBaqEgIWIWAT1UtBKxUyBYrFwJWMehnrxgC1uyQlinQXOKOO7DKgD9vrbuXuOMOrHnxzV2a2Z+ov8R9uHMZd2Dlbl4e9UHA8gBpOUkgYC2HK59IIWD5oLSMNBCwlsGTd5QQsLyhWkpCCFhLYWo6TghY0xgtIgUErEXQ5BMkBCwflJaTBgKWaK568xUI/nLdWb0yX/xQ94OApYpSCFiq6DRjjvlEbddS266HTw7zM+obi3CJu462i0vcdfC4fQrcgaWDUdyBpYNH9xS4A0sTnzhCqIdNHCHUtT/BVwil9k0IWFKZiYoLAlYUbGIzQcASS01wYHBgBUMmOwMcWLL5iYgODqwI0IRmgQNLKDGhYcGBFYqY2PRwYImlJiowOLCiYMuVCQ6sXEinrocVVP6xm25Vr4jdHnVdU9/b/67lBwFLC5P2OSBg6eETApYeLofOadyR1iF5YeaSSqEzkm+A4HmzaVbUVLUyEi8/DgQsPfRCwFLCJQQsJUTa9SzPk/zXulsT7sBaNrUQsETzBwFLND0BwUHAUmjpHETIhgXJethY6dIjIWAp4hMCVsCAvYSkcGAtgaWgGCFgBcElOjEELNH0+AcHAcsfK+EpIWAJJygwPAhYgYDlTQ4BKy/e6WqDgAUBK13rSlcyHFjpsM1dMgSs3Ignrg8CVmKA8xcPASs/5qlqhICVCtnM5ULAygx4uuogYKXDtkTJELBKoO5dJwQsb6iEJ4SABQFLeBPdGx4ErCWytj9mCFh6uDRPAgFLGaFEELD0UAoBSwmXELCUEIkjhMNNNqr45HHWXKPQ2msU+MoBbR+ZwiXuUpssLnGXykxUXLgDKwo2sZkgYImlJjgwCFjBkMnOAAFLNj8R0UHAigBNaBYIWEKJCQ0LAlYoYmLTw4EllpqowODAioItVyY4sHIhnboeOLDgwErdxlKUDwErBaplyoSAVQb3ZLVCwEoGbamCIWCVQn7+eiFgzY9pkRIhYBWBPUWlELBSoFquTAhY5bD3qBkClgdIi0gCAQsC1iIa6k6QELCWyNr+mCFg6eHSPAkELGWE4gihJkIhYClhEwKWEiJxhBBHCJfZlHGEUCpvOEIolZmouHCEMAo2sZkgYImlJjgwCFjBkMnOAAFLNj8R0cGBFQGa0CwQsIQSExoWBKxQxMSmhwNLLDVRgcGBFQVbrkxwYOVCOnU9cGDBgZW6jaUoHwJWClTLlAkBqwzuyWqFgJUM2lIFQ8Aqhfz89ULAmh/TIiVCwCoCe4pKIWClQLVcmRCwymHvUTMELA+QFpEEAhYErEU01J0gIWAtkbX9MUPA0sOleRIIWMoIxRFCTYRCwFLCJgQsJUTiCCGOEC6zKeMIoVTecIRQKjNRceEIYRRsYjNBwBJLTXBgELCCIZOdAQKWbH4iooMDKwI0oVkgYAklJjQsCFihiIlNDweWWGqiAoMDKwq2XJngwMqFdOp64MCCAyt1G0tRPgSsFKiWKRMCVhnck9UKASsZtKUKhoBVCvn564WANT+mRUqEgFUE9hSVQsBKgWq5MiFglcPeo2YIWB4gLSIJBCwIWItoqDtBQsBaImv7Y4aApYdL8yQQsJQRiiOEmgiFgKWETQhYSojEEUIcIVxmU8YRQqm84QihVGai4sIRwijYxGaCgCWWmuDAIGAFQyY7AwQs2fxERAcHVgRoQrNAwBJKTGhYELBCERObHg4ssdREBQYHVhRsuTLBgZUL6dT1wIEFB1bqNpaifAhYKVAtUyYErDK4J6sVAlYyaEsVDAGrFPLz1wsBa35Mi5QIAasI7CkqhYCVAtVyZULAKoe9R80QsDxAWkQSCFgQsBbRUHeChIC1RNb2xwwBSw+X5kkgYCkjFEcINREKAUsJmxCwlBCJI4Q4QrjMpowjhFJ5wxFCqcxExYUjhFGwic0EAUssNcGBQcAKhkx2BghYsvmJiA4OrAjQhGaBgCWUmNCwIGCFIiY2PRxYYqmJCgwOrCjYcmWCAysX0qnrgQMLDqzUbSxF+RCwUqBapkwIWGVwT1YrBKxk0JYqGAJWKeTnrxcC1vyYFikRAlYR2FNUCgErBarlyoSAVQ57j5ohYHmAtIgkELAgYC2ioe4ECQFriaztjxkClh4uzZNAwFJGKI4QaiIUApYSNiFgKSESRwhxhHCZTRlHCKXyhiOEUpmJigtHCKNgE5sJApZYaoIDg4AVDJnsDBCwZPMTER0cWBGgCc0CAUsoMaFhQcAKRUxsejiwxFITFRgcWFGw5coEB1YupFPXAwcWHFip21iK8iFgpUC1TJkQsMrgnqxWCFjJoC1VMASsUsjPXy8ErPkxLVIiBKwisKeoFAJWClTLlQkBqxz2HjVDwPIAaRFJIGBBwFpEQ90JEgLWElnbHzMELD1cmieBgKWMUBwh1EQoBCwlbELAUkIkjhDiCOEymzKOEErlDUcIpTITFReOEEbBJjYTBCyx1AQHBgErGDLZGSBgyeYnIjo4sCJAE5oFApZQYkLDgoAVipjY9HBgiaUmKjA4sKJgy5UJDqxcSKeuBw4sOLBSt7EU5UPASoFqmTIhYJXBPVmtELCSQVuqYAhYpZCfv14IWPNjWqRECFhFYE9RKQSsFKiWKxMCVjnsPWqGgOUB0iKSQMCCgLWIhroTJASsJbK2P2YIWHq4NE8CAUsZoThCqIlQCFhK2ISApYRIHCHEEcJlNmUcIZTKG44QSmUmKi4cIYyCTWwmCFhiqQkODAJWMGSyM0DAks1PRHRwYEWAJjQLBCyhxISGBQErFDGx6eHAEktNVGBwYEXBlisTHFi5kE5dDxxYcGClbmMpyoeAlQLVMmVCwCqDe7JaIWAlg7ZUwRCwSiE/f70QsObHtEiJELCKwJ6iUghYKVAtVyYErHLYe9QMAcsDpEUkgYAFAWsRDXUnSAhYS2Rtf8wQsPRwaZ4EApYyQnGEUBOhELCUsAkBSwmROEKII4TLbMo4QiiVNxwhlMpMVFw4QhgFm9hMELDEUhMcGASsYMhkZ4CAJZufiOjgwIoATWgWCFhCiQkNCwJWKGJi08OBJZaaqMDgwIqCLVcmOLByIZ26Hjiw4MBK3cZSlA8BKwWqZcqEgFUG92S1QsBKBm2pgiFglUJ+/nohYM2PaZESIWAVgT1FpRCwUqBarkwIWOWw96gZApYHSItIAgELAtYiGupOkBCwlsja/pghYOnh0jwJBCxlhOIIoSZCIWApYRMClhIicYQQRwiX2ZRxhFAqbzhCKJWZqLhwhDAKNrGZIGCJpSY4MAhYwZDJzgABSzY/EdHBgRUBmtAsELCEEhMaFgSsUMTEpoz9zK8AAAfeSURBVIcDSyw1UYHBgRUFW65McGDlQjp1PXBgwYGVuo2lKB8CVgpUy5QJAasM7slqhYCVDNpSBUPAKoX8/PVCwJof0yIlQsAqAnuKSiFgpUC1XJkQsMph71EzBCwPkBaRBAIWBKxFNNSdICFgLZG1/TFDwNLDpXkSCFjKCMURQk2EQsBSwiYELCVE4gghjhAusynjCKFU3nCEUCozUXHhCGEUbGIzQcASS01wYBCwgiGTnQEClmx+IqKDAysCNKFZIGAJJSY0LAhYoYiJTQ8HllhqogKDAysKtlyZ4MDKhXTqeuDAggMrdRtLUT4ErBSolikTAlYZ3JPVCgErGbSlCoaAVQr5+euFgDU/pkVKhIBVBPYUlULASoFquTIhYJXD3qNmCFgeIC0iCQQsCFiLaKg7QULAWiJr+2OGgKWHS/MkELCUEYojhJoIhYClhE0IWEqIxBFCHCFcZlPGEUKpvOEIoVRmouLCEcIo2MRmgoAllprgwCBgBUMmOwMELNn8REQHB1YEaEKzQMASSkxoWBCwQhETmx4OLLHURAUGB1YUbLkywYGVC+nU9cCBBQdW6jaWonwIWClQLVMmBKwyuCerFQJWMmhLFQwBqxTy89cLAWt+TIuUCAGrCOwpKoWAlQLVcmVCwCqHvUfNELA8QFpEEghYELAW0VB3goSAtUTW9scMAUsPl+ZJIGApIxRHCDURCgFLCZsQsJQQiSOEOEK4zKaMI4RSecMRQqnMRMWFI4RRsInNBAFLLDXBgUHACoZMdgYIWLL5iYgODqwI0IRmgYAllJjQsCBghSImNj0cWGKpiQoMDqwo2HJlggMrF9Kp64EDCw6s1G0sRfkQsFKgWqZMCFhlcE9WKwSsZNCWKhgCVink568XAtb8mBYpEQJWEdhTVAoBKwWq5cqEgFUOe4+a32QBi+HRI3q8JmDVFdVVTX3fe7SD5SQ57MDSxKdls64qquuamnpl/m5+uuikN0PAYtK4P1bUNCtq6mY79CjiEwLWcsZRr0ghYHnBtKRElwUsOy7p+dnBtKq2c2ZT61sDOb5eF7A0rYHcYofXQBWt6jOzBnJzjJ42a49q8zq96ztary/M3y2TuvqmGW14DVTbNdB2TatnEbQrYLVtOyzaNXHJ25DetM66buyatqrtVKKHymEuqYjH2a7raN1eDPtpffOm2W8S708aqv78w28sg0arXw2bqpXZYHEH3P2dSpcDw6cLH6srpJzxM3C+vu+IB5O2W5tGuAyCAqZpFqqM4NHQqrFcGgFrVIQP/mONxDe9T5Rj7mJ5dPUwe2Yh3rbU9S31XWcbsqZf35sJvq4sn1XNyxn/ZzwV493+M/53N0/tiya0vZm+2PfU9i217Zq6bijB/1EXwTo/Dm+smEszSQRw6fuAp47TvvUcS7dZiLdrajtevCn89b1diDdntGoaM876/EL7xlGcZ5IeptoML9x4rLWLN4Xj7DDh1Y0dZ3khvm8NNMXFlHQwNf/tto2p9D7tzc3lbijlMrlPmnmT10G+hSwlnZs6BsGDxavNJjngGXbnTp+51CfNvjnVZ5o71EfbYU3LXHI/1bcGsoIHr2VXzVbA8qUylBPfckPTTcVh/nwjYK3NWoj/XR2fYwFrmDen2v8h7KbmrV2OfNKHpjmU3q1p18MayJgIph40tFGVTj+sgcYCVsy8eQiWqT5z6uMfW4u9Nv7z/mRYAxlx2aehnBpg7vzDfpPF5eqbSxGwhgFl4/LwXIjnxnaO+swm2SzGrYClTio2K2grWrm3G26TnHowmIOfkDJYwOIFm/mLBSy7AggpYgFprZjMAlbTsJDlt0lO9WC+bcg33ThOnhSYR95YaXMMbp9z5KY78KIgFXe5y7Wih91UKXxVYOC0Lo/G/OW7cIvpG7m5263PvX1sWcBSN8bap2X+xq6dEnuNHG3Dzpu8DmIByzkDSrew+et3Lg/7AqjsvDn/021LNPOmGWvdvKlvDcRPazbJ7NhRPm9u9yed0nUQj7M0nCiwfGr9jd2RWvebvL987YTIQggNmW/tS9mW1jzO8osClT+73zTr2f/xb/50eiY59ponBN1YMEd1VGweUzyYOIis86oftA73um6kfYxfVY5xHVsjj425MbyN8xx73WBW2lM6TWVELPM/vXODZaYn4u3xoF4RVUe63BQv+/78mEQf0uem+D3IuSXQbq60k8k0mu3V6zqkz6NP8XuMr91mM1Wfb/rXmuMb1DfNC2V21o0m+6kxdKqfhPS5zYA//MNu3ae0l2HsMQc83qS+OX7p4/Pa9Bif+4bq3TIPrY/2tYPYOflSHHYNpH2ote96rOvVDLZzjXeH+mdoXwtNP653k9etgaYeLmZQkZXHjrPDoDReA52C42aM22Pz9C3XN92+ujb9cuBvGGe1s2l6JJO5+4LdZ7zd1ywPjaG+QPpwGLQe4jWQ3choFq9ck96MsZv+uUPSMXx9/sztCX2491kD7+4vp9qdIbMaTofIGhfnjsbqBm7e3NmLj3Hy6TMhwR3ah56yP90Xo/lvwxrogy98cd8SLSRspAUCQAAIAAEgAASAABAAAkAACAABIAAEgAAQAALJEKggYCXDFgUDASAABIAAEAACQAAIAAEgAASAABAAAkAACMyAAASsGUBEEUAACAABIAAEgAAQAAJAAAgAASAABIAAEAAC6RD4Dwkt/xKU9l7tAAAAAElFTkSuQmCC;" vertex="1" parent="1">
          <mxGeometry x="90" y="10" width="470" height="314.11" as="geometry" />
        </mxCell>
        <mxCell id="OzNkCJJOeW8sa5ZOPFUS-10" value="Eple" style="swimlane;fontStyle=1;align=center;verticalAlign=top;childLayout=stackLayout;horizontal=1;startSize=26;horizontalStack=0;resizeParent=1;resizeParentMax=0;resizeLast=0;collapsible=1;marginBottom=0;whiteSpace=wrap;html=1;" vertex="1" parent="1">
          <mxGeometry x="70" y="350" width="160" height="144" as="geometry" />
        </mxCell>
        <mxCell id="OzNkCJJOeW8sa5ZOPFUS-11" value="x: int&lt;br&gt;&lt;br&gt;y: int&lt;br&gt;&lt;br&gt;radius:int" style="text;strokeColor=none;fillColor=none;align=left;verticalAlign=top;spacingLeft=4;spacingRight=4;overflow=hidden;rotatable=0;points=[[0,0.5],[1,0.5]];portConstraint=eastwest;whiteSpace=wrap;html=1;" vertex="1" parent="OzNkCJJOeW8sa5ZOPFUS-10">
          <mxGeometry y="26" width="160" height="84" as="geometry" />
        </mxCell>
        <mxCell id="OzNkCJJOeW8sa5ZOPFUS-12" value="" style="line;strokeWidth=1;fillColor=none;align=left;verticalAlign=middle;spacingTop=-1;spacingLeft=3;spacingRight=3;rotatable=0;labelPosition=right;points=[];portConstraint=eastwest;strokeColor=inherit;" vertex="1" parent="OzNkCJJOeW8sa5ZOPFUS-10">
          <mxGeometry y="110" width="160" height="8" as="geometry" />
        </mxCell>
        <mxCell id="OzNkCJJOeW8sa5ZOPFUS-13" value="bli-spist()" style="text;strokeColor=none;fillColor=none;align=left;verticalAlign=top;spacingLeft=4;spacingRight=4;overflow=hidden;rotatable=0;points=[[0,0.5],[1,0.5]];portConstraint=eastwest;whiteSpace=wrap;html=1;" vertex="1" parent="OzNkCJJOeW8sa5ZOPFUS-10">
          <mxGeometry y="118" width="160" height="26" as="geometry" />
        </mxCell>
      </root>
    </mxGraphModel>
  </diagram>
</mxfile>
